<?xml version="1.0" standalone="no"?>
<!DOCTYPE svg PUBLIC "-//W3C//DTD SVG 20010904//EN"
 "http://www.w3.org/TR/2001/REC-SVG-20010904/DTD/svg10.dtd">
<svg version="1.0" xmlns="http://www.w3.org/2000/svg"
 width="1000.000000pt" height="1000.000000pt" viewBox="0 0 1000.000000 1000.000000"
 preserveAspectRatio="xMidYMid meet">
<metadata>
Created by potrace 1.14, written by Peter Selinger 2001-2017
</metadata>
<g transform="translate(0.000000,1000.000000) scale(0.100000,-0.100000)"
fill="#000000" stroke="none">
<path d="M4831 8652 c-6 -10 -10 -11 -15 -3 -4 6 -14 8 -24 3 -9 -4 -50 -7
-91 -7 -47 1 -75 -3 -78 -10 -2 -8 -23 -11 -56 -9 -32 2 -54 -1 -59 -9 -6 -9
-8 -8 -8 3 0 12 -2 12 -9 1 -5 -8 -28 -13 -60 -14 -28 0 -51 -4 -51 -9 0 -5
-4 -7 -9 -3 -5 3 -12 2 -15 -3 -3 -5 -19 -7 -36 -4 -19 3 -30 0 -30 -7 0 -7
-4 -10 -9 -6 -5 3 -13 0 -17 -6 -4 -8 -9 -7 -15 2 -7 11 -9 11 -9 1 0 -7 -4
-10 -10 -7 -5 3 -10 2 -10 -2 0 -5 -14 -10 -31 -11 -40 -3 -51 -10 -43 -25 5
-9 4 -9 -5 -1 -14 13 -54 7 -45 -7 3 -5 -3 -6 -12 -2 -13 5 -15 3 -9 -7 6 -10
4 -11 -6 -4 -21 13 -40 14 -33 2 5 -7 -2 -9 -19 -6 -17 3 -32 -1 -42 -12 -8
-9 -25 -16 -37 -15 -13 1 -29 -4 -36 -12 -8 -7 -18 -11 -23 -7 -6 3 -16 1 -23
-5 -7 -6 -21 -12 -32 -14 -10 -2 -30 -9 -43 -16 -19 -11 -22 -11 -15 1 4 7 -3
4 -16 -7 -14 -12 -20 -14 -15 -5 6 11 3 10 -12 -3 -11 -9 -23 -14 -26 -10 -4
3 -7 1 -7 -5 0 -6 -7 -9 -15 -6 -8 4 -17 -1 -21 -9 -3 -9 -13 -18 -21 -21 -14
-6 -14 -4 -2 11 11 15 9 14 -9 -1 -13 -11 -30 -21 -38 -22 -9 -1 -24 -10 -34
-19 -10 -9 -23 -14 -28 -11 -6 3 -12 -1 -16 -9 -3 -8 -15 -15 -26 -15 -11 0
-20 -5 -20 -11 0 -7 -10 -9 -25 -7 -13 3 -22 2 -20 -2 4 -7 -16 -16 -39 -18
-5 0 -13 -7 -18 -16 -5 -9 -18 -16 -29 -16 -11 0 -17 -4 -14 -10 3 -5 1 -11
-4 -11 -6 -1 -16 -2 -21 -3 -6 0 -15 -8 -20 -16 -5 -8 -10 -11 -10 -6 0 4 -12
1 -26 -9 -15 -9 -23 -12 -20 -6 5 7 1 9 -8 5 -9 -3 -13 -10 -10 -16 3 -5 -3
-12 -15 -15 -11 -3 -18 -10 -14 -16 4 -6 0 -8 -11 -4 -9 4 -15 3 -12 -2 3 -4
-12 -16 -34 -26 -21 -10 -41 -24 -44 -32 -3 -8 -11 -11 -16 -8 -6 4 -20 -5
-31 -19 -21 -26 -46 -37 -33 -13 4 6 -2 3 -13 -8 -11 -11 -19 -23 -16 -27 2
-5 -3 -8 -11 -8 -8 0 -22 -7 -30 -16 -9 -8 -16 -13 -16 -10 0 3 -10 -5 -23
-17 -13 -12 -21 -26 -19 -31 3 -5 0 -6 -6 -2 -6 4 -20 -2 -32 -14 -11 -11 -25
-20 -30 -20 -6 0 -9 -3 -9 -7 3 -20 -2 -26 -11 -13 -7 11 -10 11 -10 2 0 -7
-4 -10 -10 -7 -5 3 -10 1 -10 -4 0 -15 -66 -81 -74 -74 -3 4 -6 1 -6 -5 0 -7
-8 -12 -17 -12 -15 0 -16 -2 -3 -10 13 -8 13 -10 -2 -10 -10 0 -41 -24 -70
-52 -29 -29 -56 -52 -60 -50 -5 1 -8 -2 -8 -6 0 -13 -50 -69 -50 -57 -1 6 -8
-2 -16 -17 -8 -16 -22 -28 -30 -28 -10 0 -14 -6 -10 -15 5 -13 -5 -20 -26 -16
-5 0 -8 -5 -8 -13 0 -8 -7 -16 -15 -20 -8 -3 -15 -9 -14 -13 4 -22 -3 -33 -18
-33 -9 0 -14 -3 -10 -6 3 -4 -10 -22 -29 -41 -22 -21 -33 -40 -30 -49 3 -9 1
-12 -4 -9 -6 3 -10 1 -10 -5 0 -6 -4 -8 -10 -5 -6 3 -10 -1 -10 -9 0 -9 -7
-16 -16 -16 -8 0 -13 -4 -10 -9 3 -5 -1 -14 -9 -21 -16 -13 -10 -35 6 -24 5 3
8 2 7 -3 -2 -4 -1 -8 2 -8 13 0 37 -31 32 -40 -2 -5 1 -5 8 2 11 10 19 6 42
-17 34 -36 34 -41 7 -58 -12 -8 -18 -19 -15 -28 3 -9 1 -12 -4 -9 -6 3 -10 1
-10 -5 0 -6 -9 -20 -20 -32 -11 -12 -20 -28 -20 -35 0 -7 -4 -13 -9 -13 -10 0
-27 -39 -23 -53 1 -5 -2 -6 -7 -3 -8 5 -22 -7 -27 -24 -11 -37 -18 -50 -25
-50 -5 0 -9 -9 -9 -20 0 -11 -4 -20 -10 -20 -5 0 -10 -9 -10 -21 0 -11 -5 -17
-10 -14 -6 4 -9 3 -8 -2 4 -12 -24 -83 -33 -83 -6 0 -21 -34 -23 -55 -1 -5 -7
-16 -14 -23 -7 -8 -10 -18 -7 -23 4 -5 1 -9 -4 -9 -6 0 -11 -7 -11 -15 0 -9
-7 -18 -15 -21 -12 -5 -13 -10 -4 -20 9 -11 8 -14 -4 -14 -8 0 -18 -12 -22
-27 -3 -15 -12 -31 -18 -35 -9 -6 -9 -8 0 -8 7 0 10 -7 7 -15 -4 -8 -9 -13
-14 -10 -4 2 -7 -10 -8 -27 0 -17 -6 -34 -13 -38 -6 -4 -9 -12 -5 -18 3 -6 0
-13 -6 -15 -10 -4 -10 -6 0 -6 10 -1 10 -5 -2 -17 -9 -8 -14 -20 -11 -25 4 -5
0 -9 -7 -9 -9 0 -9 -3 2 -10 13 -8 12 -10 -4 -10 -12 0 -16 -5 -12 -16 3 -8
-1 -28 -9 -43 -8 -16 -11 -32 -7 -35 4 -4 -1 -12 -10 -17 -11 -6 -15 -18 -12
-34 3 -17 -1 -27 -11 -31 -8 -3 -12 -11 -8 -17 10 -17 10 -56 -1 -54 -6 1 -10
-3 -11 -10 0 -6 -3 -14 -7 -18 -4 -4 -4 -13 -1 -21 3 -8 1 -14 -5 -14 -5 0 -9
-10 -9 -22 0 -13 -5 -36 -12 -52 -6 -17 -11 -39 -10 -50 2 -35 -1 -47 -9 -42
-5 3 -8 -14 -7 -38 l1 -44 -77 2 c-42 0 -75 -2 -73 -5 2 -4 -3 -12 -10 -18
-10 -9 -16 -9 -21 -1 -5 8 -13 6 -27 -7 -11 -10 -22 -17 -24 -15 -10 6 -21 0
-46 -22 -14 -14 -29 -22 -32 -19 -3 4 -6 1 -6 -6 0 -8 -7 -11 -15 -7 -8 3 -14
2 -14 -2 3 -19 -2 -33 -10 -28 -5 3 -12 -6 -15 -20 -4 -15 -10 -24 -13 -21 -6
7 -36 -29 -46 -55 -3 -10 -10 -18 -15 -18 -5 0 -8 -10 -8 -22 1 -13 -4 -36
-12 -52 -11 -23 -11 -27 0 -21 10 6 11 5 1 -6 -16 -16 -17 -33 -1 -23 7 5 8 3
3 -7 -10 -15 -13 -189 -4 -183 4 2 10 -3 13 -12 9 -22 8 -26 -6 -18 -7 5 -8 3
-3 -7 18 -28 13 -46 -11 -41 -13 2 -23 7 -22 11 3 16 -15 60 -23 55 -8 -5 -14
24 -10 53 1 6 -3 14 -9 18 -5 3 -10 14 -10 25 0 29 -23 29 -50 1 -24 -26 -33
-73 -17 -97 3 -6 3 -14 0 -18 -10 -9 -11 -106 -2 -106 4 0 6 -9 4 -20 -2 -11
1 -22 6 -26 6 -3 5 -12 -3 -22 -7 -9 -8 -13 -2 -9 8 4 10 -9 9 -43 -1 -27 2
-47 6 -44 5 3 9 -4 9 -15 0 -11 -4 -23 -10 -26 -5 -3 -10 -16 -10 -27 0 -21 0
-21 -20 -3 -12 10 -19 24 -16 31 2 6 -2 21 -10 33 -12 16 -12 21 -2 21 8 0 6
5 -5 11 -9 6 -15 14 -12 20 4 5 1 9 -6 9 -9 0 -9 3 0 14 10 11 8 16 -9 21 -11
3 -17 11 -14 17 11 18 -18 58 -43 58 -13 0 -23 -4 -23 -9 0 -9 -39 -24 -55
-21 -5 1 -7 -1 -3 -5 4 -4 -6 -19 -22 -34 -16 -14 -34 -39 -39 -54 -7 -19 -15
-26 -23 -21 -9 5 -9 2 1 -9 12 -15 11 -17 -2 -17 -10 0 -15 -7 -12 -20 2 -12
-2 -20 -10 -20 -9 0 -12 -9 -9 -30 4 -21 1 -30 -9 -30 -9 0 -13 -9 -12 -25 2
-14 -1 -25 -6 -25 -5 0 -8 -3 -8 -8 1 -4 0 -11 -1 -17 -1 -5 -1 -26 -1 -45 1
-24 -1 -31 -7 -21 -13 19 -22 -8 -11 -31 5 -9 5 -19 1 -22 -10 -6 -9 -36 1
-53 4 -6 3 -15 -3 -18 -8 -5 -8 -11 0 -20 8 -9 8 -15 0 -20 -7 -4 -7 -12 0
-25 6 -10 6 -21 2 -24 -10 -6 -9 -36 1 -53 4 -6 3 -14 -3 -18 -6 -4 -7 -12 -3
-18 11 -18 12 -37 2 -37 -6 0 -5 -8 1 -20 7 -12 7 -20 1 -20 -13 0 -4 -42 11
-51 7 -4 9 -11 6 -15 -4 -4 -3 -15 2 -25 7 -11 7 -20 0 -24 -11 -7 8 -55 22
-55 5 0 6 -6 1 -12 -12 -21 -12 -39 1 -44 7 -3 13 -21 13 -41 1 -19 7 -39 15
-44 7 -5 9 -9 4 -9 -5 0 -2 -7 5 -16 8 -9 12 -28 11 -42 -3 -15 0 -22 7 -18
10 7 15 -5 9 -20 -2 -3 5 -10 15 -16 14 -7 16 -13 6 -24 -11 -13 -3 -19 23
-15 4 0 5 -6 2 -14 -6 -16 20 -48 30 -38 3 4 6 1 6 -6 0 -13 50 -66 51 -54 0
4 4 -2 9 -14 5 -12 24 -30 42 -39 18 -9 36 -22 40 -28 5 -7 8 -7 8 3 0 11 3
11 15 1 19 -16 96 -21 112 -8 9 7 15 5 19 -6 3 -9 9 -14 13 -12 11 7 27 -18
26 -44 0 -14 5 -40 12 -59 7 -18 11 -36 8 -40 -5 -10 31 -41 39 -34 3 4 6 1 6
-6 0 -9 9 -12 25 -9 15 3 22 1 18 -5 -4 -7 1 -8 12 -3 11 4 26 0 38 -11 15
-13 18 -14 12 -3 -4 8 2 6 14 -6 12 -11 23 -31 24 -45 1 -13 8 -34 15 -46 7
-13 10 -23 6 -23 -3 0 8 -13 25 -29 21 -19 27 -31 19 -34 -7 -3 -3 -6 10 -6
12 -1 22 -6 22 -12 0 -14 24 -34 67 -55 18 -9 30 -21 26 -27 -4 -6 -1 -7 7 -2
7 4 15 2 20 -4 4 -7 22 -13 41 -14 19 -1 40 -8 48 -15 12 -11 15 -11 22 0 7
10 9 10 9 0 0 -9 5 -10 18 -3 11 6 24 6 32 1 9 -6 17 -5 22 3 6 9 8 9 8 -1 0
-10 5 -10 21 -1 16 8 20 8 14 -1 -6 -9 -2 -9 14 -1 11 7 21 8 21 4 0 -4 11 -8
24 -8 13 0 22 3 19 8 -5 8 -3 9 55 12 24 2 48 7 54 13 6 6 17 8 26 5 11 -5 13
-3 7 8 -7 11 -5 11 10 -1 10 -8 16 -10 12 -4 -8 14 20 27 35 17 7 -3 8 -1 4 5
-6 11 6 16 19 10 2 -2 12 7 20 19 10 14 21 20 32 16 11 -4 14 -3 9 5 -4 7 -4
12 1 12 14 0 73 57 66 64 -3 3 -2 6 4 6 6 0 13 9 16 21 4 13 10 18 17 14 9 -6
9 -2 0 15 -8 15 -8 20 -1 16 6 -4 12 -2 12 3 2 14 6 30 9 34 7 8 3 67 -4 67
-6 0 -6 4 0 10 12 12 6 80 -7 80 -5 0 -9 5 -9 11 0 5 6 7 13 3 9 -6 9 -4 -1 7
-6 7 -12 23 -12 36 0 13 -4 23 -9 23 -6 0 -8 9 -6 20 2 12 -2 23 -10 26 -8 4
-13 16 -11 27 1 12 -3 28 -11 35 -11 12 -11 17 -1 30 8 9 8 13 2 9 -12 -7 -30
53 -25 81 1 6 -3 12 -9 12 -6 0 -8 5 -5 10 3 5 2 10 -2 10 -5 0 -9 16 -10 36
-1 20 -7 40 -13 44 -9 5 -9 9 -1 14 8 5 7 15 -3 34 -7 15 -12 37 -11 50 1 12
-3 22 -8 22 -6 0 -7 3 -4 7 4 3 0 14 -9 24 -12 14 -13 22 -4 38 8 16 8 21 -1
21 -9 0 -9 3 0 14 9 11 9 17 -2 27 -8 9 -13 36 -12 72 0 31 -3 57 -8 57 -4 0
-5 5 -2 10 3 6 2 10 -4 10 -5 0 -8 9 -6 20 2 11 -1 20 -7 20 -7 0 -6 6 2 15 9
11 10 18 1 28 -6 8 -8 17 -5 20 9 9 14 57 5 57 -11 0 -13 42 -14 235 0 117 -4
183 -11 187 -8 6 -8 8 0 8 13 0 14 98 1 117 -4 6 -3 14 2 18 6 3 9 23 7 45 -2
22 3 48 10 58 7 9 13 22 14 27 0 6 -5 3 -11 -5 -9 -12 -9 -11 -4 5 11 28 13
118 3 131 -4 6 0 19 10 30 20 23 25 134 6 146 -7 5 -11 21 -10 38 1 19 -3 30
-11 30 -7 0 -10 6 -6 17 4 11 3 14 -5 9 -7 -4 -12 -2 -12 5 0 13 -78 89 -92
89 -6 0 -8 7 -5 14 4 10 1 13 -7 10 -7 -3 -21 2 -30 11 -9 9 -20 13 -26 10 -6
-3 -13 1 -16 9 -3 9 -10 13 -15 10 -5 -3 -9 3 -9 13 0 15 -2 16 -10 3 -5 -8
-10 -10 -10 -4 0 6 -12 11 -28 10 -17 -1 -26 4 -25 12 2 6 -1 12 -5 12 -4 0
-8 13 -7 29 0 16 3 27 6 25 10 -6 16 17 14 53 -1 18 2 30 6 27 8 -5 14 27 10
50 -1 4 5 19 14 32 11 17 12 24 3 24 -9 0 -9 3 -1 11 6 6 9 18 6 25 -3 8 0 14
7 14 7 0 10 7 7 15 -4 8 -2 17 3 20 5 3 7 12 4 19 -3 7 1 20 8 27 18 19 21 39
6 39 -6 0 -4 6 6 13 10 7 16 22 14 33 -2 11 2 18 10 16 8 -1 11 6 8 22 -2 14
1 30 8 35 7 6 12 22 10 36 -1 14 2 23 7 19 8 -4 14 17 10 39 0 4 4 7 9 7 6 0
10 11 10 25 0 14 5 25 11 25 5 0 7 5 4 10 -3 6 -1 10 5 10 6 0 8 5 5 10 -3 6
0 13 8 16 9 3 13 13 9 26 -4 16 -2 19 8 13 10 -6 12 -4 7 8 -3 9 1 18 10 21 8
4 13 13 10 20 -3 8 1 20 8 26 8 7 12 16 9 21 -3 5 2 16 11 25 9 9 14 22 11 29
-3 8 2 16 10 19 9 3 13 10 9 15 -3 6 3 14 12 20 10 5 16 12 14 16 -5 9 20 65
30 65 5 0 5 7 2 17 -4 11 -3 14 5 9 8 -5 12 0 12 14 0 12 5 18 10 15 6 -3 10
3 10 14 0 12 7 21 15 21 9 0 12 6 8 17 -5 12 -3 14 7 8 10 -6 12 -4 7 8 -3 10
-2 17 4 17 6 0 7 5 3 12 -4 7 -3 8 4 4 8 -4 16 3 22 18 5 14 15 26 21 26 6 0
9 9 6 20 -5 18 3 25 25 21 4 0 5 6 2 14 -4 8 -1 15 5 15 6 0 10 3 9 8 -1 4 10
20 26 37 27 29 84 43 96 24 3 -4 44 -8 90 -8 47 0 95 -1 108 -1 14 0 26 8 32
23 5 12 9 18 10 12 0 -5 6 1 13 15 8 14 19 24 25 22 7 -1 11 4 10 10 -2 7 4
11 12 10 8 -2 12 -1 8 3 -8 8 144 165 155 158 4 -2 7 1 7 7 0 6 3 9 8 7 9 -6
33 19 25 27 -4 3 -1 6 6 6 7 0 29 17 49 38 20 21 55 51 77 67 22 16 43 34 47
39 5 7 8 7 8 1 0 -5 7 -1 15 9 8 11 15 16 15 11 0 -5 7 1 16 14 13 18 18 20
25 10 7 -11 9 -10 9 4 0 9 7 17 16 17 8 0 13 4 9 9 -3 5 -1 12 5 16 5 3 10 1
10 -4 0 -6 12 -1 26 12 14 12 29 22 32 22 15 0 32 17 27 26 -4 5 5 9 20 9 14
0 28 7 31 15 4 8 12 15 20 15 8 0 14 6 14 13 0 8 4 7 10 -3 6 -10 10 -11 10
-3 0 7 11 15 25 19 14 3 23 9 21 13 -3 4 5 8 17 8 11 1 25 9 29 18 5 8 13 13
19 10 5 -4 9 -2 9 4 0 6 8 8 18 4 9 -3 14 -2 9 2 -9 10 51 37 64 29 5 -3 9 1
9 9 0 8 7 18 16 21 10 4 13 2 9 -7 -4 -6 2 -1 13 12 14 18 21 20 27 11 6 -10
10 -9 17 4 8 14 12 15 26 4 11 -9 14 -9 9 -1 -5 8 1 15 18 19 13 3 23 9 21 13
-3 4 3 8 12 9 42 5 56 10 60 20 2 7 13 10 28 6 15 -4 24 -2 24 5 0 6 14 11 30
11 17 0 30 5 30 10 0 6 11 10 24 10 14 0 28 5 31 11 4 6 13 8 21 5 7 -3 16 -1
19 5 4 5 11 7 16 4 5 -4 9 -1 9 6 0 6 8 9 20 6 10 -3 21 0 22 5 2 6 18 11 36
13 18 1 38 7 45 13 6 5 22 8 35 6 15 -3 21 0 16 7 -4 7 -1 10 7 7 8 -3 22 -1
32 4 12 6 17 5 17 -4 0 -10 2 -10 9 1 6 9 11 10 15 2 5 -7 18 -4 41 9 39 22
45 23 62 9 6 -6 14 -6 17 -1 3 5 19 8 35 7 17 -1 28 2 25 7 -3 4 -2 8 3 9 4 0
18 2 31 3 12 2 22 -2 22 -7 0 -5 7 -4 16 4 9 7 18 9 22 3 9 -12 29 -10 67 5
52 20 55 21 55 8 0 -8 4 -6 10 3 5 8 10 11 10 5 0 -5 11 -10 25 -10 14 0 25 2
25 5 0 3 15 4 32 3 18 -1 33 -2 33 -3 0 -1 12 -3 28 -4 15 -1 27 1 27 4 0 3 9
6 20 6 11 0 20 -4 20 -9 0 -5 7 -4 15 3 8 7 15 9 15 4 0 -5 11 -9 25 -9 14 0
25 2 25 5 0 3 15 4 32 3 18 -1 33 -2 33 -3 0 -1 12 -3 28 -4 15 -1 27 2 27 6
0 12 24 5 37 -12 11 -13 12 -13 13 0 0 12 4 10 15 -4 8 -11 15 -16 15 -10 0 5
11 9 25 9 14 0 25 -4 25 -9 0 -6 5 -5 11 1 8 8 20 8 35 3 17 -7 24 -6 24 3 0
8 3 8 9 -1 5 -8 20 -15 35 -15 14 -1 26 -6 26 -12 0 -6 3 -6 8 0 11 16 45 13
60 -5 12 -13 12 -13 6 0 -6 12 -5 13 7 4 8 -7 33 -11 56 -10 25 1 39 -2 36 -8
-4 -5 1 -7 10 -3 10 3 17 2 17 -4 0 -5 11 -7 25 -5 14 3 25 0 25 -5 0 -5 7 -9
16 -9 9 0 12 -5 8 -12 -6 -10 -4 -10 7 -2 16 13 51 15 43 2 -3 -4 6 -8 20 -8
14 0 28 -4 31 -10 3 -5 19 -10 36 -10 16 0 29 -4 29 -10 0 -5 14 -10 30 -10
17 0 30 -4 30 -10 0 -5 11 -10 24 -10 14 0 27 -4 30 -9 4 -5 17 -8 31 -6 14 1
25 -3 25 -9 0 -6 11 -13 25 -14 14 -1 36 -9 49 -17 12 -8 26 -12 29 -8 4 3 7
1 7 -6 0 -7 4 -10 9 -7 5 4 11 1 13 -5 2 -6 16 -12 31 -12 15 -1 29 -8 32 -15
3 -7 9 -10 15 -7 6 3 13 -1 16 -10 4 -11 10 -12 18 -6 8 7 16 4 26 -9 7 -10
17 -17 21 -14 4 2 14 -2 22 -10 8 -8 17 -13 19 -10 3 2 11 -2 18 -11 7 -8 21
-15 31 -15 11 0 19 -5 19 -11 0 -6 7 -9 15 -5 9 3 15 0 15 -10 0 -8 5 -12 10
-9 6 3 10 1 10 -5 0 -6 5 -8 10 -5 6 3 10 1 10 -4 0 -6 4 -10 9 -9 10 3 45
-18 73 -44 10 -10 18 -13 18 -6 0 6 8 2 18 -8 9 -11 34 -28 54 -39 20 -10 36
-24 35 -29 -1 -6 6 -10 16 -8 9 2 17 -2 17 -7 0 -5 13 -18 29 -27 17 -10 27
-22 24 -27 -3 -6 -1 -7 6 -3 7 5 20 -1 30 -13 10 -11 21 -18 25 -14 3 3 6 1 6
-5 0 -7 6 -12 14 -12 8 0 17 -7 20 -16 3 -8 11 -12 16 -9 6 4 9 2 8 -3 -2 -5
18 -30 44 -55 26 -24 44 -47 41 -51 -3 -3 4 -6 16 -6 14 0 20 -4 15 -12 -4 -7
-3 -8 5 -4 12 8 41 -16 41 -33 0 -6 3 -10 8 -9 11 4 112 -99 105 -106 -4 -3 1
-6 11 -6 10 0 14 -5 11 -11 -4 -6 3 -13 15 -16 16 -4 18 -8 8 -14 -9 -6 -6 -9
11 -9 14 0 21 -5 18 -12 -3 -10 15 -13 73 -12 43 1 84 5 91 9 9 6 11 3 6 -11
-7 -18 -6 -18 6 -2 8 10 17 15 20 11 4 -3 17 2 29 13 12 10 18 14 14 7 -5 -9
2 -11 24 -8 17 2 28 0 25 -6 -4 -5 -1 -9 5 -9 6 0 8 -5 4 -12 -4 -6 -3 -8 3
-5 5 3 17 -3 26 -14 9 -10 13 -19 9 -19 -4 -1 2 -9 13 -18 11 -10 21 -24 23
-32 2 -8 8 -16 13 -18 5 -2 9 -12 9 -21 0 -18 44 -74 52 -66 2 2 5 -6 5 -18 1
-12 11 -28 23 -36 11 -7 20 -20 20 -27 0 -7 9 -28 19 -46 11 -17 17 -36 14
-41 -3 -6 -1 -7 6 -3 6 4 13 1 15 -6 2 -7 7 -22 11 -33 3 -11 7 -22 7 -25 1
-3 8 -11 17 -18 9 -8 10 -10 3 -7 -11 6 -11 3 0 -14 7 -12 15 -21 18 -21 5 0
10 -22 13 -62 1 -9 6 -16 12 -15 5 1 9 -6 9 -15 -1 -10 2 -18 7 -18 5 0 9 -7
9 -15 0 -8 5 -15 11 -15 5 0 7 -4 4 -10 -3 -5 -1 -10 5 -10 7 0 10 -7 6 -15
-3 -8 -2 -15 2 -15 4 0 12 -11 19 -25 8 -19 8 -23 0 -18 -7 3 -5 -2 4 -13 9
-10 14 -25 12 -31 -3 -7 0 -13 6 -13 6 0 11 -11 11 -25 0 -14 5 -25 11 -25 6
0 9 -11 7 -23 -1 -13 5 -32 15 -41 13 -13 15 -22 7 -31 -8 -9 -6 -14 6 -19 12
-4 15 -15 12 -36 -3 -17 -1 -30 4 -30 5 0 6 -4 3 -10 -3 -5 -1 -10 4 -10 6 0
10 -3 10 -7 -4 -26 2 -73 10 -69 12 8 9 -47 -4 -56 -5 -4 -1 -8 11 -8 17 0 20
-6 19 -32 -2 -19 4 -41 14 -52 13 -16 13 -18 1 -11 -13 8 -13 7 -1 -8 7 -9 10
-17 7 -17 -4 0 0 -8 10 -17 11 -11 13 -18 5 -21 -7 -2 -8 -9 -2 -20 6 -11 5
-23 -2 -33 -13 -18 -16 -19 -53 -19 -16 0 -23 -4 -18 -11 4 -8 -1 -9 -16 -4
-15 5 -20 4 -16 -4 6 -10 -6 -16 -27 -12 -4 1 -10 -6 -13 -14 -3 -8 -10 -12
-15 -9 -5 3 -9 0 -9 -6 0 -7 -7 -10 -15 -6 -8 3 -14 2 -12 -2 1 -4 -22 -31
-50 -59 -29 -29 -53 -60 -53 -68 0 -8 -5 -15 -11 -15 -6 0 -8 -7 -5 -16 3 -8
2 -13 -3 -10 -13 8 -18 -13 -15 -66 1 -31 -2 -46 -9 -41 -6 4 -7 1 -1 -8 8
-13 10 -22 13 -70 0 -11 5 -18 9 -15 10 6 7 -149 -4 -165 -4 -8 -3 -10 4 -5 8
4 12 0 12 -12 0 -10 3 -22 7 -26 11 -10 11 -46 0 -46 -5 0 -3 -7 4 -17 8 -9
12 -19 11 -22 -20 -34 -23 -43 -12 -36 9 6 9 2 1 -14 -7 -11 -8 -21 -3 -21 10
0 9 -56 -1 -66 -3 -4 -2 -14 2 -23 12 -21 11 -33 -1 -48 -6 -8 -7 -13 -1 -13
11 0 11 -39 0 -57 -5 -7 -4 -13 1 -13 10 0 9 -50 -1 -66 -3 -6 -3 -14 0 -18
10 -9 10 -95 1 -90 -5 3 -9 0 -9 -5 -3 -20 -4 -26 -11 -36 -4 -6 -3 -17 3 -25
11 -19 12 -33 1 -26 -11 6 -9 -25 2 -42 4 -7 3 -19 -4 -26 -8 -11 -8 -15 1
-18 10 -3 9 -10 -3 -27 -9 -13 -14 -30 -11 -37 3 -8 -1 -14 -8 -14 -9 0 -10
-3 -4 -8 14 -9 14 -102 0 -102 -6 0 -10 -21 -9 -55 1 -30 -3 -52 -7 -49 -9 5
-13 -23 -9 -60 1 -13 -2 -16 -12 -10 -10 6 -9 3 1 -10 11 -13 12 -19 3 -25 -6
-3 -12 -24 -14 -45 -1 -21 -7 -40 -13 -43 -6 -2 -9 -17 -7 -33 2 -17 0 -30 -5
-30 -5 0 -10 -10 -11 -23 -5 -46 -9 -59 -23 -68 -10 -6 -10 -9 -1 -9 10 0 10
-4 0 -19 -7 -11 -16 -17 -21 -14 -5 3 -4 -4 2 -16 8 -15 9 -21 1 -21 -6 0 -8
-5 -5 -10 3 -6 1 -10 -4 -10 -15 0 -14 -27 2 -33 10 -4 10 -6 0 -6 -7 -1 -13
-8 -13 -16 0 -8 -5 -15 -11 -15 -6 0 -9 -6 -6 -12 2 -7 0 -22 -6 -32 -5 -11
-10 -40 -11 -65 -1 -25 -5 -52 -10 -60 -6 -10 -5 -12 3 -7 8 5 11 -4 10 -31
-2 -56 0 -63 16 -63 8 0 15 -5 15 -11 0 -5 -6 -7 -12 -3 -7 4 -4 -2 6 -14 11
-12 15 -22 11 -22 -4 0 2 -9 15 -20 13 -11 27 -20 32 -20 4 0 7 -4 5 -9 -3
-14 56 -62 71 -56 6 2 12 -3 12 -11 0 -11 6 -14 16 -10 8 3 12 2 9 -4 -3 -6
-3 -10 2 -11 29 -3 47 -9 54 -21 4 -7 11 -9 15 -6 3 4 18 1 33 -6 14 -7 37
-11 51 -10 14 1 36 -5 49 -13 18 -11 21 -12 15 -2 -6 12 -5 12 8 1 13 -10 17
-10 21 0 4 10 6 10 6 -1 1 -11 4 -11 16 -1 12 10 15 10 15 0 0 -10 3 -10 15 0
8 7 15 8 15 3 0 -13 43 -11 52 2 5 6 8 5 8 -3 0 -9 5 -10 19 -2 14 7 22 7 27
-1 5 -8 8 -8 13 0 4 6 22 13 41 16 18 2 36 9 40 16 4 6 13 8 19 5 6 -4 14 0
17 8 3 9 10 13 15 10 5 -3 9 -1 9 5 0 6 11 13 24 17 16 4 23 11 19 20 -3 8 0
14 7 14 7 0 23 11 35 24 13 14 26 22 31 18 4 -4 4 -2 1 4 -4 7 0 17 7 24 8 6
18 24 21 40 3 16 14 31 23 35 14 5 14 7 2 16 -13 8 -11 13 9 29 13 11 30 20
38 20 8 0 11 5 7 11 -4 8 1 9 16 4 17 -6 21 -4 14 6 -6 11 -5 12 7 2 11 -9 18
-8 31 1 10 7 14 17 10 22 -4 4 0 3 9 -4 19 -14 30 -6 22 16 -4 10 -2 13 5 8 7
-4 12 -1 13 6 3 44 7 61 18 68 14 8 14 16 -1 44 -7 13 -7 16 2 11 7 -4 13 1
16 12 4 14 14 18 42 17 20 0 43 4 51 10 11 8 13 8 7 -1 -4 -8 -1 -13 8 -13 9
0 16 5 16 12 0 6 3 8 7 5 3 -4 12 -2 20 4 9 9 13 8 13 0 0 -7 9 -6 25 5 14 9
25 23 25 31 0 8 5 11 10 8 6 -4 8 -12 4 -18 -3 -7 2 -3 11 8 9 11 26 31 38 45
12 14 21 28 19 33 -1 4 2 7 7 7 5 0 13 9 16 20 4 11 11 18 16 15 5 -4 9 1 9
10 0 9 5 13 10 10 6 -4 10 5 10 19 0 14 3 25 8 25 19 -3 25 2 12 11 -13 8 -12
10 3 10 9 0 17 5 17 11 0 5 -5 7 -11 3 -8 -4 -7 0 1 15 6 12 15 19 20 16 5 -3
7 6 4 20 -3 17 1 27 11 31 11 5 12 11 4 25 -7 15 -7 19 3 17 8 -2 13 8 13 29
0 17 3 29 7 27 8 -5 12 11 23 79 3 20 10 37 15 37 6 0 6 10 0 25 -6 17 -6 25
1 25 6 0 7 5 4 10 -3 6 -2 10 2 10 13 0 12 204 -1 212 -8 6 -8 8 0 8 15 0 15
130 0 130 -6 0 -5 4 3 9 12 8 12 17 -1 63 -8 29 -14 63 -13 75 1 12 -2 20 -7
17 -4 -3 -8 9 -8 26 0 17 -4 29 -9 26 -5 -3 -11 1 -15 9 -3 8 -1 15 5 15 6 0
6 6 0 19 -6 10 -7 22 -3 26 4 5 2 5 -4 2 -6 -4 -21 15 -35 45 -25 54 -92 128
-116 128 -8 0 -12 4 -9 8 2 4 -9 9 -26 10 -23 2 -31 -2 -35 -18 -3 -11 -9 -20
-14 -20 -5 0 -6 -7 -3 -15 4 -8 2 -15 -4 -15 -5 0 -13 -7 -16 -16 -6 -15 -4
-15 10 -3 16 13 16 12 4 -8 -8 -12 -18 -19 -22 -17 -4 3 -8 -8 -8 -25 0 -18
-7 -34 -17 -40 -12 -7 -14 -10 -4 -11 11 0 11 -3 1 -15 -7 -8 -9 -15 -6 -15 4
0 1 -6 -6 -14 -20 -22 -28 -9 -28 45 0 35 3 48 12 43 7 -5 8 -3 2 7 -11 18
-14 119 -4 119 8 0 9 6 10 62 1 12 6 29 13 37 9 12 9 13 0 8 -9 -6 -12 8 -10
53 1 42 -2 60 -10 60 -7 0 -13 8 -13 17 0 9 -3 14 -6 10 -9 -8 -33 16 -27 27
3 5 0 7 -8 4 -7 -2 -13 -18 -14 -34 0 -16 -5 -32 -11 -36 -6 -4 -9 -19 -6 -33
3 -19 0 -25 -14 -25 -16 0 -17 -2 -4 -10 10 -7 12 -12 4 -17 -6 -5 -14 -18
-18 -31 -4 -12 -12 -20 -17 -16 -5 3 -7 10 -3 15 3 5 0 8 -8 7 -20 -4 -19 70
1 82 11 6 12 9 3 10 -8 0 -10 5 -5 13 11 18 12 37 2 37 -6 0 -7 6 -2 13 11 18
10 61 -2 69 -6 5 -5 8 4 8 11 0 11 3 0 17 -8 10 -9 14 -2 10 7 -5 6 4 -3 23
-9 16 -12 35 -8 41 3 6 1 15 -5 19 -7 4 -13 16 -14 28 0 11 -5 18 -9 16 -4 -3
-8 2 -8 11 0 9 -11 27 -25 41 -14 14 -23 30 -20 35 4 5 -1 9 -9 9 -8 0 -20 8
-25 18 -6 9 -11 13 -11 9 0 -4 -11 3 -24 15 -13 13 -22 26 -20 29 2 3 -3 6
-11 7 -8 1 -22 3 -31 4 -9 1 -21 9 -27 19 -8 13 -16 15 -34 8 -13 -5 -22 -6
-20 -1 3 4 0 12 -7 17 -14 13 -46 15 -46 4 0 -6 -8 -6 -18 0 -10 6 -27 8 -38
5 -27 -6 -44 8 -50 41 -7 37 -13 47 -26 39 -7 -5 -8 -2 -2 7 11 19 11 50 0 74
-6 11 -10 33 -11 48 0 16 -5 31 -10 35 -6 4 -11 23 -13 42 -1 19 -6 37 -10 40
-4 3 -7 17 -7 32 1 15 -3 24 -7 22 -4 -3 -8 -1 -8 5 0 5 -3 18 -6 28 -5 15 -4
15 5 3 6 -8 11 -10 11 -4 0 6 -7 17 -15 24 -8 7 -15 25 -15 41 0 20 -5 29 -16
29 -13 0 -14 3 -5 13 8 10 7 17 -2 27 -10 10 -9 12 3 6 13 -6 13 -6 0 6 -9 7
-15 20 -15 28 0 8 -3 18 -8 21 -5 4 -10 18 -10 33 -1 14 -7 28 -13 30 -6 2
-10 18 -9 35 1 16 -2 28 -7 25 -4 -3 -9 0 -9 5 -1 6 -2 17 -3 24 -1 6 -8 11
-15 9 -9 -2 -11 3 -7 13 7 19 -40 125 -57 125 -8 0 -7 4 3 10 12 8 12 10 -3
16 -10 4 -16 12 -14 18 4 10 -16 37 -25 33 -2 -1 0 2 4 7 4 5 0 15 -10 22 -10
8 -12 13 -4 14 7 0 4 8 -8 20 -11 11 -20 27 -20 35 0 8 -5 15 -11 15 -5 0 -8
4 -5 9 3 5 -1 14 -9 21 -8 7 -12 16 -9 21 5 9 -4 22 -41 61 -12 13 -14 18 -5
14 12 -6 11 -4 -1 6 -16 13 -19 19 -19 39 0 5 -5 7 -12 3 -8 -5 -9 -2 -5 10 4
10 1 19 -8 22 -8 4 -15 13 -15 21 0 9 -9 23 -19 32 -11 10 -21 24 -23 31 -4
18 -21 39 -28 35 -3 -2 -7 5 -7 16 -1 10 3 19 8 19 6 0 7 5 4 10 -3 6 -2 10 4
10 5 0 17 7 25 16 12 12 16 12 16 2 1 -10 4 -9 13 2 7 8 21 22 31 30 18 13 19
13 11 0 -6 -12 -6 -13 6 -2 9 8 10 15 4 20 -6 4 -11 14 -13 22 -2 8 -10 22
-18 31 -8 9 -11 19 -7 22 3 4 1 7 -6 7 -16 0 -41 25 -41 40 0 6 -23 33 -50 60
-28 27 -50 53 -50 58 0 5 -9 12 -20 15 -11 3 -20 10 -20 17 0 6 5 8 12 4 7 -4
8 -3 4 4 -4 7 -14 12 -22 12 -8 0 -13 4 -12 9 3 10 -40 51 -54 51 -4 0 -7 4
-6 8 2 4 -9 20 -24 34 -15 14 -25 28 -21 32 4 4 -1 4 -12 0 -11 -4 -17 -4 -14
0 8 8 -37 56 -52 56 -6 0 -7 5 -3 12 5 8 2 9 -9 5 -11 -4 -17 -1 -17 9 0 8 -4
13 -9 10 -5 -3 -17 5 -27 19 -10 13 -21 22 -25 19 -4 -2 -10 7 -13 21 -4 14
-10 24 -14 23 -16 -3 -42 15 -35 25 3 6 1 7 -5 3 -13 -8 -54 29 -44 40 4 4 1
4 -6 0 -14 -9 -44 18 -34 30 4 5 -2 2 -13 -6 -11 -8 -17 -11 -13 -6 8 10 -15
36 -31 36 -6 0 -11 6 -11 14 0 8 -5 18 -12 22 -7 4 -8 3 -4 -4 4 -7 2 -12 -3
-12 -6 0 -11 7 -11 15 0 8 -7 15 -16 15 -8 0 -12 5 -9 10 6 9 -8 14 -27 11 -5
0 -8 4 -8 10 0 5 -4 8 -9 4 -5 -3 -12 4 -16 15 -4 11 -11 18 -16 14 -5 -3 -23
6 -40 20 -17 14 -35 26 -40 26 -6 0 -7 5 -4 10 4 6 3 10 -2 9 -22 -4 -34 2
-27 14 5 8 2 8 -9 -2 -15 -12 -17 -11 -17 3 0 10 -4 14 -10 11 -5 -3 -10 -1
-10 4 0 6 -7 11 -15 11 -8 0 -15 5 -15 10 0 6 -6 10 -14 10 -7 0 -19 7 -26 15
-7 8 -16 13 -20 10 -4 -3 -11 2 -14 10 -3 8 -9 14 -13 13 -14 -4 -53 13 -53
23 0 5 -7 9 -15 9 -8 0 -15 5 -15 11 0 5 -4 8 -9 5 -5 -4 -12 0 -14 6 -4 10
-6 10 -6 1 -1 -7 -8 -10 -16 -7 -8 4 -12 10 -9 16 3 5 0 8 -7 7 -23 -5 -60 12
-53 23 4 6 3 8 -3 5 -11 -7 -63 14 -63 26 0 4 -9 7 -20 7 -11 0 -20 5 -20 11
0 5 -4 8 -9 4 -5 -3 -16 1 -24 9 -8 8 -17 12 -21 9 -3 -3 -16 2 -28 13 -13 12
-18 13 -13 4 7 -12 6 -13 -6 -4 -13 11 -79 35 -107 40 -8 1 -21 9 -30 18 -12
10 -22 12 -33 5 -12 -6 -19 -4 -23 7 -4 10 -12 14 -23 10 -9 -4 -20 -2 -23 5
-4 6 -19 12 -34 12 -14 1 -26 5 -26 8 0 13 -32 19 -49 10 -13 -7 -22 -5 -35
10 -9 11 -21 17 -26 14 -5 -3 -20 1 -33 10 -13 8 -27 12 -30 8 -4 -3 -17 -2
-30 4 -44 20 -94 33 -130 33 -24 0 -40 6 -46 18 -7 10 -14 13 -18 7 -5 -5 -26
-11 -47 -12 -26 -1 -34 2 -25 8 16 10 9 11 -79 13 -29 1 -56 7 -60 13 -5 7
-39 11 -95 9 -49 -1 -91 2 -94 6 -2 5 -9 6 -14 3 -5 -4 -9 -3 -9 2 0 4 -45 8
-99 8 -66 1 -97 -3 -93 -10 3 -5 -2 -4 -11 4 -13 10 -20 11 -30 2 -8 -6 -17
-8 -21 -4 -11 11 -186 10 -179 -1 4 -5 1 -6 -8 -1 -22 14 -49 13 -58 -3z"/>
<path d="M4925 7451 c-3 -6 -15 -8 -26 -6 -12 2 -31 -2 -42 -9 -13 -8 -43 -12
-69 -11 -27 2 -51 -1 -54 -6 -3 -6 -11 -6 -19 1 -11 9 -19 8 -34 -2 -12 -9
-38 -13 -64 -11 -33 2 -46 -1 -51 -12 -4 -11 -11 -13 -30 -5 -17 6 -26 5 -30
-3 -3 -9 -5 -8 -5 1 -1 10 -5 10 -17 -2 -8 -9 -29 -17 -45 -17 -37 -2 -42 -3
-56 -12 -7 -5 -17 -5 -23 -2 -5 3 -10 1 -10 -6 0 -8 -4 -8 -16 1 -12 11 -15
11 -12 -1 2 -8 -5 -15 -17 -15 -11 -1 -28 -2 -38 -3 -10 -1 -16 -5 -13 -9 3
-5 -1 -9 -8 -9 -8 0 -35 -10 -61 -22 -26 -12 -49 -20 -52 -17 -3 3 -12 -1 -19
-9 -8 -8 -22 -11 -31 -8 -10 4 -14 2 -10 -4 4 -6 0 -13 -8 -17 -8 -3 -15 0
-15 7 0 7 -7 4 -14 -6 -8 -10 -17 -18 -20 -19 -20 0 -45 -12 -41 -18 3 -5 -5
-6 -17 -2 -15 4 -19 2 -13 -7 5 -9 1 -12 -11 -10 -11 2 -29 -2 -40 -9 -12 -6
-24 -8 -28 -5 -3 3 -6 -1 -6 -10 0 -9 -3 -16 -7 -16 -19 3 -33 -2 -47 -17 -9
-9 -23 -17 -31 -18 -8 -1 -23 -12 -33 -24 -15 -17 -21 -19 -32 -9 -8 8 -11 8
-7 1 8 -13 -34 -44 -58 -44 -9 0 -14 -4 -11 -9 5 -7 -6 -13 -44 -25 -3 -1 -15
-10 -28 -21 -12 -11 -25 -19 -28 -17 -3 2 -14 -7 -25 -20 -11 -13 -17 -16 -13
-8 5 10 -1 8 -17 -5 -42 -35 -59 -54 -59 -67 0 -10 -2 -10 -9 0 -6 10 -10 9
-14 -7 -3 -12 -12 -21 -22 -21 -9 0 -41 -26 -71 -57 -31 -32 -60 -57 -65 -55
-5 1 -9 -3 -9 -9 0 -5 -4 -8 -9 -5 -5 3 -12 -1 -15 -10 -3 -8 -10 -12 -16 -9
-6 4 -7 -1 -3 -11 4 -12 3 -15 -5 -10 -8 5 -12 0 -12 -12 0 -23 -23 -45 -35
-34 -5 4 -5 2 -2 -4 4 -7 0 -15 -9 -18 -8 -3 -12 -10 -9 -16 3 -5 1 -10 -5
-10 -13 0 -84 -70 -72 -71 4 0 -3 -4 -16 -10 -13 -5 -21 -13 -17 -19 3 -5 -10
-25 -30 -44 -19 -19 -35 -39 -35 -46 0 -6 -4 -8 -10 -5 -6 3 -7 -1 -4 -9 3 -9
2 -16 -4 -16 -6 0 -22 -20 -36 -45 -15 -25 -31 -45 -36 -45 -6 0 -10 -7 -10
-16 0 -9 -5 -12 -12 -8 -6 4 -8 3 -4 -4 3 -6 -1 -17 -10 -26 -8 -9 -13 -20
-10 -24 3 -4 -6 -16 -19 -26 -14 -10 -23 -22 -20 -26 3 -4 -2 -13 -10 -20 -8
-7 -12 -16 -9 -21 3 -5 1 -9 -3 -9 -5 0 -14 -9 -21 -21 -9 -13 -9 -18 -2 -14
13 8 -9 -36 -24 -46 -5 -4 -5 -12 -2 -18 4 -6 3 -11 -3 -11 -6 0 -13 -11 -17
-25 -3 -14 -11 -22 -16 -19 -6 4 -8 1 -6 -7 3 -8 -4 -25 -16 -38 -11 -13 -15
-21 -8 -17 6 4 12 3 12 -2 0 -6 -7 -13 -16 -16 -11 -4 -14 -13 -11 -27 3 -12
0 -22 -9 -26 -8 -3 -11 -9 -8 -14 3 -5 -2 -9 -10 -9 -19 0 -21 -11 -4 -28 9
-9 7 -13 -5 -18 -9 -3 -14 -10 -11 -15 3 -5 0 -9 -6 -9 -6 0 -8 -5 -5 -10 3
-6 0 -13 -8 -16 -9 -3 -12 -14 -9 -31 3 -17 1 -24 -6 -19 -7 4 -10 -3 -7 -24
2 -20 0 -28 -7 -24 -7 5 -9 0 -6 -14 4 -13 2 -20 -4 -16 -5 3 -9 -2 -7 -12 1
-11 -3 -31 -9 -46 -6 -15 -9 -35 -6 -43 4 -8 -1 -17 -9 -21 -10 -4 -14 -14
-11 -31 3 -14 -1 -32 -8 -41 -11 -13 -11 -15 2 -8 13 7 13 6 0 -6 -9 -7 -14
-28 -14 -48 1 -19 -5 -48 -13 -64 -10 -20 -11 -26 -2 -21 8 6 10 4 4 -6 -5 -7
-8 -26 -7 -41 1 -15 -3 -28 -8 -28 -6 0 -8 -4 -5 -10 3 -5 2 -10 -4 -10 -6 0
-6 -11 -1 -30 5 -16 6 -30 2 -30 -10 0 -7 -64 3 -80 5 -8 4 -11 -3 -6 -6 3
-13 2 -17 -4 -3 -5 0 -10 7 -10 11 0 11 -2 0 -8 -9 -7 -12 -40 -11 -130 0 -66
-2 -125 -5 -131 -4 -5 -2 -12 3 -16 7 -3 7 -15 1 -30 -5 -13 -6 -27 -1 -29 5
-3 6 -17 3 -31 -2 -15 0 -36 6 -48 14 -28 21 -97 10 -97 -5 0 -4 -9 2 -20 8
-15 8 -20 -2 -20 -9 -1 -8 -4 3 -13 10 -8 16 -30 18 -67 1 -30 5 -57 9 -60 4
-3 8 -23 9 -44 1 -21 7 -43 15 -47 7 -5 9 -9 4 -9 -5 0 -2 -8 5 -17 12 -14 12
-16 0 -8 -11 6 -13 3 -7 -16 4 -13 8 -30 8 -36 1 -7 6 -13 11 -13 5 0 4 -7 -3
-15 -10 -12 -10 -15 0 -15 7 0 10 -8 7 -20 -3 -11 0 -18 6 -17 6 1 11 -11 12
-28 2 -16 4 -32 5 -35 1 -3 2 -8 1 -12 0 -5 4 -8 11 -8 6 0 8 -3 5 -6 -3 -4
-1 -16 5 -28 12 -20 13 -25 16 -54 1 -7 7 -10 13 -6 8 5 9 2 1 -12 -8 -14 -6
-21 6 -32 10 -8 11 -10 3 -6 -9 5 -6 -4 7 -23 12 -17 19 -33 15 -37 -3 -3 -1
-6 5 -6 7 0 12 -7 12 -16 0 -8 4 -13 8 -10 4 2 9 -4 10 -15 4 -42 6 -48 14
-43 4 3 8 -6 8 -20 0 -14 5 -26 11 -26 5 0 7 -5 4 -10 -3 -6 -2 -10 4 -10 6 0
7 -7 4 -17 -4 -11 -3 -14 5 -9 7 4 12 1 12 -9 0 -9 5 -13 10 -10 6 3 10 -4 10
-17 0 -13 9 -34 20 -48 11 -14 20 -31 20 -37 0 -7 4 -13 9 -13 6 0 8 -9 6 -20
-2 -11 1 -20 7 -20 15 0 54 -52 50 -67 -2 -7 4 -13 13 -13 8 0 15 -6 15 -13 0
-7 9 -23 20 -34 11 -12 21 -27 22 -34 4 -19 22 -38 31 -32 7 4 11 -12 8 -30
-2 -12 26 -37 33 -30 3 4 6 1 6 -6 0 -7 11 -22 25 -33 14 -11 23 -24 20 -29
-4 -5 -1 -9 4 -9 6 0 11 -5 11 -11 0 -15 26 -39 34 -32 3 4 6 -1 6 -10 0 -10
8 -17 17 -17 9 0 14 -3 10 -6 -8 -9 25 -44 36 -37 5 3 6 -4 2 -17 -5 -15 -4
-20 4 -16 6 4 11 0 11 -10 0 -14 2 -15 18 -3 9 7 14 10 10 5 -13 -15 11 -46
30 -39 9 3 14 3 10 -1 -8 -9 29 -49 55 -59 9 -3 17 -13 17 -22 0 -8 7 -15 16
-15 8 0 13 -4 9 -9 -3 -5 4 -12 15 -16 11 -3 20 -11 20 -16 0 -6 7 -17 15 -25
10 -11 15 -12 15 -3 0 6 11 1 23 -13 13 -14 33 -29 45 -32 11 -4 23 -13 26
-21 3 -8 13 -15 21 -15 10 0 13 -5 9 -12 -4 -7 -3 -8 4 -4 6 4 30 -11 53 -34
23 -23 48 -39 55 -36 7 3 15 -6 18 -20 4 -13 12 -23 19 -21 6 1 11 -4 10 -10
-2 -7 3 -12 9 -10 7 1 14 -8 16 -21 2 -13 8 -20 14 -16 7 5 8 2 4 -5 -5 -7 0
-18 10 -26 13 -9 14 -14 6 -15 -10 0 -9 -4 2 -16 9 -8 14 -20 11 -25 -4 -5 -1
-9 5 -9 6 0 8 -5 5 -10 -4 -6 0 -21 8 -34 9 -14 12 -28 7 -36 -5 -8 -5 -21 0
-30 6 -11 5 -21 -2 -28 -9 -9 -9 -12 1 -12 9 0 7 -10 -8 -35 -13 -22 -16 -37
-9 -41 7 -4 6 -9 -3 -15 -11 -7 -11 -9 -1 -9 10 0 10 -5 2 -20 -6 -11 -7 -20
-1 -20 5 0 8 -8 7 -17 0 -11 5 -17 13 -15 12 3 12 0 1 -12 -9 -12 -9 -16 -1
-16 7 0 9 -4 6 -10 -3 -5 -1 -10 6 -10 7 0 9 -3 6 -6 -3 -4 -2 -15 3 -24 12
-22 67 -43 75 -29 4 5 10 7 15 4 12 -7 61 35 54 47 -3 4 0 8 6 8 7 0 9 7 6 16
-3 8 -2 12 4 9 6 -4 10 7 10 24 0 17 4 31 9 31 5 0 9 24 9 52 1 29 6 54 11 56
6 2 11 12 11 23 0 11 11 24 25 31 13 6 22 15 19 20 -3 5 -2 8 3 7 4 -1 16 1
25 5 9 4 42 6 72 4 35 -3 56 0 56 6 0 6 5 4 10 -4 9 -13 10 -13 10 0 1 12 3
12 14 -3 7 -9 25 -17 39 -17 14 0 28 -6 30 -12 4 -10 6 -9 6 1 1 10 7 7 20 -8
12 -14 25 -20 33 -15 7 4 10 4 7 0 -4 -4 15 -29 43 -56 32 -31 44 -50 36 -53
-10 -4 -10 -6 0 -6 6 -1 12 -7 12 -15 0 -8 7 -16 15 -20 8 -3 12 -12 9 -21 -3
-8 -1 -15 5 -15 6 0 11 -11 11 -25 0 -14 4 -25 8 -25 5 0 10 -26 11 -57 1 -31
4 -59 6 -62 5 -9 -22 -30 -30 -23 -3 4 -2 -5 3 -18 7 -18 6 -28 -4 -37 -7 -7
-11 -21 -9 -32 2 -11 -2 -22 -9 -24 -8 -3 -13 -16 -12 -29 1 -13 -4 -29 -11
-36 -9 -9 -10 -19 -3 -31 5 -10 6 -21 2 -25 -11 -11 -9 -80 2 -95 8 -11 8 -13
-1 -8 -8 5 -11 0 -10 -13 1 -11 5 -20 9 -20 4 0 8 -7 8 -16 0 -20 24 -44 44
-44 9 0 16 -7 16 -16 0 -8 5 -12 10 -9 6 4 17 1 25 -5 19 -16 75 -19 89 -5 6
6 21 11 34 10 12 -1 22 2 22 6 0 4 15 16 33 28 17 11 26 21 18 21 -11 0 -11 3
-1 15 16 19 20 122 7 149 -5 10 -11 32 -14 49 -3 17 -11 37 -19 44 -8 8 -12
19 -9 24 4 5 1 9 -5 9 -6 0 -9 4 -5 9 3 5 -1 16 -9 24 -11 10 -12 17 -4 25 8
8 7 13 -4 17 -10 4 -15 16 -13 31 1 13 -2 24 -8 24 -5 0 -4 6 3 14 9 12 8 18
-8 32 -18 15 -18 18 -4 48 20 37 23 56 12 56 -5 0 -2 13 8 29 9 16 21 29 27
28 5 -1 10 5 10 13 0 16 32 34 54 31 7 -1 10 2 6 8 -3 6 0 9 8 5 8 -3 17 2 21
11 3 9 10 13 16 10 5 -3 20 -8 32 -10 12 -3 24 -8 27 -12 3 -5 17 -9 31 -9 39
-2 42 -3 35 -14 -6 -9 8 -14 28 -11 4 0 7 -8 7 -18 0 -11 9 -23 21 -26 17 -6
18 -9 8 -16 -11 -6 -10 -9 4 -15 10 -4 16 -12 13 -20 -3 -7 0 -15 7 -18 8 -3
8 -5 1 -5 -7 -1 -10 -22 -8 -62 2 -33 0 -58 -5 -55 -8 5 -27 -58 -23 -76 1 -5
-3 -8 -10 -8 -6 0 -8 -3 -5 -7 4 -3 2 -12 -4 -20 -6 -7 -8 -13 -4 -13 4 0 2
-7 -5 -15 -9 -11 -9 -15 -1 -15 7 0 9 -5 5 -11 -3 -6 -1 -15 5 -19 7 -4 14
-16 15 -26 2 -10 9 -18 15 -17 6 2 11 -2 11 -7 0 -6 9 -10 20 -10 11 0 20 -6
20 -12 0 -10 3 -9 9 1 7 11 9 11 14 0 4 -10 6 -10 6 -1 1 6 10 12 22 12 24 0
49 22 49 44 0 9 4 16 9 16 15 0 11 91 -4 96 -8 3 -11 12 -8 20 3 8 0 21 -7 29
-7 9 -10 18 -6 22 3 3 -1 17 -9 30 -20 30 -17 113 4 131 9 8 10 11 4 7 -7 -3
-13 -1 -13 4 0 6 5 11 11 11 5 0 8 4 5 9 -3 4 2 17 10 27 9 10 12 13 8 5 -5
-9 -3 -12 4 -7 7 4 12 14 12 22 0 8 4 13 9 10 5 -3 11 1 15 9 3 8 13 15 21 15
9 0 14 3 12 7 -3 5 6 8 19 8 13 0 24 -4 24 -10 0 -5 4 -5 8 2 4 6 20 13 36 16
18 2 30 10 32 20 1 9 -1 17 -6 17 -4 0 -6 12 -4 27 1 15 -2 31 -8 34 -13 8
-18 59 -6 59 4 0 -1 9 -12 20 -17 17 -18 24 -9 41 8 15 8 19 0 15 -6 -4 -11 0
-11 9 0 9 -4 13 -10 10 -7 -4 -7 3 0 20 8 20 7 27 -6 32 -8 3 -14 13 -12 23 2
9 -3 24 -11 33 -7 10 -11 17 -7 17 3 0 -1 16 -9 36 -8 20 -12 40 -9 45 3 5 -1
12 -10 15 -8 3 -12 12 -9 20 3 8 -1 14 -8 14 -12 0 -12 2 -1 9 11 6 10 10 -3
15 -13 5 -15 9 -6 20 8 10 6 17 -8 30 -10 9 -17 25 -14 35 2 10 -3 26 -13 35
-13 14 -14 20 -4 26 9 6 8 10 -5 18 -11 5 -16 16 -12 25 3 8 -1 25 -10 36 -8
12 -12 25 -9 28 3 3 1 12 -5 20 -9 10 -8 13 2 13 11 0 11 2 0 9 -8 5 -16 22
-19 38 -2 15 -8 31 -14 34 -6 4 -8 11 -4 17 3 6 0 16 -7 24 -7 7 -13 24 -14
37 -1 13 -7 27 -14 31 -8 5 -8 9 0 14 7 5 7 12 1 24 -6 9 -14 30 -20 45 -6 17
-15 25 -21 21 -8 -4 -8 0 0 15 9 16 9 21 0 21 -7 0 -9 3 -6 7 4 3 2 12 -5 20
-6 7 -8 16 -5 20 4 3 1 15 -5 27 -7 11 -13 23 -13 26 -1 3 -7 22 -14 42 -7 21
-10 42 -6 48 3 5 2 10 -3 10 -15 0 -21 37 -8 51 8 9 8 10 -1 5 -7 -4 -13 -3
-13 3 0 5 6 16 13 23 6 7 13 20 15 28 5 23 25 39 52 42 14 2 28 8 32 13 11 15
51 13 71 -3 14 -13 17 -13 17 -1 0 12 2 12 9 -1 6 -8 7 -19 3 -25 -3 -5 2 -4
12 4 15 13 18 12 22 -7 4 -11 11 -19 18 -16 7 3 25 -7 40 -21 15 -14 21 -25
14 -25 -10 -1 -9 -4 2 -13 8 -7 22 -21 30 -31 13 -18 13 -19 0 -11 -11 6 -10
3 3 -12 9 -11 14 -23 10 -26 -3 -4 -1 -7 6 -7 7 0 9 -4 6 -10 -3 -5 -3 -10 2
-10 8 0 36 -54 39 -79 2 -8 9 -18 16 -22 7 -5 9 -9 3 -9 -5 0 1 -10 15 -21 14
-11 20 -18 13 -15 -7 4 -11 -1 -10 -13 0 -11 5 -17 9 -15 7 5 13 -26 9 -48 0
-5 5 -7 12 -5 6 1 11 -6 9 -15 -2 -10 2 -18 8 -18 5 0 10 -7 10 -16 0 -8 7
-22 15 -30 8 -9 15 -12 15 -8 0 4 7 -1 16 -12 8 -10 12 -12 8 -4 -7 12 -5 13
8 2 19 -15 68 -12 68 5 0 7 4 12 9 10 14 -3 51 44 51 65 0 11 4 17 9 13 6 -3
8 4 6 15 -2 11 0 20 6 20 5 0 9 5 9 10 0 6 9 29 19 51 11 21 14 36 8 33 -7 -3
-4 1 5 9 12 9 14 17 7 24 -8 8 -7 13 2 18 8 5 10 4 5 -3 -4 -7 -5 -12 -2 -12
7 0 34 59 38 85 2 11 10 19 17 17 9 -2 9 3 2 17 -8 14 -7 20 4 25 8 3 15 17
15 32 0 15 8 33 18 40 13 10 14 13 3 14 -11 0 -10 4 4 14 11 8 16 19 12 30 -4
9 -2 16 3 16 6 0 10 9 10 21 0 11 5 17 10 14 9 -6 14 14 11 42 -1 6 4 15 10
19 8 5 9 3 4 -6 -5 -8 -4 -11 3 -7 5 4 8 16 5 26 -3 10 0 22 6 25 6 4 11 16
11 27 0 11 4 18 9 15 7 -5 16 22 21 62 1 4 9 15 17 25 9 9 12 17 8 17 -4 0 -2
8 6 18 8 9 14 26 14 37 0 11 9 28 20 38 11 10 14 16 8 12 -7 -3 -13 -1 -13 4
0 6 5 11 11 11 5 0 7 5 4 10 -3 6 -1 10 5 10 6 0 9 4 6 9 -9 13 4 42 15 35 6
-3 8 6 5 20 -3 15 -1 24 5 21 8 -6 13 8 10 28 -1 5 8 21 19 37 11 15 20 38 20
49 0 12 5 21 11 21 5 0 7 5 4 10 -3 6 -1 10 6 10 8 0 7 5 -2 17 -10 11 -10 14
-1 9 10 -6 33 28 36 56 1 4 8 15 16 25 9 10 15 21 15 25 0 3 15 20 33 37 17
17 32 26 32 19 0 -7 5 -5 13 4 15 20 89 28 95 10 2 -7 8 -10 13 -6 5 3 9 0 9
-6 0 -6 5 -8 10 -5 6 3 10 1 10 -5 0 -6 5 -8 12 -4 6 4 8 3 5 -3 -4 -6 0 -16
9 -23 8 -7 12 -20 9 -28 -3 -8 2 -20 11 -26 14 -11 14 -14 2 -27 -7 -8 -13
-26 -11 -41 1 -15 -3 -30 -8 -33 -5 -4 -7 -11 -4 -16 4 -5 -1 -12 -10 -15 -13
-6 -14 -8 -3 -15 10 -7 9 -9 -5 -9 -11 0 -15 -5 -11 -11 3 -6 2 -14 -5 -18 -6
-4 -12 -19 -13 -34 -1 -15 -6 -27 -11 -27 -4 0 -7 -8 -6 -17 3 -27 -11 -54
-25 -46 -7 4 -6 1 2 -9 10 -12 9 -18 -3 -28 -9 -7 -13 -21 -10 -31 4 -11 -2
-26 -14 -38 -12 -12 -17 -21 -12 -21 6 0 9 -9 8 -19 0 -10 -6 -17 -12 -14 -7
2 -12 -3 -12 -11 0 -8 4 -13 9 -10 12 8 -14 -39 -27 -48 -6 -5 -4 -8 4 -8 11
0 10 -4 -4 -13 -10 -8 -15 -19 -11 -25 3 -6 -2 -15 -11 -21 -10 -6 -13 -11 -8
-11 6 0 3 -5 -5 -10 -10 -7 -11 -10 -2 -10 9 0 9 -7 -3 -30 -9 -17 -13 -36 -9
-42 4 -7 3 -8 -4 -4 -7 4 -12 2 -12 -4 0 -6 -4 -9 -9 -6 -5 4 -7 -3 -4 -14 3
-12 0 -20 -7 -20 -6 0 -10 -6 -7 -12 2 -7 -2 -25 -9 -39 -7 -15 -11 -29 -7
-32 3 -3 -2 -13 -10 -22 -9 -8 -14 -22 -11 -29 3 -8 1 -17 -5 -21 -6 -3 -11
-14 -11 -24 0 -10 -6 -31 -14 -46 -15 -28 -11 -59 6 -49 5 3 7 13 4 21 -3 8
-1 11 4 8 6 -3 10 3 10 13 0 11 7 22 15 26 8 3 15 11 15 18 0 9 -3 8 -10 -2
-7 -10 -10 -11 -10 -2 0 7 7 15 15 18 8 4 12 10 9 15 -3 5 -1 9 5 9 5 0 8 9 6
20 -2 11 3 24 13 30 9 5 14 10 9 10 -4 0 1 12 10 27 11 16 13 24 5 19 -11 -7
-11 -4 -1 12 7 12 16 19 20 16 4 -2 5 4 2 14 -2 11 3 26 12 36 9 9 13 16 10
16 -4 0 0 11 9 25 12 18 13 25 4 25 -9 1 -8 5 3 13 9 7 17 14 17 17 9 30 28
70 34 70 4 0 5 9 3 20 -2 11 0 18 6 15 5 -4 9 1 9 10 0 9 5 26 12 38 7 12 13
29 14 37 2 8 8 16 14 18 5 2 8 8 4 13 -3 5 -1 9 5 9 5 0 11 12 13 28 2 17 8
26 17 24 12 -3 12 0 1 12 -9 12 -9 16 -1 16 7 0 9 5 6 10 -3 6 -1 10 5 10 6 0
10 8 8 18 -2 9 2 16 8 15 7 -1 11 10 10 27 -1 20 3 30 12 30 7 0 11 4 7 9 -3
5 2 17 11 25 11 12 12 16 2 16 -8 1 -6 7 7 18 11 9 20 23 21 30 2 28 4 33 12
28 4 -3 7 8 6 25 -1 16 2 26 7 23 5 -3 9 2 9 10 0 9 4 16 10 16 5 0 7 6 4 13
-3 8 2 20 10 27 9 7 13 16 10 21 -3 5 1 12 10 15 8 3 13 14 11 25 -2 10 0 19
5 19 5 0 12 9 15 21 6 17 9 18 23 7 10 -7 14 -8 10 -4 -10 11 11 38 23 30 5
-3 12 2 15 10 3 9 10 16 16 16 5 0 6 -5 2 -12 -5 -7 -3 -8 7 -2 21 13 32 12
53 -5 11 -9 16 -10 12 -3 -14 23 4 12 51 -35 26 -26 41 -43 33 -38 -13 8 -13
7 0 -9 16 -20 15 -73 -2 -93 -8 -9 -7 -13 1 -13 8 0 7 -6 -3 -16 -9 -8 -14
-20 -11 -25 4 -5 2 -9 -4 -9 -6 0 -7 -7 -4 -17 5 -12 3 -14 -7 -8 -10 6 -12 4
-7 -8 3 -8 0 -21 -8 -27 -7 -6 -16 -22 -19 -36 -4 -14 -11 -22 -17 -18 -7 4
-7 -1 0 -15 8 -15 9 -21 1 -21 -6 0 -8 -4 -5 -10 3 -5 1 -10 -5 -10 -7 0 -10
-6 -7 -12 2 -7 -5 -26 -16 -42 -13 -18 -15 -26 -6 -21 10 6 10 3 -2 -11 -9
-10 -15 -27 -14 -36 2 -10 -1 -18 -6 -18 -5 0 -9 -9 -9 -20 0 -11 -4 -20 -10
-20 -5 0 -10 -8 -10 -18 0 -10 -3 -22 -7 -26 -4 -4 -9 -19 -11 -34 -2 -15 -9
-30 -15 -34 -9 -5 -6 -14 10 -29 l22 -22 -3 26 c-2 15 2 27 8 27 6 0 4 5 -4
10 -13 8 -12 10 3 10 19 0 24 20 5 21 -7 0 -3 4 10 10 18 7 22 14 17 30 -5 13
-3 19 3 15 11 -7 25 21 17 34 -3 4 2 11 11 14 8 3 12 10 9 16 -3 5 -1 10 5 10
6 0 8 5 5 10 -3 6 -2 10 4 10 6 0 8 7 5 15 -4 8 -1 15 5 15 6 0 10 3 10 8 -4
21 2 32 14 26 6 -4 9 -4 5 1 -4 4 -2 15 5 23 10 13 9 15 -3 8 -8 -4 -4 2 9 14
19 16 22 23 12 29 -8 6 -3 12 18 21 17 7 28 17 24 23 -3 5 -1 7 5 3 6 -3 13
-2 17 4 9 15 27 12 20 -2 -4 -7 -1 -6 7 3 15 18 50 21 60 5 4 -6 11 -11 17
-11 5 0 26 -15 46 -34 29 -26 34 -35 24 -42 -11 -7 -11 -9 1 -9 10 0 17 -11
18 -31 2 -18 -2 -28 -8 -24 -6 3 -7 0 -4 -10 4 -8 2 -21 -3 -28 -5 -6 -8 -22
-7 -34 0 -13 -3 -23 -8 -23 -5 0 -6 -4 -3 -10 3 -5 2 -10 -3 -10 -6 0 -13 -16
-16 -35 -4 -19 -11 -35 -17 -35 -6 0 -7 -5 -4 -10 3 -6 -1 -17 -9 -26 -9 -9
-14 -20 -11 -25 4 -5 0 -9 -8 -9 -10 0 -13 -8 -9 -25 3 -16 0 -25 -8 -25 -7 0
-10 -7 -6 -15 3 -8 1 -15 -5 -15 -6 0 -7 -5 -4 -10 4 -6 1 -17 -5 -25 -7 -8
-10 -20 -7 -27 5 -16 -18 -40 -29 -30 -4 4 -3 0 2 -8 14 -25 14 -42 -2 -36
-17 6 -18 1 -4 -25 6 -11 7 -18 3 -17 -4 2 -10 -1 -11 -7 -2 -5 -8 -15 -14
-22 -5 -7 -7 -17 -3 -23 3 -5 0 -10 -8 -10 -7 0 -14 -7 -14 -15 0 -8 5 -15 10
-15 6 0 0 -9 -13 -20 -13 -11 -18 -20 -12 -20 6 0 9 -7 6 -15 -4 -8 -10 -13
-14 -10 -12 8 -20 -21 -8 -33 6 -6 6 -12 -3 -17 -8 -6 -10 -4 -4 5 6 9 4 11
-4 5 -7 -4 -11 -16 -8 -26 3 -10 0 -22 -5 -26 -7 -4 -8 -1 -3 7 5 8 4 11 -3 7
-5 -4 -9 -18 -8 -32 2 -13 -1 -22 -5 -19 -9 5 -11 0 -13 -28 -1 -7 -4 -15 -8
-18 -6 -5 -15 -36 -17 -63 -1 -5 -5 -6 -10 -3 -4 3 -7 -6 -5 -20 1 -14 -4 -28
-11 -30 -8 -3 -11 -12 -8 -21 3 -8 0 -25 -7 -38 -17 -31 -9 -53 10 -29 9 11
10 15 3 10 -7 -4 -13 -3 -13 2 0 6 7 13 16 16 8 3 12 10 9 16 -3 6 0 13 9 16
8 3 12 12 9 20 -3 8 0 14 6 14 6 0 10 3 9 8 -1 4 3 17 10 28 6 12 8 24 5 28
-3 3 -1 6 6 6 7 0 11 6 8 14 -3 8 3 22 14 32 10 9 19 22 19 28 0 6 -5 4 -10
-4 -7 -10 -10 -11 -10 -2 0 7 7 15 15 18 8 4 13 9 10 14 -2 4 2 16 10 26 8 10
15 27 15 37 0 10 4 16 9 13 5 -4 7 4 3 16 -4 16 -2 19 8 13 10 -6 12 -4 7 8
-3 9 -1 17 4 19 9 3 15 22 18 51 1 5 5 6 10 3 5 -4 8 2 7 11 -2 10 5 26 16 37
10 11 18 28 18 38 0 10 5 18 10 18 6 0 10 9 10 19 0 11 5 23 10 26 6 4 8 10 5
15 -3 5 2 15 11 24 8 9 12 20 9 26 -3 5 -1 10 5 10 6 0 9 4 6 8 -3 5 3 18 12
28 20 21 22 26 22 50 0 8 4 13 9 9 6 -3 15 4 21 15 6 11 16 17 22 14 6 -4 8
-3 5 3 -3 5 3 17 14 26 10 9 19 12 19 7 0 -7 7 -7 20 0 14 8 20 8 20 0 0 -6 4
-9 9 -6 11 7 51 -13 74 -36 20 -20 22 -32 5 -22 -7 4 -5 -2 4 -13 20 -22 22
-102 3 -109 -7 -3 -10 -18 -7 -36 3 -21 1 -29 -7 -24 -7 5 -11 -2 -11 -18 0
-14 -5 -26 -10 -26 -6 0 -10 -8 -8 -17 2 -10 -2 -17 -9 -16 -7 2 -10 -6 -8
-17 2 -11 -2 -25 -8 -32 -7 -7 -12 -20 -12 -28 0 -8 -3 -18 -8 -21 -5 -3 -9
-12 -11 -20 -1 -8 -8 -25 -15 -38 -8 -15 -9 -21 -2 -16 7 3 3 -8 -8 -26 -11
-18 -17 -37 -14 -42 3 -6 -2 -16 -11 -23 -10 -7 -13 -15 -7 -18 6 -4 8 -13 5
-21 -4 -8 -11 -12 -17 -8 -6 4 -8 -2 -4 -16 3 -12 -1 -27 -9 -36 -8 -7 -13
-20 -12 -27 2 -7 -2 -12 -9 -11 -7 2 -10 -6 -8 -18 5 -23 -4 -51 -14 -45 -4 3
-6 -8 -5 -25 1 -16 -2 -29 -7 -29 -5 0 -11 -11 -15 -25 -3 -14 -10 -25 -16
-25 -5 0 -7 -4 -3 -9 3 -5 1 -12 -5 -16 -5 -3 -10 -16 -10 -27 0 -11 -8 -27
-17 -35 -11 -8 -13 -12 -5 -11 18 4 128 110 125 120 -2 4 3 5 10 3 6 -3 18 4
25 16 10 15 10 19 1 14 -8 -6 -10 -4 -5 4 5 7 14 10 22 7 8 -3 11 0 7 9 -3 8
2 18 11 21 9 3 16 12 16 18 0 7 14 22 30 35 17 12 28 26 26 30 -3 5 3 16 14
26 11 10 20 27 20 37 0 11 3 17 8 15 9 -6 26 13 30 33 2 8 11 21 20 28 9 7 17
16 17 20 2 22 18 51 27 49 6 -1 12 7 14 17 1 11 10 23 19 28 8 5 13 13 10 19
-4 5 -1 9 5 9 6 0 8 5 5 10 -3 6 -1 10 4 10 6 0 11 6 11 14 0 7 8 24 19 37 10
13 17 32 15 42 -2 16 8 22 30 18 5 -1 4 5 -4 13 -11 14 -7 20 11 18 4 -1 5 8
2 18 -3 12 0 20 7 20 7 0 10 7 6 15 -3 8 -1 15 4 15 6 0 9 6 7 13 -1 6 3 11 9
10 7 -1 10 6 7 17 -3 11 0 20 6 20 6 0 10 3 9 8 -3 10 30 92 38 92 3 0 2 -5
-2 -12 -5 -7 -3 -8 5 -3 8 5 9 11 3 17 -12 12 -4 48 10 48 6 0 8 9 5 20 -3 12
0 20 7 20 8 0 12 12 11 30 -1 17 2 33 7 36 4 3 6 10 3 15 -4 5 -2 9 3 9 5 0 8
13 7 30 -1 16 2 28 8 27 5 -1 10 12 11 28 1 17 7 39 13 49 6 10 8 28 5 39 -4
15 -2 18 9 12 11 -6 11 -5 2 5 -9 10 -8 16 4 28 10 11 12 17 4 20 -7 2 -8 10
-2 20 5 9 7 25 6 35 -2 10 1 14 7 11 7 -5 9 2 4 20 -4 16 -2 26 4 26 7 0 8 6
2 17 -7 12 -5 24 5 40 8 13 12 23 9 23 -4 0 -2 9 4 20 6 11 7 20 2 20 -4 0 -8
14 -7 30 0 17 4 30 9 30 5 0 6 3 3 7 -4 3 -1 13 6 21 10 13 9 14 -3 7 -12 -7
-13 -6 -4 6 17 21 13 431 -4 437 -10 3 -10 7 -1 18 9 11 9 14 -1 14 -10 0 -10
3 0 15 9 11 9 15 1 15 -8 0 -9 5 -1 19 7 14 7 22 -1 26 -17 11 -27 49 -18 67
6 10 5 19 -1 23 -6 4 -8 11 -4 16 3 5 0 17 -7 25 -6 8 -9 17 -6 21 4 3 1 13
-6 21 -9 11 -9 16 -1 19 9 3 8 12 -2 32 -8 15 -12 42 -10 59 2 21 -1 29 -9 26
-9 -4 -12 4 -10 26 2 20 -3 34 -11 37 -12 4 -12 8 -2 21 11 13 11 14 0 8 -11
-6 -12 -1 -9 23 4 22 1 31 -8 31 -8 0 -12 8 -10 20 2 11 -2 25 -9 32 -7 7 -11
25 -11 40 1 15 -1 25 -5 23 -4 -3 -10 4 -13 15 -3 11 0 20 6 20 7 0 4 5 -5 11
-10 5 -18 17 -18 25 0 8 -7 17 -16 21 -13 5 -13 7 -2 14 10 7 10 9 -2 9 -13 0
-13 1 0 10 12 8 12 10 -3 16 -9 3 -17 15 -17 25 0 10 -5 19 -11 19 -5 0 -8 4
-5 9 4 5 1 11 -5 13 -6 2 -12 15 -12 30 -1 14 -5 24 -9 21 -7 -4 -12 20 -9 40
0 4 -5 6 -11 5 -7 -2 -12 3 -10 10 1 6 -3 12 -9 12 -5 0 -7 5 -4 10 3 6 2 10
-4 10 -6 0 -7 7 -4 17 4 10 2 14 -4 10 -6 -4 -13 0 -17 8 -3 8 0 15 6 15 6 0
1 9 -11 19 -16 14 -18 21 -9 24 9 4 7 6 -4 6 -16 1 -35 36 -29 56 1 6 0 7 -4
3 -9 -9 -36 17 -39 38 -1 9 -9 20 -17 25 -8 5 -10 9 -6 9 5 0 2 7 -5 15 -29
33 -38 45 -33 45 4 0 -1 7 -9 16 -9 8 -13 20 -10 26 4 7 2 8 -4 4 -7 -4 -12
-2 -12 4 0 6 -5 8 -12 4 -8 -5 -9 -2 -5 9 4 10 0 20 -11 26 -9 6 -14 11 -10
11 4 0 -7 14 -25 31 -17 17 -33 35 -33 40 -1 5 -2 14 -3 21 0 6 -4 9 -7 5 -7
-7 -34 17 -34 31 0 11 -30 26 -43 23 -5 -1 -6 3 -2 9 7 12 -11 33 -37 43 -10
3 -18 13 -18 22 0 8 -4 15 -10 15 -5 0 -10 6 -10 14 0 7 -8 20 -17 27 -11 10
-14 10 -9 2 4 -7 5 -13 2 -13 -3 0 -13 12 -21 28 -9 15 -14 18 -10 8 5 -16 3
-17 -10 -6 -9 7 -13 15 -11 18 7 6 -20 32 -33 32 -6 0 -11 7 -11 17 0 9 -3 13
-7 10 -3 -4 -15 5 -25 20 -10 16 -18 24 -18 19 0 -6 -7 -1 -16 10 -8 10 -13
12 -9 4 4 -10 2 -9 -8 3 -8 9 -19 17 -25 17 -6 0 -14 5 -18 12 -5 7 -3 8 7 3
12 -8 12 -6 0 8 -7 9 -18 17 -24 17 -5 0 -16 8 -24 18 -9 11 -12 12 -8 2 4 -8
-3 -4 -14 10 -11 14 -21 21 -21 16 0 -6 -7 -1 -15 10 -8 10 -15 15 -15 10 0
-5 -12 4 -27 20 -15 16 -28 27 -30 24 -1 -3 -12 3 -23 13 -11 9 -27 17 -35 17
-8 0 -15 5 -15 10 0 6 -12 16 -27 23 -16 6 -30 14 -33 17 -3 3 -14 12 -24 20
-18 13 -19 13 -11 0 8 -13 6 -13 -8 -1 -9 7 -14 18 -10 24 3 6 1 7 -5 3 -6 -3
-17 0 -24 7 -7 8 -20 12 -30 9 -10 -2 -18 1 -18 7 0 7 -4 9 -10 6 -5 -3 -10
-1 -10 5 0 7 -6 10 -14 7 -8 -3 -16 -3 -18 1 -2 4 -17 15 -35 24 -23 12 -33
13 -37 5 -2 -7 -5 -5 -5 4 -1 9 -12 20 -26 23 -14 4 -25 11 -25 17 0 6 -6 6
-17 0 -17 -8 -49 10 -37 22 3 2 -7 2 -22 -1 -18 -3 -25 -1 -20 6 4 7 -1 10
-13 7 -11 -2 -22 3 -25 11 -3 9 -11 12 -17 8 -6 -3 -15 -1 -19 6 -4 7 -19 13
-34 13 -14 0 -23 3 -20 8 3 5 -4 10 -15 10 -33 2 -39 4 -47 12 -4 4 -20 7 -36
7 -15 0 -28 5 -28 10 0 6 -20 10 -45 10 -32 0 -45 4 -45 14 0 11 -7 13 -30 6
-20 -6 -30 -5 -30 2 0 7 -5 7 -14 -1 -11 -9 -15 -8 -20 4 -4 11 -17 15 -43 14
-55 -3 -75 0 -69 9 2 4 -35 7 -82 7 -74 0 -90 2 -104 19 -10 10 -18 14 -18 8
0 -6 -11 -9 -26 -6 -19 3 -24 1 -18 -8 6 -10 5 -10 -7 -2 -8 6 -24 10 -37 8
-17 -3 -21 0 -16 8 6 10 4 10 -7 2 -8 -6 -24 -10 -37 -8 -17 3 -21 0 -16 -8 6
-10 4 -10 -7 -2 -8 6 -24 10 -37 8 -17 -3 -21 0 -16 8 6 10 4 10 -7 2 -8 -6
-24 -10 -37 -8 -17 3 -21 0 -16 -8 6 -10 4 -10 -7 -2 -8 6 -24 10 -37 8 -14
-3 -21 0 -17 6 3 5 4 10 1 10 -3 0 -7 -4 -11 -9z m1965 -1351 c0 -5 -2 -10 -4
-10 -3 0 -8 5 -11 10 -3 6 -1 10 4 10 6 0 11 -4 11 -10z m-1747 -345 c26 2 47
-1 47 -7 0 -5 4 -6 10 -3 24 15 50 13 50 -3 0 -15 2 -15 10 -2 5 8 10 10 10 4
0 -7 16 -10 40 -8 23 2 40 -1 40 -8 0 -5 7 -8 15 -4 8 3 15 1 15 -5 0 -6 4 -8
9 -4 5 3 16 -1 23 -9 10 -9 20 -11 30 -5 12 7 18 4 23 -11 3 -11 11 -20 16
-20 6 0 7 6 3 13 -4 6 2 4 14 -6 11 -11 25 -16 31 -13 5 4 13 1 17 -5 5 -8 3
-9 -6 -4 -8 5 -11 4 -6 -3 4 -6 13 -9 21 -5 8 3 15 0 15 -6 0 -6 7 -11 16 -11
8 0 12 -4 9 -10 -6 -9 16 -15 39 -11 5 1 6 -5 2 -14 -3 -9 -2 -14 3 -11 5 3
14 -1 21 -10 7 -8 19 -13 27 -10 8 3 11 1 8 -4 -3 -6 2 -10 11 -10 10 0 15 -3
11 -6 -6 -7 3 -17 37 -44 18 -13 19 -13 11 0 -8 13 -6 13 8 1 9 -7 14 -17 11
-22 -3 -5 0 -8 8 -7 7 2 12 -3 10 -9 -1 -7 5 -13 13 -13 8 0 15 -7 15 -16 0
-8 4 -12 10 -9 6 4 7 -1 3 -11 -5 -13 -3 -15 7 -9 10 6 12 4 7 -8 -4 -11 -1
-17 8 -17 17 0 38 -34 27 -45 -4 -3 -1 -5 6 -3 8 2 22 -13 33 -32 22 -42 40
-68 56 -85 7 -7 9 -16 5 -19 -3 -4 -1 -11 6 -15 7 -4 14 -17 15 -29 0 -11 5
-18 9 -16 8 5 12 -17 9 -43 -1 -7 3 -13 9 -13 5 0 10 -13 10 -30 0 -16 5 -30
10 -30 6 0 10 -18 8 -41 -1 -22 3 -43 9 -47 5 -4 10 -22 9 -40 -1 -19 2 -36 7
-39 4 -2 4 -9 1 -15 -4 -6 -7 -65 -7 -132 0 -66 -4 -124 -9 -127 -5 -3 -9 -25
-10 -47 0 -23 -4 -40 -8 -37 -4 3 -10 -2 -14 -10 -3 -8 0 -15 7 -15 8 0 6 -4
-3 -10 -12 -8 -12 -10 -1 -10 11 0 10 -4 -3 -19 -10 -11 -15 -24 -12 -29 3 -6
-1 -12 -9 -16 -8 -3 -12 -12 -9 -21 4 -8 1 -15 -7 -15 -7 0 -9 -3 -6 -7 4 -3
2 -12 -4 -20 -6 -7 -8 -13 -3 -13 4 0 -1 -7 -12 -16 -10 -8 -12 -13 -4 -9 10
4 9 2 -2 -8 -10 -8 -18 -19 -18 -26 0 -6 -4 -11 -10 -11 -5 0 -10 -8 -10 -17
0 -16 -2 -16 -11 -3 -8 12 -10 9 -6 -12 2 -15 0 -25 -4 -22 -5 3 -9 -2 -9 -10
0 -9 -6 -15 -12 -14 -7 2 -12 -2 -11 -9 2 -6 -11 -26 -28 -42 -17 -18 -27 -36
-23 -42 4 -8 3 -9 -5 -5 -6 4 -14 0 -17 -8 -3 -9 -9 -14 -13 -12 -4 3 -16 -7
-27 -21 -10 -14 -37 -37 -59 -51 -22 -14 -44 -31 -48 -39 -5 -7 -13 -10 -19
-7 -8 5 -9 1 -5 -10 4 -10 3 -15 -3 -11 -6 3 -10 1 -10 -5 0 -6 -4 -9 -8 -6
-11 7 -54 -23 -48 -33 3 -4 -1 -8 -9 -8 -8 0 -15 4 -15 8 0 5 -7 6 -15 3 -8
-4 -12 -11 -8 -17 4 -6 0 -8 -10 -4 -9 3 -17 1 -19 -5 -2 -6 -17 -12 -32 -13
-16 -2 -32 -7 -35 -12 -3 -5 -15 -9 -26 -8 -11 0 -26 -5 -32 -12 -7 -6 -26 -9
-42 -7 -18 3 -30 0 -34 -9 -3 -9 -22 -12 -62 -11 -38 1 -55 -2 -52 -10 3 -8
-26 -11 -99 -11 -63 0 -104 4 -104 10 0 6 -5 3 -10 -5 -9 -13 -12 -13 -23 1
-7 9 -24 16 -37 17 -55 0 -71 2 -65 11 3 6 -8 8 -25 6 -16 -2 -35 2 -42 8 -7
7 -22 13 -33 13 -26 1 -75 24 -75 36 0 5 -3 7 -7 5 -14 -8 -98 39 -95 53 2 10
0 11 -10 2 -14 -11 -18 -8 -84 47 -7 5 -15 7 -18 4 -3 -4 -6 0 -6 7 0 17 -49
62 -61 55 -5 -4 -9 -1 -9 5 0 6 -4 8 -10 5 -6 -3 -7 1 -4 9 4 11 0 16 -11 16
-9 0 -13 5 -10 10 3 6 1 10 -4 10 -6 0 -11 6 -11 14 0 8 -9 18 -20 21 -11 3
-20 13 -20 21 0 8 -4 14 -10 14 -5 0 -10 6 -10 14 0 7 -12 26 -27 41 -16 16
-21 25 -13 20 12 -7 -7 22 -30 45 -6 6 -23 42 -41 87 -7 17 -16 30 -20 27 -4
-2 -5 10 -4 27 2 20 -1 29 -9 26 -7 -3 -12 5 -11 22 1 14 -3 31 -7 37 -15 20
-18 54 -5 54 7 0 4 5 -6 11 -9 6 -15 14 -12 20 4 5 0 9 -7 9 -10 0 -10 2 1 9
9 6 10 11 2 15 -7 5 -7 15 -1 31 7 17 6 25 -1 25 -8 0 -7 5 1 15 10 12 10 15
0 15 -9 0 -9 4 -2 13 7 8 7 18 2 27 -5 8 -5 21 1 32 7 12 6 18 -1 18 -7 0 -7
7 1 21 8 16 8 20 -1 14 -9 -6 -9 -3 -1 13 7 13 7 23 2 27 -6 3 -6 17 -1 35 6
21 5 30 -3 30 -8 0 -8 3 -2 8 21 15 32 48 24 70 -6 17 -5 22 7 22 8 0 12 5 9
10 -3 6 0 10 7 10 11 0 11 2 0 9 -11 7 -11 10 0 22 7 8 14 25 16 39 1 14 7 26
12 28 5 2 6 10 3 18 -3 8 -1 14 5 14 5 0 13 11 16 25 4 14 11 25 17 25 6 0 7
5 4 10 -3 6 -1 10 5 10 6 0 8 5 5 10 -3 6 -1 10 4 10 6 0 11 7 11 15 0 8 5 15
11 15 5 0 7 5 4 10 -3 6 0 10 8 10 8 0 18 11 21 25 4 14 11 25 17 25 6 0 8 4
4 9 -3 5 4 13 16 16 11 4 18 9 15 12 -2 3 5 15 18 27 14 14 15 16 2 6 -19 -15
-19 -15 0 11 10 15 22 25 25 23 4 -2 10 3 13 12 3 8 10 13 15 10 5 -3 11 1 15
9 3 8 12 15 20 15 8 0 18 9 21 20 4 11 11 18 16 15 5 -4 9 -2 9 4 0 6 16 18
35 27 19 9 35 21 35 26 0 6 8 7 17 4 10 -4 14 -4 10 0 -4 4 5 15 21 24 19 12
29 14 34 6 5 -7 8 -3 8 8 0 11 3 17 6 13 4 -3 15 4 26 16 11 12 17 16 13 10
-4 -9 -1 -11 9 -7 9 3 16 11 16 16 0 6 6 8 14 5 7 -3 27 3 45 14 21 13 31 15
32 6 0 -9 2 -9 6 1 2 6 9 10 14 6 5 -3 9 0 9 5 0 7 16 9 41 6 26 -4 38 -2 34
5 -6 10 -4 11 107 14 37 1 70 5 74 9 4 4 10 3 13 -2 3 -5 27 -7 54 -6z m2408
-162 c13 -16 12 -17 -3 -4 -10 7 -18 15 -18 17 0 8 8 3 21 -13z m-4136 -1193
c3 -5 1 -10 -4 -10 -6 0 -11 5 -11 10 0 6 2 10 4 10 3 0 8 -4 11 -10z m739
-718 c2 -4 -4 -8 -14 -8 -10 0 -16 4 -14 8 3 4 9 8 14 8 5 0 11 -4 14 -8z
m-32 -29 c-6 -2 -9 -10 -6 -15 4 -7 2 -8 -5 -4 -13 9 -5 26 12 25 9 0 8 -2 -1
-6z m-1012 -567 c0 -3 -4 -8 -10 -11 -5 -3 -10 -1 -10 4 0 6 5 11 10 11 6 0
10 -2 10 -4z"/>
<path d="M4985 5074 c-10 -10 -28 -18 -40 -19 -12 0 -28 -7 -37 -15 -9 -8 -26
-22 -38 -30 -37 -25 -51 -41 -44 -52 4 -7 2 -8 -4 -4 -7 4 -12 1 -12 -9 0 -9
-4 -13 -10 -10 -6 3 -7 -1 -4 -9 3 -9 1 -16 -5 -16 -6 0 -10 -3 -10 -7 1 -5 1
-10 -1 -13 -1 -3 -4 -16 -6 -30 -2 -13 -8 -27 -12 -30 -5 -3 -8 -23 -7 -45 1
-22 -4 -46 -9 -54 -8 -11 -8 -13 1 -8 8 5 11 -1 9 -20 -2 -16 5 -35 15 -47 12
-12 16 -23 10 -29 -6 -6 -4 -15 5 -24 8 -8 12 -18 9 -23 -3 -4 2 -10 10 -14 8
-3 12 -12 9 -21 -3 -8 -1 -15 4 -15 16 0 61 -48 53 -56 -3 -4 4 -4 17 -1 12 3
22 1 22 -4 0 -5 6 -9 14 -9 7 0 19 -6 26 -14 6 -8 18 -12 26 -9 8 3 14 0 14
-6 0 -6 6 -8 14 -5 8 3 24 0 36 -6 13 -7 20 -8 17 -3 -7 11 85 9 103 -2 8 -5
11 -4 6 3 -5 9 47 29 66 24 4 -1 5 5 2 13 -4 10 0 13 15 10 12 -2 20 -1 17 3
-3 6 19 34 26 32 11 -4 38 15 38 26 0 8 8 14 17 14 9 0 14 3 10 6 -3 3 3 22
14 41 11 19 16 39 13 45 -5 7 -2 8 5 4 8 -6 11 -2 9 10 -2 11 2 18 7 17 6 -1
10 22 10 53 0 30 -4 54 -9 54 -6 0 -5 5 1 11 10 10 6 62 -6 55 -3 -2 -7 8 -7
23 -2 29 -39 98 -51 93 -4 -2 -11 10 -16 27 -4 16 -12 33 -19 37 -7 5 -9 2 -4
-7 4 -8 1 -6 -7 4 -9 10 -18 18 -21 18 -20 -3 -26 0 -21 8 5 10 -32 27 -49 23
-5 -2 -16 4 -26 13 -14 13 -19 13 -23 3 -4 -10 -6 -10 -6 1 -1 11 -4 11 -17 0
-9 -7 -18 -9 -22 -3 -8 10 -52 14 -52 4 0 -9 -44 -7 -51 3 -3 5 -14 0 -24 -9z"/>
<path d="M6613 3768 c-1 -11 -6 -24 -10 -27 -11 -7 -10 -22 0 -39 12 -18 27
-5 27 23 0 13 5 25 12 27 15 5 3 38 -15 38 -7 0 -13 -10 -14 -22z"/>
<path d="M6583 3693 c-7 -2 -10 -10 -7 -17 3 -8 -2 -16 -11 -20 -10 -3 -15
-12 -11 -21 3 -8 -1 -21 -9 -29 -8 -7 -12 -16 -9 -18 2 -3 -4 -26 -15 -51 -11
-25 -17 -48 -14 -51 4 -3 2 -6 -4 -6 -9 0 -38 -79 -33 -89 1 -2 -4 -8 -12 -12
-10 -7 -10 -9 0 -9 7 0 10 -5 7 -10 -4 -6 -10 -8 -14 -6 -4 3 -8 -1 -8 -9 0
-8 6 -16 14 -19 7 -3 12 -2 11 2 -5 17 14 52 25 46 9 -5 9 -3 0 6 -10 11 -9
16 5 26 14 11 14 15 4 22 -11 8 -11 10 2 15 9 4 16 13 16 22 0 8 5 15 11 15 5
0 8 4 4 10 -3 5 3 18 15 30 12 12 15 20 8 20 -9 1 -8 5 2 13 9 7 14 19 12 28
-1 9 4 24 13 33 9 9 13 16 9 16 -4 0 0 8 9 18 14 15 14 21 4 34 -6 9 -17 14
-24 11z"/>
<path d="M6050 3302 c0 -12 5 -24 12 -28 6 -4 8 -3 4 4 -3 5 -1 12 5 14 7 2 5
9 -5 17 -14 12 -16 11 -16 -7z"/>
<path d="M6433 3312 c-6 -4 -9 -15 -7 -24 1 -10 -3 -18 -9 -18 -5 0 -8 -2 -5
-5 8 -8 39 6 33 15 -3 5 2 13 11 18 14 8 14 10 2 15 -8 3 -19 2 -25 -1z"/>
<path d="M6039 3262 c11 -8 11 -10 0 -14 -10 -3 -9 -6 3 -10 11 -5 15 -2 14
10 -2 9 -9 18 -17 20 -12 3 -12 2 0 -6z"/>
<path d="M6406 3235 c4 -8 1 -15 -4 -15 -6 0 -16 -16 -23 -34 -7 -19 -16 -33
-20 -30 -4 2 -6 -10 -5 -27 1 -17 -4 -33 -12 -38 -8 -4 -12 -17 -10 -27 4 -15
9 -10 24 21 10 22 22 43 26 46 5 3 9 17 10 32 1 15 6 27 11 27 4 0 5 5 2 10
-3 6 1 13 9 16 20 8 21 34 1 34 -9 0 -12 -6 -9 -15z"/>
<path d="M6014 3206 c1 -8 5 -18 8 -22 4 -3 5 1 4 10 -1 8 -5 18 -8 22 -4 3
-5 -1 -4 -10z"/>
<path d="M7029 2893 c-13 -16 -12 -17 4 -4 16 13 21 21 13 21 -2 0 -10 -8 -17
-17z"/>
</g>
</svg>
