<?xml version="1.0" encoding="utf-8"?>
<!-- Generator: Adobe Illustrator 24.1.2, SVG Export Plug-In . SVG Version: 6.00 Build 0)  -->
<svg version="1.1" id="Layer_1" xmlns="http://www.w3.org/2000/svg" xmlns:xlink="http://www.w3.org/1999/xlink" x="0px" y="0px"
	 viewBox="0 0 1391 1083" style="enable-background:new 0 0 1391 1083;" xml:space="preserve">
<style type="text/css">
	
		.st0{fill-rule:evenodd;clip-rule:evenodd;fill:#F45B49;stroke:#1C2628;stroke-width:2.13;stroke-linecap:round;stroke-linejoin:round;}
	.st1{fill-rule:evenodd;clip-rule:evenodd;fill:#1DB954;}
	
		.st2{fill-rule:evenodd;clip-rule:evenodd;fill:#1C2628;stroke:#1C2628;stroke-width:2.13;stroke-linecap:round;stroke-linejoin:round;}
	.st3{fill:none;stroke:#1C2628;stroke-width:2.13;stroke-linecap:round;stroke-linejoin:round;}
	.st4{fill:#1DB954;}
	.st5{fill:#1C2628;stroke:#1C2628;stroke-width:2.13;stroke-linecap:round;stroke-linejoin:round;}
	
		.st6{fill-rule:evenodd;clip-rule:evenodd;fill:#FAFCFF;stroke:#1C2628;stroke-width:2.13;stroke-linecap:round;stroke-linejoin:round;}
	.st7{fill-rule:evenodd;clip-rule:evenodd;fill:#FB564C;}
	.st8{fill-rule:evenodd;clip-rule:evenodd;fill:#FAF6EB;}
	
		.st9{fill-rule:evenodd;clip-rule:evenodd;fill:#FAF6EB;stroke:#1C2628;stroke-width:2.13;stroke-linecap:round;stroke-linejoin:round;}
	
		.st10{fill-rule:evenodd;clip-rule:evenodd;fill:#47584E;stroke:#1C2628;stroke-width:2.13;stroke-linecap:round;stroke-linejoin:round;}
	
		.st11{fill-rule:evenodd;clip-rule:evenodd;fill:#F3A140;stroke:#1C2628;stroke-width:2.13;stroke-linecap:round;stroke-linejoin:round;}
	.st12{fill:#49574E;}
	.st13{fill:none;stroke:#FAF6EB;stroke-width:2.13;stroke-linecap:round;stroke-linejoin:round;}
	.st14{fill:#FAF6EB;stroke:#1C2628;stroke-width:2.13;stroke-linecap:round;stroke-linejoin:round;}
	.st15{fill:#F45B49;stroke:#1C2628;stroke-width:2.13;stroke-linecap:round;stroke-linejoin:round;}
	.st16{fill:none;stroke:#FFFFFF;stroke-width:2.13;stroke-linecap:round;stroke-linejoin:round;}
	
		.st17{fill-rule:evenodd;clip-rule:evenodd;fill:none;stroke:#FEFEFE;stroke-width:2.13;stroke-linecap:round;stroke-linejoin:round;}
	
		.st18{fill-rule:evenodd;clip-rule:evenodd;fill:none;stroke:#1C2628;stroke-width:2.13;stroke-linecap:round;stroke-linejoin:round;}
	.st19{fill-rule:evenodd;clip-rule:evenodd;fill:#49574E;}
	.st20{fill:#F55C4A;}
	.st21{fill:#FAF6EB;}
	
		.st22{fill-rule:evenodd;clip-rule:evenodd;fill:#47584E;stroke:#FAF6EB;stroke-width:2.13;stroke-linecap:round;stroke-linejoin:round;}
	.st23{fill-rule:evenodd;clip-rule:evenodd;fill:#1C2628;}
	.st24{fill-rule:evenodd;clip-rule:evenodd;fill:#F7AA9A;}
	
		.st25{fill-rule:evenodd;clip-rule:evenodd;fill:none;stroke:#FAF6EB;stroke-width:2.13;stroke-linecap:round;stroke-linejoin:round;}
	.st26{clip-path:url(#SVGID_2_);}
	.st27{clip-path:url(#SVGID_4_);}
	
		.st28{fill-rule:evenodd;clip-rule:evenodd;fill:none;stroke:#FFFDFD;stroke-width:2.13;stroke-linecap:round;stroke-linejoin:round;}
	.st29{clip-path:url(#SVGID_6_);}
	.st30{fill:#FB564C;}
	.st31{clip-path:url(#SVGID_8_);}
	.st32{clip-path:url(#SVGID_10_);}
	.st33{fill:#F3A140;stroke:#1C2628;stroke-width:2.13;stroke-linecap:round;stroke-linejoin:round;}
	
		.st34{clip-path:url(#XMLID_3_);fill-rule:evenodd;clip-rule:evenodd;fill:none;stroke:#1C2628;stroke-width:2.13;stroke-linecap:round;stroke-linejoin:round;}
	.st35{fill:none;stroke:#000000;stroke-width:6;stroke-linecap:round;stroke-linejoin:round;}
	.st36{fill-rule:evenodd;clip-rule:evenodd;fill:#F55C4A;}
	.st37{fill:#47584E;stroke:#1C2628;stroke-width:2.13;stroke-linecap:round;stroke-linejoin:round;}
	.st38{fill:#1C2628;}
</style>
<g>
	<g>
		<path class="st5" d="M1259.6,99c0,0,67.7-11,27.3,108.2c0,0-62.3-54.1-50.2-96.6C1251.2,102,1259.6,99,1259.6,99z"/>
		<path class="st5" d="M1229.8,104.7c0,0,51.8-52.1,116.6,0.5c0,0-82.7,47.2-116.7,23.8C1228.5,113.2,1229.8,104.7,1229.8,104.7z"/>
		<path class="st12" d="M1233,98.7c0,0-52.8-52.6-111.6,10.3c0,0,82.1,44.7,113.2,16.2C1234.8,108,1233,98.7,1233,98.7z"/>
		<path class="st5" d="M1233,98.7c0,0-42.9-43.4-87.4-4.6c0,0,57.9,59.5,89,31.1C1234.8,108,1233,98.7,1233,98.7z"/>
		<path class="st12" d="M1202.2,106.5c0,0-74.2,35.3-41.1,106c0,0,80-64.4,67.1-100.7C1211.8,107.2,1202.2,106.5,1202.2,106.5z"/>
		<path class="st5" d="M1184.7,180.9c5.8,4.7,8.2,11.8,5.2,15.9c-3,4.1-10.1,3.6-15.9-1.1c-5.8-4.7-8.2-11.8-5.2-15.9
			C1171.7,175.7,1178.8,176.2,1184.7,180.9z"/>
		<path class="st5" d="M1257.7,166.6c-2.8,6.9-9,11.2-13.7,9.5c-4.8-1.7-6.4-8.6-3.5-15.6c2.8-6.9,9-11.2,13.7-9.5
			C1258.9,152.7,1260.5,159.7,1257.7,166.6z"/>
		<path class="st5" d="M1171.6,165.2c3.6-9.9,12.8-16.4,20.6-14.5c7.7,1.9,11.1,11.5,7.5,21.5c-3.6,9.9-12.8,16.4-20.6,14.5
			C1171.3,184.8,1168,175.2,1171.6,165.2z"/>
		<path class="st5" d="M1238,107.7l-17.5,9.6c13.9,137.9-7.7,261.5-61.8,389.3c4.3,2,8.7,3.8,13.2,5.4
			C1241.7,356.8,1249.9,235.6,1238,107.7z"/>
		<g>
			<path class="st5" d="M1176.1,453.9c0,11.4-12.8,50.1-14.1,54.1c0,0,0,0,0,0l16.6-38.7C1180.2,459.9,1176.1,453.9,1176.1,453.9z"
				/>
			<path class="st5" d="M1161.8,508.3l0.1-0.3c0,0,0,0,0,0C1161.9,508.2,1161.8,508.3,1161.8,508.3z"/>
			<path class="st5" d="M1183.9,468.9l-17.8,38.7c0,0,22.2-39.7,31.2-48.6C1197.3,459,1189.8,461,1183.9,468.9z"/>
		</g>
		<g>
			<path class="st5" d="M1181.4,464.5c0,0,10-43.3,8.1-55.4c0,0,5.9,5.9,5.4,15.4L1181.4,464.5z"/>
			<path class="st5" d="M1186.3,463.7c0,0,19.8-40.8,29-50.1c0,0-8.5,2.3-14.2,10.5L1186.3,463.7z"/>
		</g>
		<g>
			<path class="st5" d="M1200.7,410.6c0,0,5.1-43.6,1.9-55.3c0,0,6.6,5.1,7.1,14.5L1200.7,410.6z"/>
			<path class="st5" d="M1205.6,409.2c0,0,15.2-42.2,23.5-52.4c0,0-8.3,3.2-13.1,11.9L1205.6,409.2z"/>
		</g>
		<g>
			<path class="st5" d="M1217.1,344.3c0,0,1.4-43.5-2.8-54.7c0,0,7,4.5,8.4,13.8L1217.1,344.3z"/>
			<path class="st5" d="M1221.9,342.6c0,0,11.7-43,19.2-53.7c0,0-8.1,3.8-12.2,12.8L1221.9,342.6z"/>
		</g>
		<g>
			<path class="st5" d="M1227.5,278.2c0,0-2.9-43-9-53.8c0,0,8.6,3.9,11.1,12.9L1227.5,278.2z"/>
			<path class="st5" d="M1232.8,276.1c0,0,9-43.4,16.4-54.7c0,0-8.9,4.5-12.7,13.7L1232.8,276.1z"/>
		</g>
		<g>
			<path class="st5" d="M1232.1,216.2c0,0-6.2-42.4-13.1-52.6c0,0,8.9,3.2,12.1,11.9L1232.1,216.2z"/>
			<path class="st5" d="M1237.3,213.7c0,0,5.8-43.6,12.4-55.3c0,0-8.6,5.1-11.7,14.4L1237.3,213.7z"/>
		</g>
		<g>
			<path class="st5" d="M1232,160.3c0,0-12.6-40.3-21.1-49.3c0,0,9.4,1.8,14,9.8L1232,160.3z"/>
			<path class="st5" d="M1236.8,157.1c0,0-0.8-43.3,4.1-55.6c0,0-7.9,6.2-9.6,15.8L1236.8,157.1z"/>
		</g>
		<g>
			<path class="st5" d="M1212.8,113.3c-0.6-0.9-1.2-1.7-1.8-2.3c0,0,1.6,0.3,3.8,1.2L1212.8,113.3z"/>
			<path class="st5" d="M1178.2,507.6c0,0-2.2,0.5-5.2,2.2c6.4-14.4,12.3-28.5,17.7-42.4c2.5-3.6,4.9-6.6,6.6-8.3
				c0,0-1.7,0.5-4.1,1.8c4.1-10.7,7.9-21.3,11.4-31.7c4-6.8,7.8-12.6,10.7-15.5c0,0-3,0.8-6.7,3.2c5.2-16.3,9.7-32.4,13.6-48.1
				c2.5-5.1,4.8-9.4,6.8-11.8c0,0-2,0.8-4.6,2.6c4.7-20.1,8.3-39.8,11.1-59.2c1.9-4.9,3.8-8.9,5.5-11.4c0,0-1.9,0.9-4.4,2.9
				c2.2-16.9,3.7-33.6,4.7-50.2c2.5-8.5,5.3-16.3,7.8-20.1c0,0-3.6,1.8-7.1,5.5c0.5-14.7,0.6-29.2,0.4-43.8
				c2.1-10.1,4.6-20,7.2-24.6c0,0-4.2,2.5-7.7,7.1c-0.7-17.6-1.8-35.1-3.4-52.8c0.6-4.7,1.4-8.7,2.4-11.3c0,0-4,3.2-6.9,8.4
				l-4.5,2.5c1.4,16.8,2.6,33.4,3.2,50.1c3.6-4.7,7.7-7.1,7.7-7.1c-2.7,4.7-5.2,14.5-7.2,24.6c0.3,14.6,0.2,29.1-0.4,43.8
				c3.6-3.7,7.1-5.5,7.1-5.5c-2.6,3.9-5.3,11.7-7.8,20.1c-0.9,16.6-2.5,33.3-4.7,50.2c2.4-2,4.4-2.9,4.4-2.9
				c-1.7,2.4-3.6,6.5-5.5,11.4c-2.8,19.4-6.4,39.1-11.1,59.2c2.6-1.8,4.6-2.6,4.6-2.6c-2,2.4-4.4,6.7-6.8,11.8
				c-3.9,15.7-8.4,31.8-13.6,48.1c3.7-2.4,6.7-3.2,6.7-3.2c-2.9,2.9-6.7,8.8-10.7,15.5c-3.5,10.4-7.3,21-11.4,31.7
				c2.4-1.3,4.1-1.8,4.1-1.8c-1.8,1.8-4.1,4.7-6.6,8.3c-5.4,13.9-11.3,28-17.7,42.4c3-1.7,5.2-2.2,5.2-2.2c-1.2,1.1-2.6,2.7-4.2,4.7
				c3,1.2,6,2.4,9,3.4C1175.4,510.4,1176.9,508.7,1178.2,507.6z"/>
		</g>
		<path class="st5" d="M1230.4,113.8c50-6.1,51.1,53.8,89.2,142.7c0,0,116.6-196.1-79.7-156.4
			C1239.9,100.1,1231.9,100.3,1230.4,113.8z"/>
		<path class="st12" d="M1243,95c196.3-39.7,79.7,156.4,79.7,156.4c-9.9-23.1-17.3-44.3-23.7-62.9c3.5-7,6.4-12.8,8.6-20.6
			c-2.9,5.7-5.8,11.4-10.1,16.4c-17.4-50.2-28-80.1-64-75.7C1235,95.2,1243,95,1243,95z"/>
		<path class="st5" d="M1236.5,117.5c-39.4-12.2-57.1,44.1-109.9,118.1c0,0-45.6-193.2,105.5-131.5
			C1232.1,104,1238.6,105.3,1236.5,117.5z"/>
		<path class="st12" d="M1120.8,142.4c7-39.6,32.9-71.4,108.2-40.7c0,0,6.5,1.3,4.4,13.4c-30.9-9.5-47.1,21-78.1,70.3
			c-1.8-1.9-3.1-4.3-4.8-3.8c-4.2,4.9-4.6,11.7-4,17.5c-6.3,9.7-13.2,20-20.8,30.8c0,0-9.4-37.5-6.7-73.8c4.5-4.6,11-8.2,12.4-14.3
			C1127.7,142.6,1124.2,142.6,1120.8,142.4z"/>
		<path class="st12" d="M1233.2,98.3c0,0,16.3-9.2,21.6-18.7c0,0-4.8,26-20.5,30.9L1233.2,98.3z"/>
		<path class="st12" d="M1245,111.2c0,0,17.3-6.4,27.2-4.9c0,0-20.7-10.9-34.7-2.6L1245,111.2z"/>
		<path class="st12" d="M1235.9,95.7c0,0-15.2-7.8-19.6-16.6c0,0,2.6,24.8,17.6,28.5L1235.9,95.7z"/>
		<path class="st12" d="M1237.7,106c0,0-0.4-15.3,4.3-23.4c0,0-17.2,15.7-13.9,28.5L1237.7,106z"/>
		<path class="st12" d="M1219.4,103.9c19,0.7,28.6,3.3,28.6,3.3s23,9.6-2.9,61.3c-2.8-4.2-6.2-7.4-11.4-10.1
			c1.6,7.8,1.6,16.8,3.2,25c-9.1,15.3-21.7,33.5-39.3,55.2c0,0-9.6-21.4-14.1-47.5c2.3-3.8,4.4-7.3,4.4-12.8
			c-1.3,2.6-3.4,3.8-5.6,4.6C1178.6,152.2,1183.7,117.6,1219.4,103.9z"/>
		<path class="st5" d="M1339.6,183c0,0,0.7-76.9-61.9-77.7C1277.7,105.3,1344,98.6,1339.6,183z"/>
		<polygon class="st5" points="1234.7,115.8 1209.8,187.5 1228.5,114.7 		"/>
		<path class="st5" d="M1191.6,101.5c0,0-42.7,2.5-60.8,80.5C1130.8,182,1138.4,104.3,1191.6,101.5z"/>
		<path class="st5" d="M1229,356.8c0,0-12.1,9.3-18.9,16.7l-2.9-3.6C1207.2,370,1223.8,356.9,1229,356.8z"/>
		<path class="st5" d="M1249.1,221.5c0,0-13.8,15.1-19.6,28.1l-2.1-7C1227.3,242.6,1237.7,224.1,1249.1,221.5z"/>
	</g>
	<g>
		<rect x="157.8" y="691.9" class="st14" width="152.9" height="211.8"/>
		<polyline class="st14" points="157.8,903.7 157.8,960.5 182.9,903.7 		"/>
		<polyline class="st14" points="310.7,903.7 310.7,961.5 286.6,903.7 286.6,903.7 		"/>
		<rect x="181.8" y="718.1" class="st14" width="128.8" height="185.6"/>
		<line class="st14" x1="182.9" y1="805.4" x2="310.7" y2="805.5"/>
		<circle class="st14" cx="247.3" cy="779.2" r="6.6"/>
		<circle class="st14" cx="247.3" cy="866.6" r="6.6"/>
	</g>
	<path class="st1" d="M1210.9,417.3c-119.4-105.7-271.8,57.3-353.2,11.5c-81.5-45.7,43.7-136,27.4-194.6
		c-16.3-58.6-113.6-33.2-195.7,42.5C619.7,341.2,573,523,411.7,534.4c-219.4,15.4-83.1,262.6-62.4,285.1
		c8.4,123,416.4,217.6,514.6-115.9C918.2,519.1,1263.4,635.3,1210.9,417.3z"/>
	<g>
		<g>
			<path class="st5" d="M237,568.9c41.7-37.3,86.2-54.6,62.3,20.9c-22.1,9.2-12.9,13.7-22.4,28.4c-18.5-3.1-26.7,51.8-40.3,58.3
				c-8.7,3.1-38.4,19.9-41.3-42.6C193.1,586.3,225.1,582.8,237,568.9z"/>
			<path class="st5" d="M204.4,640.3c-41-22.7,0.7-64.2-51.9-83.8c-20.9-2.5-37-10.1-52.1-24.6c-46-15.4-62.9,0.2-54.2,47.4
				c10.4,25.4,49.1,26.7,53.5,57.2c14.7,15.4,42,8.4,61.3,15.2c14.8,3.1,17.5,20.2,32.9,22.2c22.2,0.8,32.8-2.7,26.2-17.2
				C216.9,649.7,211.2,644.1,204.4,640.3z"/>
			<path class="st17" d="M57,536.2c32.5,70.6,128.8,68.2,153.9,142.9"/>
			<path class="st17" d="M291.2,543.9c-15,24.6-87,45.8-71.1,112.9"/>
			<path class="st17" d="M294.5,572.1c-10-7.7-26.8,2-37.8,3.2"/>
			<path class="st17" d="M246.1,561c-1.2,8.7-3,15.7-3.3,24.5"/>
			<path class="st17" d="M130.3,552.9c-4,16,4.2,32.9,0.5,49.1"/>
			<path class="st17" d="M110.2,541c-2.6,22.5-8.3,38.3,8.2,54.8"/>
			<path class="st17" d="M101.8,588.7c-11.5,6-24.2,9.8-37.3,9.5"/>
			<path class="st17" d="M49.3,583c2-11.6,10.9-19.2,18.5-27.2c-7.4-0.5-14.9-0.3-22.2,0.7"/>
			<path class="st17" d="M109.5,643.3c13-16.8,36.4-13,55.3-18.4c-5.3,8.6-10.6,13.4-15.9,22"/>
			<g>
				<path class="st5" d="M236.6,662.8c4.2-27.5,7.8-53.6,38-62.3c11.7-7.4,26.7-21.6,34.6-2.7c8.3,11.4,21,22.8,35.2,26.1
					c5,0.8,12.4,2.2,12.5,8.5c-6.4,16.5-35.9,25.4-51.7,18.9c-15.8,36.5-28.8,14.5-56.4,17.2C235.2,685.1,226.6,686.3,236.6,662.8z"
					/>
				<path class="st17" d="M355.2,630.1c-49.6,7-105.8-16.4-123,50.2"/>
				<path class="st17" d="M284.7,671.9c-12.3-7-16.5-21.8-19.6-34.8c11.7,6.2,23.1,12.8,34.3,20"/>
				<path class="st17" d="M332.2,649.7c-10.2-5.1-19.8-11.3-28.6-18.5"/>
				<path class="st17" d="M299.3,589.8c-2.9,13.1-13.9,30-19.5,42.2c-4.1-9.8-3.6-19.1-6.8-29.2"/>
			</g>
		</g>
		<rect x="163.8" y="664.3" class="st14" width="98.5" height="27.1"/>
		<line class="st9" x1="262.3" y1="685.3" x2="163.8" y2="685.3"/>
		<line class="st9" x1="163.8" y1="664.3" x2="244.6" y2="664.3"/>
		<path class="st17" d="M288.9,589.8c0,0-11,13-15.9,13c-4.8,0-11.2-1.7-19.1,6.2c-7.8,7.8-17.8,28.2-17.8,28.2"/>
	</g>
	<g>
		<path class="st3" d="M650.6,490.2c68.5,16.5,153,23.6,234.3-5.3c180.9-64.4,335.2-151.3,335.2-151.3"/>
		<path class="st9" d="M1122.4,399.4c-4.2-25-51-17.5-66-14.1c-20.3,4.5-37.6,21.5-54.2,33c-32.2,22.3-68.8,47-104.8,62.4
			c-74.1,31.8-158.8,13.4-236.8,21.2c-23.1,2.3-32.5,10.5-14.3,26.6c4.9,4.4,61.7,26.2,84.9,29.9c30.1,4.9,53.3,22.2,86,24.7
			c20.6,1.6,40.3-4.8,60.1-9.4c42.1-9.9,92-18.1,129.6-41.2c12.4-7.6,23.5-16.5,35.3-24.7C1076.4,483.9,1130.4,447.5,1122.4,399.4z"
			/>
		<path class="st2" d="M1036.1,361.1c0-5,4.2-9,9.3-9c5.1,0,9.3,4,9.3,9c0,5-4.2,9-9.3,9C1040.2,370.1,1036.1,366.1,1036.1,361.1z"
			/>
		<path class="st0" d="M1053,365.8l-11.6,5.7c-1.5,0.8-3.4,0.1-4.2-1.4l0,0c-0.8-1.5-0.1-3.4,1.4-4.2l11.6-5.7
			c1.5-0.8,3.4-0.1,4.2,1.4l0,0C1055.2,363.1,1054.5,365,1053,365.8z"/>
		<path class="st9" d="M1035.4,392.4c0.9-1.5,0.6-3.3-0.7-4c-1.3-0.8-4.5-1.8-5.5-0.4c-3.2,4.4-8.7,11.4-8.7,11.4s0.3,5,4.1,2.5
			c2.2-1.5,6.6-8.4,6.9-8.2C1032.8,394.4,1034.6,393.8,1035.4,392.4z"/>
		<path class="st2" d="M1040.2,378.7c-4.1-5.9,3.6-15.2,14.6-16.2c11.1-1,20.2,11.6,23.5,13.4c18.2,9.9,14.3,30.1-2.5,44.7
			c-4.9,4.2-27.2,8.8-30.8,1.8c-3.7-7.1,18-16.9,15.3-23.9"/>
		<path class="st0" d="M1056.3,417.2l-8.9,19.5l1.4,12.1c0,0-11.2,4.6-21.1-3.1c-9.9-7.7-9.1-16.4-9.1-16.4l13.6-24.1L1056.3,417.2z
			"/>
		<path class="st0" d="M1068.3,416c8.8-10.9,8.9-28.6-1.2-36.7c-5-4.1-13.6-9.6-19.7-8.8c-6.2,0.9-12.5,14.4-17,19.9
			c-8.8,10.9-6.4,22.4,3.7,30.6c5.5,4.4,13.8,6.5,20.5,5.1C1060.2,424.9,1064.3,421,1068.3,416z"/>
		<path class="st0" d="M1049.4,392c-4.5,1.6-15,3.2-15.1,6c-0.1,3.6,7.6,4.2,8.6,3.9"/>
		<path class="st2" d="M1051,366.8c0.3-3.8-8.8,6.9-8.8,6.9l19.1,1.7l17.1,28.1c0,0,12.1-11.9,8.1-15.9"/>
		<path class="st0" d="M1071.4,405.9c-0.7-0.3,3.8-1.4,4.8,4.6c0.7,4.2-6.5,10.4-10.2,4.4"/>
		<path class="st3" d="M1072.4,411.1l-0.4,0.4l-0.8,0.5l-1.1,0.3l0,0"/>
		<path class="st0" d="M1036.5,384.7c1.4,2.2,4.5,3.2,7.1,3.1"/>
		<path class="st0" d="M1051.8,393.5c2.5,3.8,4.7,4,9,4.3"/>
		<path class="st9" d="M1070,409.6c0.9-1.5,2.6-2,3.9-1.2c1.3,0.8,3.7,3.2,2.9,4.7c-2.4,4.9-6.1,13-6.1,13s-4.6,2-4.1-2.5
			c0.3-2.7,4.4-9.7,4.1-9.9C1069.4,412.9,1069.1,411.1,1070,409.6z"/>
		<path class="st0" d="M932.5,430.5c-32.4,16.9-47.2,18.6-47.2,18.6s0,0,0,0c-0.1-6.4-0.7-45-4.6-55.1c-2-5.1-17.9-15.3-17.9-15.3
			s-3.8-4.7-6.7-7.6c-2.9-2.9-5-1.3-5.2,0.4c-0.3,1.7,4.1,6.5,4.1,6.5s-3.6-3.3-5.6-4.6c-1.6-1.1-4.7-0.3-4,1.9
			c0.6,1.9,3.6,5.3,5.1,6.9c0.5,0.6,0.9,0.9,0.9,0.9s-0.3-0.4-0.9-0.9c-1.5-1.6-4.8-4.8-6.5-5.3c-2.4-0.7-3.6,0.7-2.8,2.9
			c0.8,2.3,5,6.8,5,6.8l10.5,15c0,0,0.5,35.3-0.5,45.7l2.1,12.1c-1.3,0.5-2.6,1-3.8,1.4c-0.9,12.5-1,23.6,1.2,27.1
			c5.9,9.6,58.3,4.4,87.6-13.7c29.3-18.1,46.7-35.4,46.7-35.4l23.3-14.6C1013.4,424.2,964.9,413.6,932.5,430.5z"/>
		<g>
			<path class="st15" d="M851.1,382.9l3.5,3.9l7.1,6.5"/>
			<path class="st15" d="M854.5,377.3l4.6,5.5l6.9,5.5"/>
			<g>
				<path class="st2" d="M856.4,339.9l14.5,0.8c2.5,0.1,4.5,2.1,4.7,4.5l3.9,46.9c0.2,2.7-1.9,5.1-4.7,5.2l-15.5,0.5
					c-2.7,0.1-5-2-5.2-4.6l-2.9-48.2C851.1,342.1,853.4,339.7,856.4,339.9z"/>
				<line class="st16" x1="857.3" y1="339.9" x2="859.5" y2="393.4"/>
			</g>
			<path class="st0" d="M883.4,408.9l-1.7-23.5c0,0-8-8.5-11.3-9.2c-3.3-0.8-3.7,2.2-1.3,4.5c2.4,2.4,4.6,6.6,4.6,6.6l-4.7,10.3"/>
		</g>
		<path class="st0" d="M976.5,425.3c-21,10.7-20.9,22.4-20.9,22.4l-51.7,25.8c0,0-11.3-10.3-28.3-24.6c-15,12.2-35.7,18.1-54.8,17.3
			c0.1,1.9,0.1,3.8-0.1,5.7c1.2,0.4,2.5,0.8,3.6,1.4c-1.2-0.6-2.4-1.1-3.6-1.4c-1,12.5-7.2,22.7-15.7,31.6
			c18.3,15.5,39.9,30.9,61.6,39.7c55.2,22.3,90.5,15.2,90.5,15.2L1067.8,456C1067.8,456,1012.9,406.8,976.5,425.3z"/>
		<path class="st0" d="M975.5,425.3c-21,10.7-20.9,22.4-20.9,22.4l-51.7,25.8c0,0-11.3-10.3-28.3-24.6c-15,12.2-35.7,18.1-54.8,17.3
			c0.1,1.9,0.1,3.8-0.1,5.7c1.2,0.4,2.5,0.8,3.6,1.4c-1.2-0.6-2.4-1.1-3.6-1.4c-1,12.5-7.2,22.7-15.7,31.6
			c18.3,15.5,39.9,30.9,61.6,39.7c55.2,22.3,90.5,15.2,90.5,15.2L1066.8,456C1066.8,456,1011.9,406.8,975.5,425.3z"/>
		<path class="st0" d="M703.4,507.3c-2-8,0-15,7-20c7-4,17-5,22-11c11-9,3-28,14-35c22-15,30,9,43,25c6.3,7.2,19.9,2.2,31.4,5.6
			c0.2-1.8,0.2-3.7,0.1-5.7c-1.8-0.1-3.7-0.2-5.5-0.4c1.8,0.2,3.6,0.3,5.5,0.4c-0.1-1.6-0.2-3.2-0.4-4.9c0.2,1.7,0.4,3.3,0.4,4.9
			c19.1,0.7,39.8-5.1,54.8-17.3c-39.8-33.6-110.9-89.7-140.2-87.4c-41.6,3.2-97.7,248-97.3,250.1c3.2,15.5,14.6-12.1,33.6-25.7
			c19-13.6,19.4-5.4,22.9-13.7c3.5-8.3-5.5-19.2,4.5-31.7c5.9-7.3,11.1-14,15.9-20.3C709.8,517,705.2,513.2,703.4,507.3z"/>
		<path class="st2" d="M789.4,466.3c-13-16-21-40-43-25c-11,7-3,26-14,35c-5,6-15,7-22,11c-7,5-9,12-7,20c1.8,5.9,6.4,9.7,11.7,12.9
			c35.3-46.5,41.3-64.9,41.3-64.9s20.3,24.2,48.7,48.2c8.4-8.9,14.6-19.2,15.7-31.6C809.3,468.5,795.7,473.5,789.4,466.3z"/>
		<path class="st0" d="M980.2,530.2l-69.9-56.9c0,0-204.5-13.3-243.7,18.8c-39.1,32.1,75.4,314.2,77.2,316
			c14,13.2,6.1-22.2,15.5-48.9c9.4-26.7,15.5-18.9,13.2-29.5c-0.2-0.8-0.4-1.6-0.8-2.3c-9.9-3.4-19.9-6.8-29.5-11.1
			c-15-7-12-25-7-39c5-13-10-19-15-30c-6-11,7-21,13-32c7-13-5-23-13-36c-6-10,4-23,16-24c31.8-1.7,68.8,6.9,92.5,29.1
			c30.1,3.2,64.7,4,94.4-2.9C993.6,565.2,980.2,530.2,980.2,530.2z"/>
		<path class="st2" d="M736.4,555.3c-12,1-22,14-16,24c8,13,20,23,13,36c-6,11-19,21-13,32c5,11,20,17,15,30c-5,14-8,32,7,39
			c9.6,4.3,19.5,7.7,29.5,11.1c-3.9-9.1-18-14.4-16.8-32.3c6.4-95.4,0.2-123.9,0.2-123.9s32.5,8.8,73.6,13.2
			C805.1,562.2,768.2,553.6,736.4,555.3z"/>
		<path class="st0" d="M1051.5,449.1c16.9-6.4,53.8-25.3,53.8-25.3l-23-16.8c0,0,2.8-6.2,3-11.5c0.2-5.3,0.6-10.1,0.6-10.1
			s65.1,29.9,62.3,40.8c-2.8,11-82.9,57.7-114.7,70.3c-10.3,4.1-15.2-14.4-15.2-14.4S1040,453.5,1051.5,449.1z"/>
		<path class="st0" d="M1085.4,379.4l4.7,12.1c0.6,1.6-0.2,3.4-1.8,4l0,0c-1.6,0.6-3.4-0.2-4-1.8l-4.7-12.1c-0.6-1.6,0.2-3.4,1.8-4
			l0,0C1083,377,1084.8,377.8,1085.4,379.4z"/>
		<path class="st2" d="M1088.3,382.6c0-5,4.2-9,9.3-9c5.1,0,9.3,4,9.3,9c0,5-4.2,9-9.3,9C1092.4,391.6,1088.3,387.5,1088.3,382.6z"
			/>
		<path class="st9" d="M914,475.6l-54.3-46.8l-41.7,19.6l-45.7,24l58.3,1L858,600.2c0,0,96.3-5.3,112.4-31.9
			c15-24.7,17.3-41.2,17.3-41.2L914,475.6z"/>
		<path class="st9" d="M982,421.7l-22,7.2l-5.6,17.3l73.2,52.9l18.5-21.3l13.2-30.2L1048,441c0,0-23.8,1-29-2c-7-4-8-15-8-15
			l-12.2-3C993.2,419.7,987.4,419.9,982,421.7z"/>
		<path class="st3" d="M831,472.5l62.4-1.9"/>
		<path class="st7" d="M1045.9,440.2l8.9-20c0,0-9-9.1-15.2-6.3c-3.4,1.5-12.8,7-17.1,11.2c-3.6,3.5-8.5,2.9-8.5,2.9l30,12"/>
		<path class="st18" d="M712.7,539.2c4,20.3,29.1,28.4,45.5,33"/>
		<path class="st3" d="M967.2,439.3c0.9-3.1,4-4.9,7.1-4.1c3.1,0.8,4.9,4,4,7.2c-0.8,3.1-4,4.9-7.1,4.1
			C968.2,445.6,966.4,442.4,967.2,439.3z"/>
		<path class="st3" d="M996.7,434.7c0.8-3.1,4.1-4.9,7.3-4c3.2,0.9,5.1,4.1,4.2,7.2c-0.8,3.1-4.1,4.9-7.3,4
			C997.7,441,995.8,437.8,996.7,434.7z"/>
		<path class="st3" d="M994.7,464.8c0.8-2.8,3.9-4.3,7-3.5c3.1,0.9,5,3.8,4.3,6.6c-0.8,2.8-3.9,4.3-7,3.5
			C995.9,470.5,994,467.6,994.7,464.8z"/>
		<path class="st3" d="M1030.9,456.1c0.8-2.9,3.9-4.5,7-3.7c3.1,0.8,4.9,3.9,4.1,6.8c-0.8,2.9-3.9,4.5-7,3.7
			C1032,462,1030.1,459,1030.9,456.1z"/>
		<path class="st3" d="M1021.6,487.6c0.7-2.6,3.5-4,6.3-3.3c2.8,0.8,4.5,3.5,3.8,6c-0.7,2.6-3.5,4-6.3,3.3
			C1022.6,492.9,1020.9,490.2,1021.6,487.6z"/>
		<path class="st3" d="M836,498c16.6-12.5,35.2,5,52.1,4.1c14.8-0.9,15.6-15,31.5-12.8"/>
		<path class="st3" d="M844,535c1-6.8,17.8-4.6,23.1-4.2c13.7,1.1,30.5,6.3,43.6,1.2c7.1-2.7,11.4-8.4,17.6-12.3
			c3.6-2.2,18.7-6.7,20.7-6.1"/>
		<path class="st3" d="M855,586c9.7-14.1,49.8-5.5,64.9-8.9c20.3-4.6,40.1-30.8,50.6-46.1"/>
		<path class="st3" d="M902.9,474.3c23,22.9,78.7,62.8,78.7,62.8"/>
		<path class="st3" d="M839,440.8c0.1-0.5,2.8,2.5,4.3,3.4c4.8,2.8,9.3,4.4,12.9,8.7c8.8,10.7,23.8,17.3,37.3,17.6"/>
		<path class="st3" d="M806.3,455.6c11.2-0.6,12.9,16,24.8,16.9"/>
		<path class="st3" d="M984.6,544c150.8-80.2,255.8-229.8,255.8-229.8"/>
		<path class="st3" d="M636.8,522.5c66.2,36.3,144.8,67,218.2,63.3"/>
		<path class="st3" d="M1231.8,334.4c-8.3-4.7-10.8-19-21.7-20.1c-3-0.3-8.6,0.9-8.4,5c0.3,7.9,15.5,14.3,22.6,13.7
			c3.7-0.3,6.9-3.6,10.3-4.9c1.5-0.6,12.2-2.8,13.2-1.4C1249.6,329.2,1237.2,337.4,1231.8,334.4z"/>
		<path class="st18" d="M1044.1,409.6c1.7,0.3,3.5,0.1,5.2-0.5c0.8-0.3,1.6-0.7,2.5-0.9"/>
		<circle class="st2" cx="1036.9" cy="386.6" r="7.7"/>
		<circle class="st2" cx="1053.6" cy="397" r="7.7"/>
		<line class="st18" x1="1044.2" y1="389.2" x2="1048.1" y2="391.6"/>
		<line class="st18" x1="1061.1" y1="398.7" x2="1073.7" y2="405.1"/>
	</g>
	<g>
		<path class="st10" d="M247.3,838.7l-44.6,120.5c0,0-51.3,4.8-57.9,8c-6.6,3.2,32.3,0.5,32.3,0.5s-23.7,4.7-29.8,8.8
			c-3.1,2.1,43.3,1,43.3,1s-51.2,10.1-28.1,13.8c10.4,1.7,25.1-5.6,36.6-5.8c14-0.2,24.5,5.5,32.9-5.8
			c15.3-20.7,55.7-95.6,60.8-134.5C295.4,826.4,247.3,838.7,247.3,838.7z"/>
		<path class="st10" d="M595.5,741.6c-1.5-1.6-5.7-1.5-5.5-3.7c1-10,7.1-32.3,14.7-39.9c6.1-6.1,0.1,15.5,4.3,14.1
			c6.4-2.1,14.6-16.7,17.2-17.2c4.6-0.9,13.2,2.9,17.8,3.7c1.9,0.3,7.1-1.1,8.6,0c0.5,0.4,0.8,1.2,0.6,1.8
			c-0.8,3.4-13.4,18.6-16,23.4C624.3,747.6,623.2,772.1,595.5,741.6z"/>
		<path class="st10" d="M635.9,971.3l117.1,6.3l21-7.9l-4-73.7l-13.5-28l-20.7,58.7l-91.5-10.9"/>
		<path class="st2" d="M745.6,981.7l30,4.2l7.4-1.8l-6.3-132.5l-6.8-3.5c0,0-14.9-7.7-18.4,22.9c-1.3,10.9,16.7,44.5,16.7,44.5
			l1.4,32.2L745.6,981.7z"/>
		<path class="st2" d="M629.6,754.7c-10.3,36.7-31.5,94.6-77.9,119c-46.4,24.5-86.1-12.9-86.1-12.9l-158.9,32.8l-1.9-69.3
			l-24.4,61.4l-31.3,67.7c0,0-49.5,1.9-52.9-21c-3.4-22.9,32.4-79.1,32.4-79.1s0.8-2.4,2.4-6.6c8.2-22.1,37.6-93.3,80.5-110.2
			c16.8-6.6,28.6-9.4,38.5-10.1c20.2-1.6,32.6,5,63.9,3.9l120.6,65.3l52.3-70.1C586.7,725.5,632.3,744.8,629.6,754.7z"/>
		<path class="st8" d="M322.8,760.3c-10.6,1.8-22.9,3.9-28.9,12.7c-8.7,12.9,2.8,30.7-5.1,36.2c-4.6,3.2-9-2.6-16.2,0.2
			c-8.6,3.3-7.6,13.2-18.4,28.9c-4.8,6.9-11.7,16.9-17.3,15.7c-2.6-0.5-4.5-3.4-5.8-7.2c8.2-22.1,37.6-93.3,80.5-110.2
			c16.8-6.6,28.6-9.4,38.5-10.1C357.8,736.5,341.5,757.1,322.8,760.3z"/>
		<path class="st8" d="M416.9,678.4c8.5-27.4-2.7-48.6-41.8-43.6c-4.6,0.6-10,1.1-14,3.5c-46.2,26.1-37.8,78.1-37.8,78.1l62.2-3.2
			l17-20.9L416.9,678.4z"/>
		<path class="st10" d="M368.8,696.9l0.4,24.1l-15.2,11l43.1,36.2l17.2-32.2l-8-30.8l0.7-10.7L368.8,696.9z"/>
		<path class="st10" d="M363.9,682.5c-1.7-6-1.1-18.1,0.4-23.6c2.7-9.9,5.5-5.6,15.6-8.4c11.3-3.1,16.7-7.6,24.1,1.4
			c2.9,3.5,11.4,16.6,12.7,21.4c4.6,16.9-4.3,34.1-20,38.4c-10,2.8-18.2,1.9-25.6-5.2C367,702.6,365.6,688.6,363.9,682.5z"/>
		<path class="st6" d="M384.7,677.8c-0.8-2.3,1.4-5.1,4.8-6.3c3.4-1.1,6.8-0.1,7.6,2.2c0.8,2.3-1.4,5.1-4.8,6.3
			C388.9,681.1,385.5,680.1,384.7,677.8z"/>
		<path class="st6" d="M407,671.6c-0.8-2.3,1.4-5.1,4.8-6.3c3.4-1.1,6.8-0.1,7.6,2.2c0.8,2.3-1.4,5.1-4.8,6.3
			C411.1,674.9,407.7,673.9,407,671.6z"/>
		<path class="st19" d="M372.3,723.8l-2.5-24.6c0,0,19.9-4.4,24.6,0.8c4.7,5.2-0.3,22.1-0.3,22.1l-11.9,1.8"/>
		<path class="st8" d="M352,680c8,13,12.7-10.5,12.7-10.5l32-7.6L398,650l8.4,13.8l11.4-0.3c0,0-9.1-22.7-11.3-24.9
			c-9.3-8.9-25.3-8.4-35.5,0.1C362.4,646,342.2,662.7,352,680z"/>
		<path class="st10" d="M367,684.3c-2.2-2.7-6.7,0-7.6,2.6c-1.7,5.4,2.4,14.6,10.9,9.1"/>
		<path class="st2" d="M394.9,678.2c-1.6,1.1-3.7,0.8-4.5-0.5c-0.8-1.3-0.2-3.3,1.4-4.3c1.6-1.1,3.7-0.8,4.5,0.5
			C397.2,675.2,396.5,677.1,394.9,678.2z"/>
		<path class="st2" d="M413.4,671.9c-1.1-1.6-0.8-4.3,3.5-5.1c1.5-0.3,1.4,0.5,2.5,2.1c1.1,1.6-0.4,3.4-1.7,4.3
			C416.4,674.1,414.4,673.5,413.4,671.9z"/>
		<path class="st3" d="M364.8,689.6c0.2,0.2,0.3,0.4,0.5,0.6"/>
		<path class="st2" d="M392.9,686.2c2.2,4.6,8.5,3,13,4.6c0,0-3.5,7.7-11.1,3.6C389.9,691.8,392.9,686.2,392.9,686.2z"/>
		<path class="st10" d="M401.6,676c5.9-1,11.1-5.1,12.9-2.2c2.4,3.9-5.4,10.2-6.6,10.4"/>
		<path class="st3" d="M387.2,645.7c-2.8,5.2-2.2,13.5-3.2,19.3"/>
		<path class="st0" d="M673.2,974.4l-4.3-0.2l-199.3-9.4c0,0-69.4,2.6-111.5-6c-12.1-2.5-21.9-5.9-27.2-10.6
			c-23.7-21.1-23.5-67.5-23.5-67.5L431,853.3l16,18l222.7,45.2L673.2,974.4z"/>
		<path class="st2" d="M668.9,974.2l-199.3-9.4c0,0-69.4,2.6-111.5-6c1.9-15.1,6.5-29.1,17-33.9c12.1-5.5,21,6.2,45.5,9.5
			c31.2,4.2,35-12.5,72.4-12.4c31.3,0,58.5,11.6,64.4,14.3c18.4,8.1,19.5,12.9,32.9,15.5c27.2,5.4,39.5-10.9,55.6-4.9
			C656,950.5,664.2,961.7,668.9,974.2z"/>
		<path class="st10" d="M459.6,939.8l-4.4,38.2l12.3,23.1l69.5,1.2l27.2-11.4l-56.7-25.7l10-32"/>
		<path class="st0" d="M535.5,955.4l-87.9-0.4L460,891l-67.6-12.3c0,0,52.2-99.5,85.6-128.4c2.3-2,4.5-3.8,6.7-5.5
			c30-23.1,52.5-20,66.4,3.7c1.4,2.4,2.4,6.3,3.1,11.2C560.4,806.9,535.5,955.4,535.5,955.4z"/>
		<path class="st7" d="M415.9,900.3c0.4,1.5,8.3-0.1,6.8-0.4c-7.8-1.3-15.1-4.8-22.4-7.9c-6.4-2.7-13,1.1-16.4-4.9
			c-12-20.8,11.1-24.4,24.1-29.2c11.7-4.4,36.3-32,49.4-23.1c5.7,3.9-0.3,18.1-1.7,22.6C450.5,874.2,411.6,884.6,415.9,900.3z"/>
		<path class="st2" d="M451.8,970.2l-6.8,29.5l1.1,7.5l132.6,5.1l4.1-6.4c0,0,8.9-14.2-21.2-20.3c-10.7-2.2-47,12.2-47,12.2l-29-1.8
			L451.8,970.2z"/>
		<path class="st3" d="M466.1,838.4l-6.7,53.8"/>
		<path class="st0" d="M458.3,982.4l81.1,15.4"/>
		<path class="st0" d="M755.4,971.7l12.7-68.9"/>
		<path class="st13" d="M318.7,804.9c-2.3,10.1-9.7,16.3-14.4,25.1"/>
		<path class="st13" d="M204.6,928.8c11.4,6.5,16.4,10.4,29.6,11"/>
		<path class="st13" d="M592.8,740.2c8.1,4.1,14.5,10.7,22.1,15.7"/>
		<path class="st2" d="M605.3,718.5c-0.9-2.4,4.1-62.4,7.7-66.2c6-6.5,32,3.2,32.8,5.6c3.3,10-5.6,66.2-10.3,68.3
			C630.7,728.2,607.9,725.3,605.3,718.5z"/>
		<path class="st10" d="M620.9,692.7c-0.1,6.3,6.8,8.4,10.8,21.1c0.9,2.7-19.4,10.6-19.1,12.8c1,8.4,19.7,8.1,19.7,8.1
			s17.1-18.1,22.5-28.3c6.4-11.9-16.4-32.7-17.9-28.9c-1.1,2.9,8,12.8,8,15.3c0,2,3,11,0.9,11c-1.7,0-0.9-3.3-1.2-4.9
			c-0.6-2.8-11.7-19.8-15-15.4c-3.6,4.8,7.7,12,8.2,17.2c0.2,2.2,1,8.8,0,6.8C637.7,707.5,621.2,677.5,620.9,692.7z"/>
		<path class="st19" d="M601.1,723.2c0.4-3.2,31.6-7.8,33.2-8.7c13.2-7.7-4.2,24.1-10,24.7"/>
		<path class="st3" d="M366.9,693.7c3.3,9.9,3,16.9,8.6,25.4c4,6,13.4,9,19.8,9.7c7.1,0.7,13,3,20.3,1.5c18-3.6,34.3-20.1,52.4-21.4
			c26.7-1.9,54.7,9.7,80.9,3.6c14.8-3.5,39.7-43.5,55.9-21.9"/>
		<path class="st3" d="M422.3,686.1c1.4,4.3,12,17,16.3,18.8c6.1,2.6,11.4-2.5,16.8-4.1c8.7-2.5,21.4,1.6,27.5,7.7"/>
		<path class="st13" d="M617.2,661.8c-2.7-1.9-0.9-5.4,1.9-5.1C622.1,657,621.1,664.6,617.2,661.8z"/>
		<path class="st13" d="M616.8,671.1c-0.9-2.8,2.2-5,3.3-2.5C621.2,671.3,617.7,673.9,616.8,671.1z"/>
		<path class="st13" d="M626.5,663.5c-1.5,0.2-1.4-3-0.1-3.8C629.2,658.2,630.7,662.9,626.5,663.5z"/>
		<path class="st3" d="M366.6,693.3c-0.7,0.5-1.3-0.5-1.5-1.3C364.4,689.3,371.7,689.5,366.6,693.3z"/>
		<path class="st3" d="M421.2,685.6c-3.7,0.3,1.8-8.9,0.8-1.8C421.8,685,422,685.5,421.2,685.6z"/>
		<path class="st13" d="M240.1,826.7c5.1,7.6,2.5,18.2,2.2,27.3c-0.3,8.2-12.6,17.4-26.1,20.8"/>
		<path class="st13" d="M309.6,869.1c4.2-8.4,16.7,1.8,20.1,5.7"/>
		<g>
			<path class="st11" d="M478.1,943.1c-3.2,16.2-31.9,46.8-31.9,46.8s-2.9,11.2-19.8,14.4c-1.3,0.3-2.7,0.4-4.3,0.6
				c-2.9,0.3-24.2,6.9-43.3,6.9c-61.5,0-81.2-21.2-81.2-21.2s-3.8-1.2-8.3-2.1c-5-0.9-10.7-1.4-12.8,0.9c-4.8,5.2-6.8,13-8.7,10.5
				c-1.3-1.7-2.9-9.3,2.2-16.6c2.8-4.1,13.6-10,13.6-10l0.7-13.8l-9.3-40.7c0,0,15.4-11.6,20-7.1c4.6,4.5-7.9,19.7-1.5,25.3
				c6.4,5.6,15.6,6.3,15.6,6.3s8.1-7.7,5.5-12.8c-2.6-5-2.8-15.4-2.8-15.4s18.2-7.7,21.3-5.3c3.1,2.4-8.9,15-8.9,15
				s16.7-4.5,17.8,4.6c0.5,3.6-0.3,15.1-0.3,15.1c0.7,0.2,3.2,0.9,10.9,3c5.3,1.5,10,3.6,13.8,5.6c0.9,1,2.3,1.7,3.9,2.3
				c3.7,2.3,5.8,4.1,5.8,4.1l5.5-2.3c0,0-6.5-0.1-11.3-1.8c-1.2-0.7-2.5-1.5-3.9-2.3c-1.1-1.2-1.4-2.6-0.6-4.5
				c3.8-8.3,19.7-8.7,26.1-7.9c7.1,0.9,10.2,6.6,10.2,6.6s16.1-6.7,27.8-11.2c11.8-4.4,11.9,8.2,11.9,8.2l-19.4,11.2
				c0.4-0.1,6.9-2.1,13.7-5C442.5,947.8,481.4,926.9,478.1,943.1z"/>
			<path class="st11" d="M431.7,980c0.6,13.7,4.2,39.1,15.6,48.7c14.7,12.5,18.5-16.3,14.9-25c-6.8-16.3-5.9-13.9-12.6-27.7"/>
			<path class="st11" d="M308.2,942.8c6.7-0.7,12.9,8.3,12.6,14.6c-0.2,4.5-2,8.1-3,12.3"/>
			<path class="st11" d="M364.7,949.7c-1,8.6,16.6,6.2,21.1,5c1.9-0.5,3.9-0.9,5.7-1.5c0,0,2.6-0.4,2.5-0.3c-0.4,0.6-2.5,1.4-3,1.6
				c-2.1,0.8-4.3,1.5-6.4,2.4c-2.6,1.1-5.3,2.1-8,3.1c-2.1,0.8-0.5,7.7-5,10.1"/>
			<path class="st11" d="M409.8,951.8C408,958,411,960,425,954"/>
			<path class="st11" d="M439.1,983.9c-1.2,6,1.5,12.2,2.6,18.3c1.1,5.9,4.3,15.4,8.7,19.6c10.2,9.8,10.3-9.9,10-14.5"/>
			<path class="st9" d="M459.1,963.4l1.1-1.9l2.6-1.5l-0.8,3.2l-1.2,1l-0.9-0.3l0,0"/>
			<path class="st9" d="M469.5,938.7c-0.8,2.1-3.4,8.5-0.2,9.9c1.1,0.5,5.4-0.1,6.1-1.3c0.6-0.9,1.3-4.1,0.6-3.3c-0.9,1-2.7,5-5,3.2
				c-2.3-1.7,2-11.8,4.5-10.8c3.1,1.3-3.2,11.8-5.6,8.7c-3.2-4,9.2-10.5,6.4-3.7c-0.5,1.3-2.1,2.8-3.1,3.9"/>
		</g>
		<path class="st13" d="M350,740.1c17.3,15.8,48.7,44.9,50.6,43.5c5.5-4,12.2-23.5,14.7-29.9"/>
		<path class="st3" d="M340.2,731.3c1.9,1.5,5.4,4.7,9.9,8.8"/>
	</g>
	<g>
		<path class="st3" d="M456.1,641.7c3.4-22.7,7.4-46.7,22.5-64.1c9.9-11.5,23.6-18.8,36-27.6c27.4-19.5,48.8-47.3,60.6-78.8
			c9.5-25.3,12.9-52.3,19.8-78.4c6.9-26.1,18.3-52.3,39.6-68.9c11.8-9.2,26-14.9,40.5-18.7c32.5-8.5,67.3-7.7,99.3,2.2"/>
		<path class="st3" d="M670.3,359.3c-10.8,0.4-19.3,9.4-24.7,18.8c-13.6,23.4-16,51.3-19.6,78.2c-1.3,10-2.9,20-6.9,29.3"/>
		<path class="st3" d="M542.1,458.8c-10.3,24.4-27.2,47.7-51.9,57.2"/>
	</g>
	<g>
		<path class="st5" d="M617.4,332.3l-1.1,0.4l9.7,29.6c-1.9-0.8-4.6-0.1-6.7,1.7c-2.7,2.4-3.4,6-1.6,8c1.8,2,5.5,1.7,8.2-0.7
			c2.6-2.4,3.3-5.8,1.7-7.9L617.4,332.3z"/>
		<path class="st5" d="M571.4,529.2c2.7-3.8,2.6-8.6-0.3-10.6c-2.9-2-7.4-0.6-10.1,3.3c-2.7,3.8-2.6,8.5,0.3,10.6c0,0,0,0,0.1,0
			l21.5,36l1.3-0.8l-20.5-34.4C566.2,533.7,569.3,532.1,571.4,529.2z"/>
		<path class="st5" d="M582.3,374.8l-27.3-11.1l0.2-0.3l-6.2-2.7l-18.5,24.7l6.7,2.8l0.3-0.4l22.8,9.3c-1.4,1.2-2.4,3.3-2.3,5.7
			c0.1,3.6,2.4,6.5,5.1,6.4c2.7-0.1,4.8-3.1,4.7-6.7c-0.1-3.6-2.4-6.5-5.1-6.4c-0.1,0-0.2,0-0.3,0l-23.9-9.7l15.5-21.3l26.3,10.7
			c-1.4,1.2-2.4,3.3-2.3,5.7c0.1,3.6,2.4,6.4,5.1,6.4c2.7-0.1,4.8-3.1,4.7-6.7c-0.1-3.6-2.4-6.5-5.1-6.4
			C582.5,374.8,582.4,374.8,582.3,374.8z"/>
	</g>
	<path class="st3" d="M288.5,751.4c0,0-11.5,13.4-22.1,25.7c-15.3,17.8-35.4,71.2-35.4,71.2"/>
	<path class="st2" d="M554.1,759.7c-4.2,4.4-9.1,7.3-12.6,6.5c-6.8-1.4-5.6-15.6-14.7-18.7c-8.5-2.9-14.4,8.1-25.3,7.1
		c-6.3-0.6-12.6-4.8-16.9-9.9c30-23.1,52.5-20,66.4,3.7C552.4,751,553.4,754.8,554.1,759.7z"/>
	<path class="st2" d="M426.4,1004.3c-1.3,0.3-2.7,0.4-4.3,0.6c-2.9,0.3-24.2,6.9-43.3,6.9c-61.5,0-81.2-21.2-81.2-21.2
		s-3.8-1.2-8.3-2.1c-0.2-3.9,0.4-7.3,2.5-8.6c5.4-3.5,20.4,7.8,24.2,10.7c4.4,3.3,4.5,4.1,7.1,5.1c7.7,2.9,12.4-2.3,21.1-0.7
		c6.3,1.2,5.8,4.3,12,6.2c8.6,2.6,13.9-2,28-6c13.1-3.7,22.5-6.4,30.4-2.7C419.3,994.7,423.6,999.2,426.4,1004.3z"/>
	<path class="st2" d="M612.2,943c-1.9,4.3-13.1,4.3-20.4,0.3c-2-1.1-5.7-3.1-5.7-5.7c0.1-4.2,10.1-9.8,18-6.6
		C609.4,933.2,613.7,939.6,612.2,943z"/>
	<path class="st2" d="M413.3,928.3c-3.7,0.3-6.6-4.8-5.6-7c1.2-2.7,8.7-2.8,10.1,0C418.9,923.5,416.7,928,413.3,928.3z"/>
	<path class="st2" d="M515,761.7c-0.4-2.6,2.2-5.3,5.1-5.8c3.3-0.5,7,2.2,6.9,5.1c-0.1,2.2-2.4,4-4.5,4.5
		C519.4,766.2,515.4,764.5,515,761.7z"/>
	<path class="st2" d="M720.4,606.7c1-7.1-9.9-14.9-15.8-12.4c-6.1,2.6-7.6,16.5-1.8,20.4C708.1,618.3,719.4,613.4,720.4,606.7z"/>
	<path class="st2" d="M725.7,674.1c-0.7-1.7,1.5-4,2.7-3.8c1.4,0.2,2.4,3.8,1.1,4.9C728.6,675.9,726.3,675.4,725.7,674.1z"/>
	<path class="st16" d="M1050,455.8c-0.5,1.1-1,2.3-1.3,3.5c-0.3,1-0.6,2-1.1,2.9c-0.6,0.8-1.4,1.5-2.3,2c-2.2,1.5-4.5,2.7-6.9,3.8"
		/>
	<path class="st3" d="M1044.7,470c-3,2.4-6.7,3.7-10.4,4.3c-3.7,0.7-7.5,0.7-11.3,0.8"/>
	<path class="st3" d="M980.4,456.1c0.2,1.5-2.2,4.7-3.5,5.4"/>
	<path class="st3" d="M540.4,792.5c-1.2,34-4.2,68-8.9,101.7"/>
	<path class="st3" d="M531.2,796.1c0.4,6.5,0.6,13,0.5,19.6"/>
	<path class="st3" d="M452.2,869.8c0.5-11.4,2.3-22.8,5.5-33.9"/>
	<path class="st3" d="M615.7,913.2c13.7,2.1,27.5,3.8,41.3,4.9"/>
	<path class="st3" d="M637.4,921.8c7,1,13.9,1.7,21,2.2"/>
	<path class="st3" d="M320.4,887.1c-0.6,2.2-0.9,4.4-0.9,6.6c0,1.1,0.1,2.3,0.7,3.3c0.9,1.5,2.9,2.1,4.7,2.3c2.5,0.2,5-0.1,7.5-0.1
		c2.5,0,5.1,0.5,7.1,2c2,1.5,3,4.4,1.9,6.6c-0.6,1.1-1.6,1.9-1.9,3.1c-0.5,1.7,0.6,3.6,2.2,4.4c1.6,0.9,3.4,1,5.2,1.1
		c1.9,0.1,3.8,0.2,5.7,0.4c1.1,0.1,2.2,0.1,3.2,0.6c2.6,1.2,3.5,4.3,4.1,7"/>
	<path class="st3" d="M349.6,904.4c5.1,3.6,12.3,2.4,17.5,5.8c2.2,1.4,3.9,3.6,4.8,6.1"/>
	<path class="st3" d="M767.1,544.2c9.8-1.5,19.8,0.2,29.1,3.5c9.3,3.3,18,8.1,26.6,13.1"/>
	<path class="st3" d="M809,543c6.6,3.6,13.5,6.5,20.7,8.7c4.4,1.3,9.1,2.4,12.8,5.1"/>
	<path class="st3" d="M706.3,644.1c-1.2,3.7,0.4,8.1,3.7,10.2c1.2,0.7,2.6,1.2,3.6,2.2c2.3,2.2,1.5,6,0.8,9
		c-1.4,5.6-2.5,11.4-1.3,17.1"/>
	<path class="st3" d="M718.7,673.4c-1.2,4.8,1,9.7,2.1,14.6c1.1,5,0.8,10.3,1.1,15.4c0.3,5.1,1.2,10.5,4.3,14.6
		c4.5,6,18.4,14,25.8,14.9"/>
	<path class="st3" d="M730,730c1.9,3,10.7,6,14.1,7c4,1.1,8.2,1.8,12.3,1.9"/>
	<path class="st3" d="M941,494c3.1-3.3,4.6-4.1,8.4-6.6"/>
	<path class="st3" d="M946,498c2.6-2.2,4.2-3.5,7.5-4.4"/>
	<path class="st3" d="M1009.2,489.2c-2.7,2.5-5.8,4.7-9,6.5"/>
	<path class="st3" d="M1014.2,489.3c-4.8,7-12.9,10.9-20.5,14.6c-7.6,3.8-15.8,4.4-19.6,12"/>
	<path class="st3" d="M979,521c3.5-2.8,5.7-4.3,10.1-5.5"/>
	<path class="st3" d="M1105.5,424.5c2.1-0.3,4.1-0.4,6.2-0.3"/>
	<path class="st3" d="M1089.6,407.2c4.8,3.1,9.7,6,14.7,8.8"/>
	<path class="st3" d="M1085.8,441c7-5.1,14.5-10.3,23-11.3c0.9-0.1,1.9-0.1,2.6,0.4c1,0.8,0.6,2.7-0.6,3.2c-1.2,0.6-2.7-0.1-3.4-1.2
		c-0.7-1.1-0.6-2.6-0.1-3.8c0.1-0.3,0.3-0.6,0.6-0.8c0.4-0.4,1.1-0.4,1.6-0.4c3-0.1,6-0.9,8.4-2.7s4-4.7,3.9-7.7"/>
	<path class="st3" d="M728.8,449.8c1.6-7.3,7.1-13.4,13.9-16.6c6.8-3.2,14.6-3.7,21.9-2.4"/>
	<path class="st3" d="M762.8,420c8.8-0.3,17.6,3.6,23.4,10.2c3.3,3.8,5.7,8.4,9,12.2c0.4,0.5,0.9,0.9,1.5,1.1
		c0.9,0.3,1.8-0.1,2.6-0.4c5.7-2.3,11.4-4.7,17.1-7"/>
	<path class="st3" d="M777.8,438.4c3.9,4.7,6.9,10.2,9,15.9"/>
	<path class="st3" d="M730,456.5c-0.1,2.6-2.2,4.7-4.4,6.1c-2.2,1.4-4.7,2.6-6.2,4.7"/>
	<path class="st1" d="M899.1,680.8c-4.1-6,13.7-33.2,29.6-29.6c5.8,1.3,12.2,6.9,11.9,12.4C939.7,676.2,903.6,687.3,899.1,680.8z"/>
</g>
<path class="st3" d="M360,664c-6,10,3.7,14.4,4,18"/>
</svg>
