<?xml version="1.0" encoding="utf-8"?>
<!-- Generator: Adobe Illustrator 24.0.3, SVG Export Plug-In . SVG Version: 6.00 Build 0)  -->
<svg version="1.1" id="Layer_1" xmlns="http://www.w3.org/2000/svg" xmlns:xlink="http://www.w3.org/1999/xlink" x="0px" y="0px"
	 viewBox="0 0 957 977" style="enable-background:new 0 0 957 977;" xml:space="preserve">
<style type="text/css">
	.st0{fill-rule:evenodd;clip-rule:evenodd;fill:#1DB954;}
	
		.st1{fill-rule:evenodd;clip-rule:evenodd;fill:#FAF6EB;stroke:#1C2628;stroke-width:2.13;stroke-linecap:round;stroke-linejoin:round;}
	
		.st2{fill-rule:evenodd;clip-rule:evenodd;fill:#1C2628;stroke:#1C2628;stroke-width:2.13;stroke-linecap:round;stroke-linejoin:round;}
	
		.st3{fill-rule:evenodd;clip-rule:evenodd;fill:#F45B49;stroke:#1C2628;stroke-width:2.13;stroke-linecap:round;stroke-linejoin:round;}
	
		.st4{fill-rule:evenodd;clip-rule:evenodd;fill:#FAFCFF;stroke:#1C2628;stroke-width:2.13;stroke-linecap:round;stroke-linejoin:round;}
	.st5{fill-rule:evenodd;clip-rule:evenodd;fill:#FB564C;}
	.st6{fill:none;stroke:#1C2628;stroke-width:2.13;stroke-linecap:round;stroke-linejoin:round;}
	.st7{fill:none;stroke:#FAF6EB;stroke-width:2.13;stroke-linecap:round;stroke-linejoin:round;}
	.st8{fill:#FAF6EB;stroke:#1C2628;stroke-width:2.13;stroke-linecap:round;stroke-linejoin:round;}
	.st9{fill-rule:evenodd;clip-rule:evenodd;fill:#FAF6EB;}
	.st10{fill:#1C2628;stroke:#1C2628;stroke-width:2.13;stroke-linecap:round;stroke-linejoin:round;}
</style>
<g>
	<g>
		<path class="st0" d="M381.2,639.8c-56.4-74.8,6.1-154.4,63.4-206.1C573.9,263.1,291,455,204,397.8
			C65.8,283,354.8,119.7,387.6,106.6C499.3,62,628.8,31.3,696.2,140.4c0.1,0.2,0.2,0.4,0.3,0.6c32.5,66.5-86,88-45.9,136.1
			c32.5,39,132.8-21.5,132.8,69.4C796.6,438.6,459.6,681.3,381.2,639.8z"/>
		<path class="st1" d="M548.7,66c-35.4,1.2-72.7,9.8-109.5,21.8c7.9,5.1,17.4,8.1,26.8,9.7c20.8,2.2,40.5,1.1,59.2-8.8
			C535.1,82.9,542.7,75,548.7,66z"/>
		<path class="st2" d="M580.9,121.6c-31.4,0-47.9,28.9-43.8,56.6c37.4-20.3,73.2-11.9,112.7-20.2c16-3.4,31.7-9.3,46.7-17
			c-0.1-0.2-0.2-0.4-0.3-0.6c-10.2-16.4-21.7-29.7-34.4-40.2c-9.9,7.7-19.7,16-30.5,22.5C616,132.5,598.5,121.6,580.9,121.6z"/>
		<path class="st2" d="M437.4,156.6c1.1-9.9-8.8-17.5-17.5-17.5c-11-0.5-23.2-2.8-35.1-3.6c0,10.6,1.1,23,8.9,34.1
			c7.5,10.8,14.2,10.4,17.4,19.7C425.1,183.3,435.4,173.3,437.4,156.6z"/>
		<path class="st1" d="M548.7,66c-5.9,9.1-13.5,16.9-23.6,22.7c-18.6,9.9-38.3,11-59.2,8.8c-9.3-1.6-18.9-4.6-26.8-9.7
			c-17.4,5.7-34.7,12.1-51.6,18.8c-1.5,8.3-2.4,15.9-2.6,22.1c-0.1,2.1-0.1,4.4-0.1,6.7c11.9,0.8,24.1,3.1,35.1,3.6
			c8.8,0,18.6,7.7,17.5,17.5c-2.1,16.6-12.4,26.6-26.3,32.7c0,0.1,0.1,0.2,0.1,0.3c5,15.2-16.7,72.4,58.7,76.8
			c8.1-25.1,23.7-58.7,55.7-81.1c3.8-2.7,7.6-5,11.4-7.1c-4.1-27.7,12.4-56.6,43.8-56.6c17.5,0,35.1,11,50.4,1.1
			c10.8-6.5,20.6-14.8,30.5-22.5C629.8,73.7,590.7,64.6,548.7,66z"/>
		<g>
			<g>
				<g>
					<path class="st1" d="M372.6,357.8c9.9-24.8,13-52.7,35.3-70.1c17.2-13.4,49.4-27,71.8-22.5c23,4.6,27,39.9,18.7,57.4
						c-5.6,11.6-16.5,18.7-27.2,25.1"/>
					<path class="st3" d="M449.3,281.9l-0.4,25.7l6.5,7.6c0,0,46.4,162.5,36.2,168.5c-5.7,3.4-98.3,24.6-107.2,21.8
						c-8.4-2.7,23.6-166.2,19.4-167.2c-7.7-2,4.6-18,4.6-18l0.8-29.5l-0.7-11.5L449.3,281.9z"/>
					<path class="st2" d="M376.9,365.8l-2.4,40.1l114.2,0.6l12.8-47.4L376.9,365.8z"/>
					<path class="st3" d="M313.4,383.4l-62.7,58.7l-99.9,46.3c0,0-24.3,21.2-24.3,32.5c0,11.3,17.7,22.6,17.7,22.6s3.5,1.1,3.5-8.1
						c0.1-9.1-6.7-15.2-6.7-15.2l27.2-16.4c0,0-7.9,22.7-4.9,28.8c3,6.1,11.2,2.6,11.2,2.6l15.4-25.1c0,0,45.4-5.5,88.9-29.6
						s85.2-66.9,85.2-66.9"/>
					<path class="st3" d="M158.1,887.3c13.3-17.4,1.8-57.7,29.6-54l45.5-65.1l-65.8-8.1c0,0-13.8,26.3-27.9,56.1
						c-3.2,6.7-13.9,14.6-16,21.3c-2.3,7.6,3,13.5,2.2,20.5c-3,26.3-3.4,47.6-3.4,47.6s5,3.1,8.9,2.2c4-1,6.9-6,6.9-6
						s0.7,1.2,1.7,2.6c0.1-1.2,0.3-2.5,0.6-3.8C142.8,891.7,153.7,891.7,158.1,887.3z"/>
					<path class="st2" d="M158.1,887.3c-4.4,4.4-15.3,4.4-17.5,13.1c-0.3,1.3-0.5,2.6-0.6,3.8c1.7,2.3,4.3,5.2,6.8,5.1
						c9.3-0.5,12.8-5.9,12.8-5.9s0.6,5.2,6.6,5.4c6,0.3,17.4-4.5,17.4-4.5l-4.6-12.9l-5.3-38.2l14-20.1
						C159.9,829.6,171.4,869.9,158.1,887.3z"/>
					<path class="st3" d="M508.6,890.6c-1.1-17.5,13.1-34-1.1-53.7c-4.7-7.1,0.8-12.5,7.9-14.1l-19.2-51.4l-45,20.8l34.6,81.9
						l-21,40.9l-0.4,0.8c0,0-3.8,5,11.1,6.1l8.2-4.6c0,0-2.2,6,7.8,7.4c2.8,0.4,5.4-4.7,12-5.7c0,0,2.9,9.3,8.4,6.8
						C523.1,913.9,508.6,901.2,508.6,890.6z"/>
					<path class="st2" d="M528.9,857.5c-2.9-7.3-5.5-13.3-5.5-13.3l-8-21.5c-7.1,1.6-12.6,7-7.9,14.1c14.2,19.7,0,36.1,1.1,53.7
						c0,10.6,14.5,23.3,3.3,35.1c1-0.4,2-1.2,3.1-2.5c4.6-5.2,10.8-49.3,10.8-49.3S533,867.8,528.9,857.5z"/>
					<path class="st2" d="M398,262.1c-9.1-29.2,2.9-51.8,44.6-46.5c4.9,0.6,10.6,1.2,14.9,3.7C477.3,230.8,476,247,476,247
						s31.1,30.9,10,42.6c-21.1,11.8-61.3,14.8-83.2,7.9C380.7,290.6,398,262.1,398,262.1z"/>
					<path class="st3" d="M454.5,266.5c1.8-6.4,1.1-19.3-0.4-25.1c-2.9-10.6-4.9-9.9-15.7-12.8c-12.1-3.3-18.9-4.2-26.7,5.4
						c-3,3.7-12.1,17.7-13.5,22.8c-5,18,4.6,36.4,21.3,41c10.7,2.9,19.5,2,27.3-5.5C451.2,287.9,452.7,273,454.5,266.5z"/>
					<path class="st4" d="M430.3,264.9c0.8-2.5-1.5-5.5-5.1-6.7c-3.7-1.2-7.3-0.2-8.1,2.3c-0.8,2.5,1.5,5.5,5.1,6.7
						S429.4,267.4,430.3,264.9z"/>
					<path class="st4" d="M408.6,254.9c0.8-2.5-1.5-5.5-5.1-6.7c-3.7-1.2-7.3-0.1-8.1,2.3c-0.8,2.5,1.5,5.5,5.1,6.7
						C404.1,258.4,407.7,257.4,408.6,254.9z"/>
					<path class="st5" d="M445.5,310.6l2.6-26.3c0,0-21.2-4.7-26.2,0.8c-5.1,5.5,0.3,23.5,0.3,23.5l12.7,1.9"/>
					<path class="st3" d="M451.1,268.4c2.4-2.9,7.2,0,8.1,2.8c1.9,5.8-2.5,15.5-11.6,9.7"/>
					<path class="st2" d="M418.8,265.9c1.8,1.1,3.9,0.9,4.8-0.5s0.2-3.5-1.5-4.6c-1.8-1.1-3.9-0.9-4.8,0.5
						C416.4,262.8,417.1,264.8,418.8,265.9z"/>
					<path class="st2" d="M401.7,255.2c1.2-1.7,0.8-4.6-3.8-5.4c-1.7-0.3-1.5,0.5-2.7,2.2s0.4,3.7,1.8,4.6
						C398.5,257.6,400.6,256.9,401.7,255.2z"/>
					<path class="st6" d="M453.5,274.1c-0.2,0.2-0.3,0.4-0.5,0.6"/>
					<path class="st2" d="M428.2,274.3c-2.3,5-9.1,3.2-13.9,4.9c0,0,3.8,8.2,11.8,3.9C431.4,280.3,428.2,274.3,428.2,274.3z"/>
					<path class="st2" d="M413,254l27.6,8.5c0,0-9,10.5-16.4,8.6C411.3,267.7,413,254,413,254z"/>
					<path class="st2" d="M387,247.2l26.2,6.9c0,0-6.1,12-18.6,7.9C382.1,257.9,387,247.2,387,247.2z"/>
					<path class="st3" d="M411.3,258.6c0,0-13.8,9.3-13.1,11.4c2.6,8.2,9.5,2,10.7,2.3"/>
					<path class="st2" d="M545.6,804.1c-16.3,6-33.3,10-50.5,14.2c-12.8,3.1-25.6,6.1-38.2,10.1c-4.3,1.3-10.8,5.6-13.4,1.9
						c-28-39.8-51.9-82.4-73.8-125.8c-1.8-3.5-2.5-8.3-2.5-13.9c0.1-31.5,24.3-90.3,27.8-110.4c-32.4,57.2-25.2,50.2-65.1,99.9
						c-19.7,24.6-113,150.5-113,150.5l-89.7-57.8l0.7-0.8l91.8-106.5c0,0,77-119.6,107.1-161.4c1.1-1.5,2.1-3,3.1-4.3
						c45.4-61.5,36.3-40.6,100.8-36.4c21.7,1.4,64.2-9.2,88.5,7c44.8,29.9-24,126.4-31,157.5C475.6,684.5,519.3,756.7,545.6,804.1z"
						/>
					<path class="st3" d="M636.2,242.6C623.7,207.9,489,203.1,489,203.1l-28.3-23.8c0,0-33.1,13.1-36.7,17.5
						c-3.7,4.4,31.2,0.6,31.2,0.6s7.1,30,19.3,35.4c6.2,2.7,11.3-3.3,19.6-0.7c30.9,9.7,72.8,26.6,72.8,26.6L488,324.2l53.5,35.4
						C541.5,359.6,648.7,277.3,636.2,242.6z"/>
					<path class="st1" d="M528.1,384.7c0,0,8.9,79.2,17,116.4c0.3,1.5,0.6,2.9,1,4.2c-35.5-9.2-65-12-101-5.1
						c-1.1-33.7-0.5-160.2-0.5-160.2l13.7-27.6l67.4-27.2c0,0,26.4,38.2,44,59c-0.4,0.3-0.7,0.7-1.1,1
						C551.1,361.4,528.1,384.7,528.1,384.7z"/>
					<path class="st2" d="M528.1,384.7c0,0,8.9,79.2,17,116.4c-12.1-4-24.8-13.7-28.2-24.8c-2.6-8.4,2-11.5-0.5-25.3
						c-2-11.4-5.8-13.4-12.7-30.7c-6.3-15.9-9.4-23.8-7.8-29.2c3.5-11.5,15.8-9.5,38.5-29.7c7.4-6.6,8.5-8.9,14.1-11.7
						c5.9-2.9,13.3-4.6,19.9-4.5C551.1,361.4,528.1,384.7,528.1,384.7z"/>
					<path class="st1" d="M405.4,494.2c0.3,6.3,0.8,12,1.1,18c-2.7,0.5-5.6,0.8-8.6,0.9c-12.2,0.6-22.1,0.5-30.2,0.1
						c-28.7-1.6-34.7-7.8-34.7-7.8l12.3-48.4l5.7-22.3l-7.4,2.7l-47.2-44.5c0,0,28.8-39.8,55.5-59s51.3-17.7,51.3-17.7
						c0.6,2.6,16.1,23,16.1,23S404.7,480.9,405.4,494.2z"/>
					<path class="st1" d="M500.9,288.7c2.4,33.3-10.3,46.3-26.2,62.2c-4,4-26.6,22.3-26.6,27"/>
					<path class="st1" d="M410.1,376.8l0.1,0.4c0-0.1-0.1-0.2-0.1-0.3c-6.4-14.2-21.3-33.5-22.5-51.5c-0.4-5.8,0.7-11.4,3.8-16.7"/>
					<path class="st2" d="M420.5,224c22.8-2.3,4.3,29.4,31.5,29.4c0.8,0,10.2-1.5,10.1-2.5c-0.1-1.2-2.4-1.1-3.2-1.9
						c-2.1-2.1-2.7-4.4-3.2-7.2c-0.7-3.4,2.3-10.5-0.6-13.1c-4.7-4.3-14.5-0.3-19.9,0.2"/>
					<path class="st1" d="M165,507.4l-22.2,4.3c0,0-7.1,12.9-1.3,18s22.7,6.1,22.7,6.1l16.1-10.8l-7.6-8.7L165,507.4z"/>
					<path class="st2" d="M151,518.6c0-11.1,9-20,20.2-20c11.1,0,20.2,9,20.2,20c0,11.1-9,20-20.2,20S151,529.7,151,518.6z"/>
					<path class="st7" d="M162.7,742.2C208,715,177,765,170.5,762.4c-21.6-8.8,70.8-48.7,37.5-4.4"/>
					<path class="st7" d="M257.3,664c36.5-29.5,47.2-8,16,12.9c-0.8,0.5-1.8-0.4-1.2-1.2c10.6-14.7,61.8-33.9,36.6-0.2"/>
					<path class="st7" d="M307.3,550.7c38.1-30.7,26,13.4,1.8,15.5c-3.9-10.9,58.9-32,31.6-8.6"/>
					<path class="st7" d="M405.2,547.2c27.5-37.7,48.9-9.9,20.9,8.3c-2.6,1.7-5.4-2-3-4c17.1-13.8,51-26.4,34,6.5"/>
					<path class="st7" d="M386.7,665.7c31-25.6,33.1,0.9,15.4,16.2c-1.7,1.5-4.2-0.9-2.7-2.6c8.1-9.8,32.5-19.1,28.8,0.3"/>
					<path class="st7" d="M493.9,530.5c2.3-7.4,27.8-18.8,30.6-12.1c-0.9,3.7-14.2,23.7-19.6,18c-3.2-3.4,14.1-18.5,15.6-6.1"/>
					<path class="st7" d="M423.3,766.4c22.7-32.2,59.4-20.3,23.8,7.5c3.1-9,30.5-29.2,27.1-5.6"/>
					<path class="st7" d="M493.9,626.6c-2.9,14-13.6,16.4-20.7,28.8"/>
					<path class="st7" d="M472.2,602.5c-10.5,18.6-42.8,74.3,3.8,58.1c1.7,1.9,2,4.2,1.5,6.7c-1.5,23.9,18.1,43.1,12.8,68.9"/>
					<path class="st7" d="M217,793.1c20.4-30.3,15.3-22.7,37-52.1"/>
					<path class="st7" d="M247.9,762.9c19.5-17.2,22.7-72.2,46.9-62.9c10.2,3.9-4.6,14.1-5.5,15.1c-15.5,12.3,16.4-35,31.4-30.9"/>
					<path class="st7" d="M354,627c12-13,31-46.9,39-61"/>
					<path class="st7" d="M391.7,539.6c4.8,12.7-0.4,26.4,2.3,39.6"/>
					<path class="st6" d="M566,259c4.6-2.6,12.3-7.4,19-11.2"/>
					<path class="st6" d="M251,442c-1.8,4.2,1.7,8.6,1.7,13.1"/>
					<path class="st6" d="M253.2,477.7c15.3-5.1,28.4-15.5,41.9-24.4c9.4-6.1,19-15.4,27.1-23.5"/>
					<path class="st6" d="M293.8,460.1c11.1-4.8,20.6-12.6,30.2-19.9"/>
					<path class="st6" d="M555.9,311.7c5.8-4,11.6-8,18-10.8c6-2.7,0.8,4.4,5,0.5c4.6-4.3,7.8-9.2,13.1-12.6
						c4.7-3.1,9.1-3.1,13.5-7.2c7-6.5,12.2-14.9,18.9-21.7"/>
					<path class="st6" d="M573.5,316.2c6.1-5.1,12-10.2,18-15.3"/>
					<path class="st6" d="M527.1,382.6c-3.6,4.6-12.2-21-6.2-14.7c1.3,1.4,2.3,3,3.2,4.6c1.1,2,2.3,4.1,3,6.4
						C527.4,380,527.9,381.6,527.1,382.6z"/>
					<path class="st6" d="M350.6,434.2c1.3-7.3,4.4-14.3,8-20.9c1-1.8,2.9-3.7,4.9-3.5c1.3,0.1,0.3,2.7,0,3.9
						c-1.3,4.1-3.2,7.9-4.8,11.9"/>
					<path class="st6" d="M388.7,387.9c-0.1-0.4-0.3-1.4-0.2-1.1c2.2,5.8,5.1,11.3,6.4,17.4c0.2,1.1-2.3,6.4-3.1,7.9
						c-11.8,21.3-5.6,42.4-0.2,65.3"/>
					<path class="st6" d="M395.2,450.4c0.4-8.4,0.9-16.9,2-25.2"/>
					<path class="st6" d="M464.9,386.9c1.6,16.2-1.1,32.7-3,48.8"/>
				</g>
			</g>
		</g>
		<path class="st2" d="M367.7,513.2c-28.7-1.6-34.7-7.8-34.7-7.8l12.3-48.4c4.4,0,8.2,1.2,10.1,3.6c3.5,4.3,1.1,12.6-1.6,22.4
			c-3.2,11.3-7.1,16.4-4.9,18.8c3.1,3.5,13.4-4.3,17.9-0.3C369.2,503.5,369.4,508.7,367.7,513.2z"/>
		<path class="st2" d="M410,376.9c-0.6,3.7-1.9,6.6-3.9,7.2c-2.6,0.8-3.9-3-11.9-7.1c-7.6-3.9-12.7-3.6-13.6-7.1
			c-0.7-2.4,1.7-3.4,2-6.3c0.7-7.3-13-10.1-18.3-20c-5.5-10.4,16.7-25.7,23.3-18.3C388.7,343.4,403.7,362.7,410,376.9z"/>
		<path class="st0" d="M413.4,113.1c-9.3,5.3-14.4,15.6-12.6,25.3c2.1,11.8,13.9,20.8,27.4,19.5C423.3,142.9,418.4,128,413.4,113.1z
			"/>
		<circle class="st5" cx="606.3" cy="97" r="14.8"/>
		<g>
			<path class="st8" d="M586.3,56.3l15.2-31.7l1.6,32.7l29.6-2.1l-27.4,16.5l4.1,23.3l-17.2-17.7l-13.9,29.6l1.4-33.2l-26,8.8
				l23.8-18.4l-27.1-29.6L586.3,56.3z"/>
			<path class="st6" d="M487.4,137.8l11.7-6.8l-6.6,10.8l9.9,5.7l-12.3-0.7l-3.8,8.3l-1.7-9.4l-10.9,6.4l7.6-10.3l-10.2-2.8
				l11.6-0.7l-2.2-15.3L487.4,137.8z"/>
		</g>
		<path class="st9" d="M300,581.2c-13.9,11.5-19.6,12.9-27.3,24c-5.2,7.5-6.7,12.8-15.6,37c-8.1,22.2-12.1,33.2-13.3,35.3
			c-12.6,21.5-26.5,17.7-47.7,38c-27.2,26.1-20.3,48.1-40.2,55.8c-8.2,3.2-18.4,3-27.8,0.5l91.8-106.5c0,0,77-119.6,107.1-161.4
			c7.3,5.6,12.8,13.7,13.9,21.4C343.6,545.1,317.7,566.6,300,581.2z"/>
		<polyline class="st6" points="299.7,543.7 219.8,665.5 148.1,748.6 		"/>
		<path class="st9" d="M495.2,818.2c-12.8,3.1-25.4,6.8-38,10.8c-3.3,1.6-9.3,4.4-14.1,4.2c-25.8-40.8-51.5-85.3-73.4-128.7
			c-1.8-3.5-2.5-8.3-2.5-13.9c2.5-0.7,5.2-1,7.9-0.4c13,2.6,19.8,22,22.9,30.7c4.8,13.6,1.3,13.9,4.9,21.4
			c10.9,22.7,42.8,19,47.7,38c2.3,8.8-3.8,12.6,0,18.5c7.1,11.2,30.6,0.6,40.9,12.7C493.3,813.3,494.4,815.7,495.2,818.2z"/>
		<polyline class="st6" points="382.6,729.3 443.6,834.7 466,827.1 		"/>
		<g>
			<g>
				<path class="st10" d="M63,359.5l-1.4,0.1c-7.8,0.5-9.9-0.5-11.7-2c-0.1,0-0.1,0-0.2-0.1l-4.9-6.6c2.1,0.6,4.9,0.8,9.3,0.4
					l1.5-0.1c5.7-0.5,15.2-1.3,17.4,6.4c0.2,0.6,0.8,0.9,1.3,0.7c0.1,0,0.1,0,0.2-0.1c0.5-0.2,0.7-0.8,0.6-1.3
					c-2.7-9.4-13.8-8.5-19.7-7.9l-1.4,0.1c-7.8,0.6-9.8-0.5-11.7-2c-0.1-0.1-0.2,0-0.3-0.1l-5.2-7c2.1,0.6,4.8,0.7,9.2,0.4l1.5-0.1
					c5.7-0.5,15.2-1.3,17.4,6.4c0.2,0.6,0.8,0.9,1.3,0.7c0,0,0.1,0,0.1-0.1c0.5-0.2,0.7-0.8,0.6-1.3c-2.7-9.4-13.7-8.5-19.6-8
					l-1.4,0.1c-7.8,0.6-9.8-0.5-11.7-2h-0.1l-4.7-6.3c2,0.5,4.8,0.7,9,0.4l1.5-0.1c5.7-0.5,15.2-1.3,17.4,6.4
					c0.2,0.6,0.8,0.9,1.3,0.7c0,0,0.1,0,0.1-0.1c0.5-0.2,0.7-0.8,0.6-1.3c-2.7-9.4-13.7-8.4-19.7-7.9l-1.5,0.1
					c-7.8,0.6-9.8-0.5-11.7-2h-0.1c-0.2-0.1-0.3-0.2-0.5-0.2c-0.1,0-0.2,0-0.3,0.1c-0.1,0-0.2,0-0.4,0.1c-0.1,0-0.1,0.1-0.1,0.2
					c0,0-0.1,0-0.1,0.1s0,0.1-0.1,0.2s-0.1,0.3-0.1,0.4c0,0.2,0,0.3,0.1,0.4c0,0.1,0,0.1,0,0.2L68.2,386c-3.8-0.2-8.1,2.5-10.7,7
					c-3.3,5.9-2.4,12.6,2,15.1s10.6-0.3,13.9-6.1c3.2-5.7,2.4-12.3-1.7-14.8l-19.2-25.8c2.1,0.6,4.8,0.7,9.3,0.4l1.5-0.1
					c5.7-0.5,15.2-1.3,17.5,6.4c0.2,0.6,0.8,0.9,1.3,0.7c0,0,0.1,0,0.1-0.1c0.5-0.2,0.7-0.8,0.6-1.3C79.9,358,68.9,359,63,359.5z"/>
				<path class="st10" d="M242,259.2l-1.4-0.2c-8.2-1-10.1-2.6-11.8-4.5c-0.1-0.1-0.2-0.1-0.2-0.1l-4-8.3c2,1,4.9,1.8,9.5,2.3
					l1.5,0.2c6,0.6,16.1,1.7,16.8,10.2c0.1,0.6,0.6,1.1,1.2,1c0.1,0,0.3,0,0.4-0.1c0.4-0.2,0.7-0.6,0.7-1.1
					c-0.9-10.4-12.6-11.6-18.8-12.3l-1.4-0.2c-8.2-1-10.1-2.5-11.8-4.5c0,0-0.1,0-0.1-0.1L219,234c2,0.9,4.8,1.7,9.3,2.2l1.5,0.2
					c6,0.7,16.1,1.8,16.8,10.2c0.1,0.6,0.6,1.1,1.2,1c0.1,0,0.3,0,0.4-0.1c0.4-0.2,0.7-0.6,0.7-1.1c-0.9-10.3-12.6-11.6-18.8-12.3
					l-1.5-0.2c-8.3-1-10.1-2.5-11.7-4.4c0-0.1-0.1-0.1-0.2-0.1c-0.2-0.2-0.3-0.3-0.5-0.3c-0.1,0-0.1,0-0.1,0c-0.2,0-0.3-0.1-0.5,0
					l0,0c-0.1,0-0.1,0.1-0.2,0.2l0,0l0,0c-0.2,0.2-0.3,0.4-0.3,0.6c0,0.1,0,0.2,0,0.3s0,0.2,0,0.3l33,69.2c-4-1-9,0.9-12.5,5.1
					c-4.6,5.3-5.1,12.5-1,16c4,3.5,11,1.9,15.6-3.5c4.5-5.3,5-12.2,1.3-15.7l-20.5-43c2,1,4.9,1.8,9.6,2.4l1.5,0.2
					c6,0.6,16.1,1.7,16.8,10.2c0.1,0.6,0.6,1.1,1.2,1c0.1,0,0.3,0,0.4-0.1c0.4-0.2,0.7-0.6,0.7-1.1C260,261.1,248.3,259.8,242,259.2
					z"/>
				<path class="st10" d="M169.5,394.8c8.7,2.2,0.8,11.5,2.2,18.6c1.4,6.5,5.9,6.3,9.8,5.2c0,0-7.1,18.5,9.5,17.4
					c-10-4.7-5.5-20.3-5.5-20.3c-10.4-1.3-4.8-6.4-5.7-14.1C178.5,389.3,169.5,394.8,169.5,394.8z"/>
			</g>
			<path class="st6" d="M63.3,456.6c4.6-19.7,11.2-41.4,28.9-51.3c13.4-7.5,29.8-6.2,45-8.2c31.2-4.1,59.9-24,74.7-51.7
				c7.7-14.5,12.1-31.2,23.5-42.9c11.7-12,28.9-16.8,45.6-18.5c16.6-1.7,33.6-0.9,50-3.9"/>
			<path class="st6" d="M304.4,314.8c-12.5-0.5-26.2-0.7-35.8,7.4c-12.7,10.6-12.2,30.4-21,44.4c-7.5,12-21,18.6-33.9,24.6"/>
		</g>
		<g>
			<rect x="614.9" y="344.3" class="st10" width="16.5" height="56.8"/>
			<rect x="643" y="344.3" class="st10" width="16.5" height="56.8"/>
		</g>
		<path class="st0" d="M682.2,268c-4.9,4-22.6-2.7-22.7-12.9c0-6.8,7.8-13.8,13.8-12.9C682.6,243.5,687.4,263.7,682.2,268z"/>
		<path class="st10" d="M695.5,486.1c-4.1-3.3-9.3-4.9-13.9-4.8c-2.7,0-5.2,0.6-7.5,1.4c0.1-1.2,0.2-2.4,0.3-3.6
			c0.2-2.3,0.5-4.7,0.7-7.1c2.6-1.4,5.1-3.1,7.5-4.9c5.8-4.3,10.6-10.1,13.2-16.9c2.5-6.8,4.8-13.8,4.1-20.6c-0.1-1.8-0.5-3-1-5.4
			c-0.2-0.9-0.6-2.5-1.2-4c-0.6-1.4-2.2-2.8-4.1-3.1c-3.9-0.4-6.2,1.5-7.8,2.8c-0.8,0.8-1.4,1.5-2.1,2.3c-0.4,0.4-0.6,0.7-0.8,1.1
			l-0.2,0.2c-0.2,0.2-0.1,0.2-0.2,0.4l-0.3,0.6c-1.9,3.3-2.6,6.7-3.2,9.9c-0.6,3.1-1.2,6.2-1.8,9.3c-1.1,4.9-1.9,9.7-2.6,14.5
			c-2.1,1.6-4.3,3.1-6.6,4.4l-4.2,2.4c-1.4,0.8-2.9,1.7-4.4,2.8c-5.9,3.9-11.2,8.8-15.1,15c-4,6.1-5.9,14.1-4.1,21.2
			c1.7,7.2,6.3,12.9,11.6,16.8c5.2,3.7,11,6.1,16.9,7.2c-0.2,3.1-0.4,6.2-0.7,9.1c-0.1,7.8-4.3,13.7-9.4,14.8
			c-3.8,0.7-6.8-1-8.5-2.9c0.2,0.1,0.4,0.2,0.7,0.3c3.4,1,6.9-1,7.8-4.4c1-3.4-1-6.9-4.4-7.8c-3.4-1-6.9,1-7.8,4.3
			c-0.1,0.3-0.1,0.5-0.1,0.8l0,0l0,0c-0.2,1.3,0,2.6,0.6,3.8c0.1,0.3,0.3,0.7,0.4,1.1c0.7,1.5,1.9,3.1,3.8,4.5
			c2,1.3,4.6,2.4,7.7,2.2c3.2-0.2,6.6-2,8.8-5.1c1.1-1.5,2-3.3,2.5-5.3c0.5-2.1,0.7-3.9,0.9-6c0.3-2.8,0.5-5.8,0.7-8.9
			c5.3,0.6,10.6,0.2,15.6-1.3c5.6-1.9,10.6-5.6,13.4-10.7c2.9-5,3.8-10.9,2.9-16.3C702.5,494.6,699.7,489.5,695.5,486.1z
			 M685.7,431.8c1.5-2.2,5-8.5,8.5-6.3c2.2,1.4,1.7,4.7,1.1,6.8c-1.3,4.9-3.8,9.6-7.3,13.3c-3.4,3.6-6.8,6.9-10.4,10.1
			c0.7-3.7,1.5-7.5,2.4-11.2C681.2,440,683.1,435.7,685.7,431.8z M654.9,516.7c-4.2-3.8-7.4-8.7-8.1-14c-0.7-5.3,1.1-10.5,4.5-14.9
			c3.5-4.3,8.4-7.8,13.6-10.7c1.2-0.7,2.5-1.4,4.1-2.1l2.1-1c0.5-0.2,1-0.5,1.5-0.8c-0.2,1.9-0.4,3.7-0.6,5.6
			c-0.2,1.6-0.3,3.2-0.4,4.8c-4.4,2.2-7.7,5.7-9.6,9.1c-3,5.7-2.9,10.7-2.5,13.8c0.2,1.6,0.5,2.7,0.8,3.5c0.2,0.8,0.4,1.2,0.4,1.2
			s0-1.7,0.4-4.7c0.5-2.9,1.5-7.3,4.8-11.3c1.3-1.6,3-3.2,5.1-4.4c-0.5,6.8-1,13.3-1.4,19.5c-0.4,4.8-0.6,9.4-0.9,13.7
			C663.7,522.7,658.8,520.2,654.9,516.7z"/>
		<path class="st7" d="M460,284c0,4.4-3.6,8-8,8s-8-3.6-8-8s3.6-8,8-8"/>
		<path class="st6" d="M418.8,218.6c-3.8-0.9-7.6-1.7-11.4-1.5c-3.9,0.2-7.8,1.6-10.2,4.6c-2.5,3.1-3,7.4-3.2,11.5
			c-0.2,2.9-0.2,5.9,0.6,8.7c0.8,2.8,2.8,5.4,5.5,6.4"/>
		<line class="st7" x1="385" y1="250" x2="439" y2="264"/>
		<path class="st6" d="M457.6,265.7C458,266,439,264,439,264"/>
	</g>
	<path class="st2" d="M549.6,392.9c-2.3-3.4-1-8.9,2.7-11.6c2.9-2.1,7.5-2.7,10.7,0c3.4,3,3.3,8.4,0.9,11.6
		C560.4,397.3,552.5,397.2,549.6,392.9z"/>
	<path class="st2" d="M546.5,553.3c-5.2-2.5-6.5-16.8-0.4-25.8c8.9-13.3,33.6-15.1,39.6-6.2c4,5.9,0.5,17.6-6.2,22.7
		c-5.1,3.8-8.7,1.2-21.3,5.8C550.5,552.5,548.8,554.4,546.5,553.3z"/>
</g>
</svg>
