<?xml version="1.0" encoding="utf-8"?>
<!-- Generator: Adobe Illustrator 24.1.2, SVG Export Plug-In . SVG Version: 6.00 Build 0)  -->
<svg version="1.1" id="Layer_1" xmlns="http://www.w3.org/2000/svg" xmlns:xlink="http://www.w3.org/1999/xlink" x="0px" y="0px"
	 viewBox="0 0 955 992" style="enable-background:new 0 0 955 992;" xml:space="preserve">
<style type="text/css">
	
		.st0{fill-rule:evenodd;clip-rule:evenodd;fill:#F45B49;stroke:#1C2628;stroke-width:2.13;stroke-linecap:round;stroke-linejoin:round;}
	.st1{fill-rule:evenodd;clip-rule:evenodd;fill:#1DB954;}
	
		.st2{fill-rule:evenodd;clip-rule:evenodd;fill:#1C2628;stroke:#1C2628;stroke-width:2.13;stroke-linecap:round;stroke-linejoin:round;}
	.st3{fill:none;stroke:#1C2628;stroke-width:2.13;stroke-linecap:round;stroke-linejoin:round;}
	.st4{fill:#1DB954;}
	.st5{fill:#1C2628;stroke:#1C2628;stroke-width:2.13;stroke-linecap:round;stroke-linejoin:round;}
	
		.st6{fill-rule:evenodd;clip-rule:evenodd;fill:#FAFCFF;stroke:#1C2628;stroke-width:2.13;stroke-linecap:round;stroke-linejoin:round;}
	.st7{fill-rule:evenodd;clip-rule:evenodd;fill:#FB564C;}
	.st8{fill-rule:evenodd;clip-rule:evenodd;fill:#FAF6EB;}
	
		.st9{fill-rule:evenodd;clip-rule:evenodd;fill:#FAF6EB;stroke:#1C2628;stroke-width:2.13;stroke-linecap:round;stroke-linejoin:round;}
	
		.st10{fill-rule:evenodd;clip-rule:evenodd;fill:#47584E;stroke:#1C2628;stroke-width:2.13;stroke-linecap:round;stroke-linejoin:round;}
	
		.st11{fill-rule:evenodd;clip-rule:evenodd;fill:#F3A140;stroke:#1C2628;stroke-width:2.13;stroke-linecap:round;stroke-linejoin:round;}
	.st12{fill:#49574E;}
	.st13{fill:none;stroke:#FAF6EB;stroke-width:2.13;stroke-linecap:round;stroke-linejoin:round;}
	.st14{fill:#FAF6EB;stroke:#1C2628;stroke-width:2.13;stroke-linecap:round;stroke-linejoin:round;}
	.st15{fill:#F45B49;stroke:#1C2628;stroke-width:2.13;stroke-linecap:round;stroke-linejoin:round;}
	.st16{fill:none;stroke:#FFFFFF;stroke-width:2.13;stroke-linecap:round;stroke-linejoin:round;}
	
		.st17{fill-rule:evenodd;clip-rule:evenodd;fill:none;stroke:#FEFEFE;stroke-width:2.13;stroke-linecap:round;stroke-linejoin:round;}
	
		.st18{fill-rule:evenodd;clip-rule:evenodd;fill:none;stroke:#1C2628;stroke-width:2.13;stroke-linecap:round;stroke-linejoin:round;}
	.st19{fill-rule:evenodd;clip-rule:evenodd;fill:#49574E;}
	.st20{fill:#F55C4A;}
	.st21{fill:#FAF6EB;}
	
		.st22{fill-rule:evenodd;clip-rule:evenodd;fill:#47584E;stroke:#FAF6EB;stroke-width:2.13;stroke-linecap:round;stroke-linejoin:round;}
	.st23{fill-rule:evenodd;clip-rule:evenodd;fill:#1C2628;}
	.st24{fill-rule:evenodd;clip-rule:evenodd;fill:#F7AA9A;}
	
		.st25{fill-rule:evenodd;clip-rule:evenodd;fill:none;stroke:#FAF6EB;stroke-width:2.13;stroke-linecap:round;stroke-linejoin:round;}
	.st26{clip-path:url(#SVGID_2_);}
	.st27{clip-path:url(#SVGID_4_);}
	
		.st28{fill-rule:evenodd;clip-rule:evenodd;fill:none;stroke:#FFFDFD;stroke-width:2.13;stroke-linecap:round;stroke-linejoin:round;}
	.st29{clip-path:url(#SVGID_6_);}
	.st30{fill:#FB564C;}
	.st31{clip-path:url(#SVGID_8_);}
	.st32{clip-path:url(#SVGID_10_);}
	.st33{fill:#F3A140;stroke:#1C2628;stroke-width:2.13;stroke-linecap:round;stroke-linejoin:round;}
	
		.st34{clip-path:url(#XMLID_3_);fill-rule:evenodd;clip-rule:evenodd;fill:none;stroke:#1C2628;stroke-width:2.13;stroke-linecap:round;stroke-linejoin:round;}
	.st35{fill:none;stroke:#000000;stroke-width:6;stroke-linecap:round;stroke-linejoin:round;}
	.st36{fill-rule:evenodd;clip-rule:evenodd;fill:#F55C4A;}
	.st37{fill:#47584E;stroke:#1C2628;stroke-width:2.13;stroke-linecap:round;stroke-linejoin:round;}
	.st38{fill:#1C2628;}
</style>
<g>
	<rect x="164.8" y="724.5" class="st2" width="218.9" height="200.6"/>
	<path class="st4" d="M497.2,284.8c42.3,28.8,95.9,34.1,145.1,60c49.6,25.8,95.1,71.7,78.2,108.9c-16.9,36.8-96.3,64.5-139.1,101.7
		c-42.3,36.8-48.4,82.7-73.8,119.1c-31.1,22.5-75.3,52.8-111.2,55.8c-40.7-7.6-76.2-50.1-115.3-79.3
		c-38.7-29.6-80.6-45.5-107.2-74.7c-27-28.8-38.3-71.3-54-121.8c-15.7-50.8-35.5-110-19.8-157.1c16.1-46.7,67.3-81.2,122.1-103.6
		c54.4-22.4,111.6-32.3,156.4-11.4C423,203.6,454.9,256,497.2,284.8z"/>
	<g>
		<g>
			<path class="st2" d="M342.1,166.2c1-0.8,4.4-1.5,5-2.5c2.6-4.2,11-13.4,7.5-20.9c-3.4-7.5-8.3-4.8-8.3-4.8s-0.6-15.7-17.1-4.7
				c-2,1.3-2.6-1.1-3.8,1.1c-0.9,1.6-1.6,3.5-2.3,5.2"/>
			<path class="st2" d="M280.9,170c-0.6,1.2-3.4,3.2-3.5,4.3c-0.7,4.9-4.4,16.8,1.9,22.2c6.2,5.4,9.5,0.9,9.5,0.9s7,14,17.5-2.8
				c1.2-2,2.8-0.1,3-2.6c0.2-1.9,0-3.8-0.1-5.7"/>
			<path class="st9" d="M253.9,252.7c10.6-19.8,18.8-34.5,18.8-34.5l17.6-6.9l10-21l36.2,8.9l-3.8,9.8l-6.4,23.3
				c0,0,5.4,20.1-1.8,19.7c-0.8,0-2.1,6-3.7,15.8C299.1,265.9,273.2,262.9,253.9,252.7z"/>
			<path class="st2" d="M349.2,179.3c2.8-25.5-4.2-21.1-5.6-28.1c-2.7-13.9-6.8-18.6-32.4-17c-4.5,0.3-9.8,0.5-13.9,2.5
				c-18.7,9.4-18.4,24.2-18.4,24.2s-9.9,34.4,28.3,37.9c38.3,3.4,0.2-0.6,20.7-5.6C348.3,188.2,349.2,179.3,349.2,179.3z"/>
			<path class="st9" d="M306.4,181.1c-1.2-6,9.2-21.9,11-27.2c3.2-9.5-13.2-5.6-3.2-7.7c11.2-2.3,21.2-2.7,27.8,6.6
				c2.6,3.6,6.2,21.8,7.2,26.5c3.5,16.8-6.2,28-21.7,31.3c-10,2.1-17.9,0.7-24.6-6.6C299.1,199.8,307.6,187.1,306.4,181.1z"/>
			<path class="st9" d="M338.7,170.9c0.6,2.2-1.6,4.6-5.1,5.4c-3.4,0.8-6.7-0.3-7.3-2.5"/>
			<path class="st8" d="M300.9,204l4.2-9.6c0,0,16.6-0.8,20.9,4.6c4.3,5.3-1.6,21.5-1.6,21.5l-11.7,1"/>
			<path class="st9" d="M313,175.3c-2-2.8-6.6-0.4-7.5,2.1c-2,5.2,2.9,14.3,11.6,8.2"/>
			<path class="st3" d="M312.2,180.9c0,0-1-1.3-0.8-1.1"/>
			<path class="st2" d="M332.8,185.8c1.6,2.6,3.5,4.7,7,5.7c0,0-4.6,6.4-10.5,3.9C325.4,193.8,332.8,185.8,332.8,185.8z"/>
			<path class="st9" d="M344.8,176.6c0,0,11.5,6,11.6,8c0.7,7.9-9,2.6-10,3.3"/>
			<path class="st2" d="M335.2,140.2l6.8,12.6c-8.9-12.7-14.1,21.8-39,20.1c-0.7,0-14.3,2.5-14.1,1.6c0.2-1.1,2.2-0.8,3.1-1.6
				c2-1.8,2.7-3.9,3.4-6.4c0.8-3-1.5-9.7,1.3-11.9c4.5-3.6,11.5-16.6,16.4-15.8L335.2,140.2z"/>
			<path class="st2" d="M309.7,140.8c-1.1-0.8-2.7-3.8-3.8-4.1c-4.8-1.3-16-6.7-22.2-1.2c-6.2,5.4-2.3,9.3-2.3,9.3s-14.8,5,0.4,17.8
				c1.8,1.5-0.3,2.8,2.1,3.4c1.8,0.4,3.8,0.5,5.7,0.7"/>
			<path class="st2" d="M331.3,148.9c0-1.3,1.6-4.3,1.3-5.4c-1.6-4.7-3.4-17-11.4-19.1c-8-2.1-9,3.4-9,3.4s-12.5-9.5-14.5,10.3
				c-0.2,2.3-2.5,1.4-1.6,3.6c0.7,1.8,1.7,3.4,2.6,5.1"/>
			<path class="st2" d="M295.5,155.9c-1.3-0.2-4-2.3-5.1-2.1c-4.9,0.8-17.3,0.7-20.7,8.3c-3.4,7.6,1.9,9.4,1.9,9.4
				s-11.3,10.8,7.8,15.9c2.3,0.6,1,2.7,3.3,2.2c1.8-0.4,3.6-1.1,5.4-1.7"/>
		</g>
		<g>
			<g>
				<path class="st9" d="M510.9,326.4l38.4-74.1c0,0-5.7-0.9-8.1-0.1c-2.4,0.8-10.8,16.9-10.8,16.9l-4.7-14.7c0,0-3.2-1.7-3.3,6.4
					s-0.2,16.2-0.2,16.2l-13.2,17.7c0,0-4-4.1-2.3-7.3s4.2-12.1,5.9-15.3c1.7-3.2-1.6-4.9-1.6-4.9l-17.4,21.7l-5,20.6L382,328
					l25,54.4L510.9,326.4z"/>
				<path class="st3" d="M527.9,286.1c2.3-5.1,2.8-11.8,2.7-17.4"/>
			</g>
			<path class="st2" d="M191.7,379.4c31.7-0.1,104.7,20.1,137.9,21.6l1-45.1c0,0,35.2,35.3,52,32.5c29.4-4.9,63-15.4,63-15.4
				l-7.8-28.6l-7.8-28.6l-40.7-0.4c0,0-21.4-67.3-30.7-69.1l-26.5-13.9c0,0-25.8,9.3-59.5-14.1c-20.7-14.4-67.6,17.1-66.5,44.7
				C207.5,292.5,191,348.2,191.7,379.4z"/>
			
				<ellipse transform="matrix(4.581948e-02 -0.9989 0.9989 4.581948e-02 -360.6756 936.4045)" class="st2" cx="309.8" cy="657" rx="5.9" ry="39.4"/>
			<path class="st2" d="M169.8,629.7c3.1-1.1,16.2,2.6,26.9,20.2c10.7,17.5,18,38.2,15.2,39.9c-2.8,1.7-14.6-16.3-25.3-33.8
				C175.9,638.5,161.2,632.8,169.8,629.7z"/>
			<g>
				<path class="st14" d="M233.4,474.4c6.6-9.4,6.9-18,5.5-24.4c-1-4.3-2.1-31-3.3-32.9l-16.7,5.7"/>
				<g>
					<path class="st9" d="M335.7,673c-8.1-32.8,47.5-126.4,47.5-126.4L290,586l-8,104l40.1,19.3l44.3-9
						C366.4,700.3,338.1,682.9,335.7,673z"/>
					<path class="st10" d="M185.9,444.9c-14.8-15.2,6.7-56.3,6.7-56.3s79.9,13.7,79.5,13.6c-1.1-0.2,117.4,4.8,153.5,25.5
						c16.9,9.7,15.7,45.7,8.5,63.8l-86.4,166c0,0-17.4-4.7-23.4-5.3c-13-1.3-52.3,1.2-52.3,1.2l52-142l-95.3-23.8
						C212.4,483.2,197.7,457.1,185.9,444.9z"/>
					<g>
						<path class="st2" d="M325,687.9l8.9-12.8c0,0,16.7,7.4,33.5,14.9C354.1,696,338.7,694.2,325,687.9z"/>
						<path class="st0" d="M278.9,680c0,0,11.2-8.9,17.1,3.1c2.1,4.2,18.3,13.3,24.1,11.9l5-7.1c13.7,6.3,29.1,8.2,42.4,2.1
							c10.3,4.6,20.6,9.3,27.1,12.2c18.5,8.4,13,23.8,13,23.8l-77.7,0.5l-56.1-3.3L278.9,680z"/>
					</g>
				</g>
				<line class="st14" x1="215.3" y1="434.7" x2="234.6" y2="427.6"/>
				<path class="st9" d="M194.1,675.7c12.7-19.7,80.3-48.4,80.3-48.4l-56.6-34.4l-67,54.2l5.8,38.1l32.7,31.2
					C189.2,716.5,188.5,684.3,194.1,675.7z"/>
				<path class="st10" d="M216.9,495.9l67.7,47.1l-114.1,86.1l-0.8,0.6c0,0,11.8,5.6,20.7,17c7.7,9.8,21.3,43.1,21.3,43.1l74.1-49.5
					l94.3-62.9l6.5-4.3c11.1-9.9,17.4-29.2,14.9-45c-0.8-4.9-2.3-9.4-4.8-13.2c-22.3-34.1-95.4-79.9-97.7-81.2
					c0.6,0.2,1.3-2.9,2-7.5c1.7-10.6,3.4-28.8,3.4-28.8l-108.7-22c0,0-47.2,73.3-18.3,100.9C189.7,488,208.7,488.4,216.9,495.9z"/>
				<path class="st2" d="M170.6,629.1c6.4,2,11.2,1.5,14.8,0.2c10.7-3.9,9.5-14.9,22.9-21.5c18.4-9,34.7,4.8,44.3-4.8
					c7.5-7.5,0.3-18.8,8.1-25.6c7.7-6.7,82.3-30.9,21.9-63.1c-31.9-17-39.7-36.4-69.4-41.8c-10.4-1.9-18.2-1.2-23.8,0
					c-4.4,0.9-8.4,2.2-12,3.8c14,9.4,31.3,12.2,39.4,19.6l67.7,47.1L170.6,629.1z"/>
				<path class="st3" d="M168.5,448.2c17.4-2.9,31.7-14.2,33.3-19.7c1.1-3.7,12.3-24.9,12.1-26.8l-17.5-2.1"/>
				<g>
					<path class="st2" d="M177.8,682.1l17.2-0.1c0,0,0.2,14.8,3.3,30.9C187.4,707.9,182,694.3,177.8,682.1z"/>
					<path class="st0" d="M156.9,639.7c0,0,13.7,4.1,7.2,15.8c-2.2,4.1-0.5,22.6,4,26.5l9.7,0c4.1,12.2,9.6,25.9,20.5,30.9
						c1,5.4,2.1,11,3.1,16.2c1.3,7,6,1.8,15.9,7.6c4.4,2.6,2.9,15.3,2.9,15.3l-43.7-4.1l-25.2-36.5l-12.1-20.1l-14.9-24.9
						L156.9,639.7z"/>
				</g>
				<path class="st2" d="M200.1,375.3l104.4,22c0,0-19.1,12.1-29.2,14.6c-10.2,2.6-20.3,0.8-26.7-0.9c-6.5-1.8-31.7-9.9-43.1-0.9
					c-20.2,6.3-17.8-14.1-17.8-14.1L200.1,375.3z"/>
				<path class="st3" d="M282.7,614.6c-4.6,13.1-8.1,27.2-16.6,38.2"/>
				<line class="st14" x1="182.1" y1="404.3" x2="202.5" y2="406.8"/>
				<line class="st14" x1="281.2" y1="416.6" x2="299" y2="433.6"/>
				<line class="st14" x1="305.2" y1="545.1" x2="284.6" y2="543.1"/>
				<polyline class="st3" points="262.3,478.1 328.2,542.1 193.1,629.2 224.3,675.9 				"/>
			</g>
			<line class="st3" x1="339" y1="305.9" x2="330.5" y2="355.8"/>
			<line class="st3" x1="491.9" y1="292.4" x2="205.7" y2="544.9"/>
			<line class="st3" x1="548.1" y1="242.8" x2="514.5" y2="272.5"/>
			<g>
				<path class="st9" d="M276.9,482.8c-4.2,20.5-37.8,45.3-37.8,45.3s-7.4-4.1-4.2-9.1c3.2-5.1,13.7-16.9,13.7-16.9
					s-6.2,1.4-6.7-0.7s1.2-4.6,1.2-4.6s-2.5-1.6-5.1-3.2c-2.5-1.6,1.2-4.6,1.2-4.6s-7.6-4.8-10.1-6.5c-2.5-1.6-5.5-5.3-5.5-5.3
					s2.8-7.1,5.3-5.5c2.5,1.6,9.7,4.4,9.7,4.4l-26-27.1l10.4-15.1l22.3-10.8C262.8,447.4,278.9,473.1,276.9,482.8z"/>
				<path class="st2" d="M167.6,402.2l38.5,53.4c0,0,11-12.8,15.4-16.2c1.3-1,3.1-2.2,5.2-3.6c9-5.8,23.5-13.9,23.5-13.9
					c-8.7-10.6-40.8-52.5-40.8-52.5l56-76.2l9.6-5.7l4.3-2.6l-70.5-34.3l-54.2,96.4C151.9,362.8,156.6,390.7,167.6,402.2z"/>
				<path class="st3" d="M260.8,496.5c-1.5,1.9-3.6,3.2-5.9,4.1c-2.3,0.9-4.7,1.3-7.1,1.7"/>
				<path class="st3" d="M255.3,491.4c-3.8,3.3-8.9,5-14,4.7"/>
				<path class="st3" d="M251.6,483.8c-2.1,1.6-4.4,3-6.8,4c-1.1,0.5-2.3,0.9-3.5,0.9c-1.2,0.1-2.5-0.2-3.4-1.1"/>
			</g>
		</g>
		<line class="st3" x1="301.4" y1="714.4" x2="274.8" y2="714.5"/>
		<line class="st3" x1="407" y1="714.1" x2="314.2" y2="714.1"/>
		<line class="st3" x1="145.5" y1="682.1" x2="131" y2="661.1"/>
		<polyline class="st3" points="220.4,743.3 184,737.6 150.8,689.7 		"/>
		<path class="st8" d="M332.5,232.4l26.2,13.8c9.2,1.8,30.7,69.1,30.7,69.1l40.7,0.4l7.8,28.6c-17.1,2.6-29.4-16.8-40.4-14.9
			c-17.3,3-22.3,7-27.5,0.6c-6.1-7.5,9.4-22.3-3.7-34.7c-12.7-12.1-23.8-0.9-28.6-25.3c-1.4-7.1,7.2-16.9,2.9-22.8
			c-6.2-8.4-22.4-3-25.5-9.6c-0.3-0.6-3.5-3.2-3.6-4C317.6,234.3,329.4,233,332.5,232.4z"/>
		<path class="st8" d="M205.5,410.1c7.7,9.5,14.8,18.1,21.2,25.7c9-5.8,23.5-13.9,23.5-13.9c-8.7-10.6-40.8-52.5-40.8-52.5l56-76.2
			l9.6-5.7c-5.5-4.5-12.7-8.6-21.5-9.2c-21.7-1.4-43.5,19.2-45.5,37.9c-1,9.3,3.6,11.2,1.6,19.6c-4.1,17.2-25.5,16.9-29.3,30.7
			C178,374.3,182.6,381.8,205.5,410.1z"/>
		<path class="st2" d="M341.7,266.2c5.9,11.6,9.1,13.8,11,13.4c2.5-0.6,4.5-6.4,2.2-10.6C352.6,264.8,346.5,263.1,341.7,266.2"/>
		<path class="st2" d="M362.3,286.4c1.4-0.5,1.8-5.4,0.2-6.1c-1-0.5-3.1,0.6-3.5,2.3C358.5,284.8,361.2,286.8,362.3,286.4z"/>
		<path class="st2" d="M222.4,323.4c3.1-0.9,4.1-4.8,4.1-7c0.1-4.2-3.1-8.7-6-8.6c-3.6,0.1-7.5,7.3-5.1,11.9
			C216.6,322,219.6,324.2,222.4,323.4z"/>
		<path class="st2" d="M299.1,433.6c2.3,1.3,75.3,47.1,97.7,81.2c2.5,3.8,4.1,8.4,4.8,13.2c4.8-3.2,8.6-7.3,10.3-12.5
			c3.6-10.7-2.1-24.5-10.7-32.3c-12.6-11.4-26.3-4.8-37.7-17.4c-6.7-7.4-4.4-12.5-9.2-20c-9.4-14.8-35.3-22-53.3-19.7
			C300.4,430.7,299.7,433.9,299.1,433.6z"/>
		<path class="st2" d="M286,640.3c5.2,1.8,10.6,2.6,15.6,2.1c8.7-1,10-5.5,28.2-16.1c22.3-13,26.8-10,35.3-18.1
			c8.3-7.9,13.5-19.9,15.2-30.8L286,640.3z"/>
		<path class="st2" d="M517.4,264.4l5.2,4.6c4.2,3.7,10.7,3.3,14.4-0.8l15.8-17.7c3.7-4.2,3.3-10.7-0.8-14.4l-5.2-4.6
			c-4.2-3.7-10.7-3.3-14.4,0.8L516.6,250C512.8,254.2,513.2,260.7,517.4,264.4z"/>
		<line class="st13" x1="552.8" y1="251.1" x2="532.7" y2="234.1"/>
		<line class="st13" x1="539.5" y1="266.9" x2="519.1" y2="248.7"/>
		<line class="st13" x1="552.5" y1="241" x2="527.5" y2="268.6"/>
		<line class="st13" x1="542.5" y1="231.8" x2="516.7" y2="259.7"/>
		<polyline class="st3" points="238.4,407 250.2,421.9 236.5,429.8 		"/>
		<line class="st16" x1="255.5" y1="320.6" x2="220.6" y2="368.7"/>
		<line class="st16" x1="270.8" y1="315.7" x2="238.5" y2="360.1"/>
		<path class="st16" d="M333,314c-2,13-1,43-1.3,43.4"/>
		<path class="st16" d="M174.2,341.4c2.9,2.6,4.9,6.7,4,10.5c-0.4,1.7-1.3,3.2-2.1,4.7c-6,12-4.5,27.4,3.9,37.8
			c3.7,4.7,8.7,8.4,12.1,13.3"/>
		<path class="st16" d="M170.5,390c2.6,13.4,14.5,22.7,21.4,34.4"/>
		<path class="st3" d="M363.5,250.9c12.1,24.5,25.8,64.3,25.8,64.3l40.7,0.4"/>
		<path class="st16" d="M339.1,354.1c5.5,5.1,11.3,9.8,17.8,13.5c10,5.7,37.1,14.1,37.1,14.1c7.2-7.2,16.3-3.3,23.1-0.9"/>
		<path class="st16" d="M393.1,374.6c-7.3,1.3-13.9-4.9-21.3-5.8"/>
		<path class="st16" d="M295.3,233.2c-3.9,0.4-7.5-1.9-11.1-3.6c-6.3-2.9-13.9-4.4-17.9-10.1c-8.4,0.6-18.6,2.1-26.1,6
			c-2.5,1.3-4.9,2.9-6.8,5.1c-2.7,3.1-4.5,7.3-8.2,9.1"/>
		<path class="st3" d="M391.6,532.1c1.4,7.3,2.7,15.5-1.3,21.8c-1.8,2.8-4.5,4.9-7.1,6.9c-15.8,12.3-31.9,24.1-48.2,35.6"/>
		<path class="st3" d="M355.8,568.5c-11.7,7.5-22.8,15.9-33.3,25.1c-4.9,4.3-9.8,8.8-15.8,11.5"/>
		<path class="st3" d="M324.1,582.8c-5.8,7-13.9,11.7-21.8,16.1c-4.1,2.3-8.2,4.6-12.2,6.9"/>
		<path class="st3" d="M358.5,622.1c-3.7,7-12.6,21.2-17.2,27.6"/>
		<path class="st3" d="M344.8,627.9c-1.1,4.8-2.9,9.4-5.5,13.6"/>
	</g>
	<g>
		<path class="st0" d="M729.4,640.3l1.6,117.4l27.4,136.7c0,0,7.1,27.6,2.8,34.9c-3.9,6.6-29.4,2.4-29.4,2.4s-61.9,5.5-78.8-0.2
			c-29.6-10,9.2-18,9.2-18l46.3-17.5L665,779.3l-24.9-137.4L729.4,640.3z"/>
		<path class="st0" d="M583.6,641.2L571.3,782l2.6,96.8c0,0,9.2,18.1,5.5,25.7c-3.3,6.9-29.1,4.8-29.1,4.8s-53.9,9-71.2,4.7
			c-30.3-7.5,0.4-16.9,0.4-16.9l44.7-21.4l-18.6-104.8l9.1-143.1L583.6,641.2z"/>
		<path class="st0" d="M694.9,361.4c0,0,71.3,40,93.5,70.5c15.6,21.5,41.8,69,41.8,69s11.6,12.5,7.8,23.1c-4.3,12,1.4,11.4,2.3,14.2
			c9.7,31.9-32.7,10-32.7,10l-7.1-36.5l-60.5-63.3l-66.3-35L694.9,361.4z"/>
		<path class="st0" d="M568,400.7l-16,95.4L511.3,483c0,0,1.1-58.4,10.9-93.2c9.8-34.8,40-37.8,40-37.8L568,400.7z"/>
		<path class="st9" d="M658.9,365.4l-11.7-13.1l-18.4-1l-12.1,17.7l-8.2-16.5l-18.7-1.1l-13.6,7.6l3.2,110.8l85.1,4.8L658.9,365.4z"
			/>
		<path class="st2" d="M647.2,302.7c8.3-26.7-2.6-47.3-40.7-42.5c-4.4,0.6-9.7,1.1-13.7,3.4c-18,10.5-13.2,37.8-15.2,40.3
			c-4.8,5.8,1.2,13.9-3.7,24c-10.1,21-2.9,47.9-2.9,47.9l95-2.8c0,0,3.9-9.4-0.8-27c-1.7-6.2-9.2-5.9-10.6-23
			C653.1,306,647.2,302.7,647.2,302.7z"/>
		<path class="st0" d="M600.4,320.7l0.3,23.5l-5.9,6.9c0,0-2.9,23.3,6.3,28.9c10.2,6,32.9-5.8,40.7-7.8c7-1.8-4.2-16.4-4.2-16.4
			l-0.8-26.9l0.6-10.5L600.4,320.7z"/>
		<path class="st0" d="M595.6,306.7c-1.6-5.9-1.1-17.6,0.4-23c2.6-9.7,5.4-5.4,15.2-8.1c11-3,16.3-7.4,23.5,1.4
			c2.8,3.4,11,16.2,12.3,20.8c4.5,16.5-4.2,33.2-19.4,37.4c-9.8,2.7-17.8,1.8-24.9-5.1C598.7,326.3,597.3,312.6,595.6,306.7z"/>
		<path class="st6" d="M617.8,305.2c-0.8-2.3,1.3-5,4.7-6.1c3.3-1.1,6.6-0.1,7.4,2.1c0.7,2.3-1.3,5-4.7,6.1
			C621.8,308.5,618.5,307.5,617.8,305.2z"/>
		<path class="st6" d="M637.6,296.1c-0.7-2.3,1.4-5,4.7-6.1c3.3-1.1,6.6-0.1,7.4,2.1c0.7,2.3-1.3,5-4.7,6.1
			C641.6,299.4,638.3,298.4,637.6,296.1z"/>
		<path class="st7" d="M603.8,347l-2.4-24c0,0,19.3-4.3,24,0.8c4.6,5-0.3,21.5-0.3,21.5l-11.6,1.7"/>
		<path class="st2" d="M584,304.3c4.6,8.2,12.3-10.2,12.3-10.2l31.2-7.4l2.2-15.9l7.3,17.8l11.1-0.2c0,0-8.8-22.1-11.1-24.2
			c-9.1-8.7-24.6-8.2-34.6,0.1C594.1,271.2,574.5,287.5,584,304.3z"/>
		<path class="st0" d="M598.7,308.5c-2.2-2.7-6.6,0-7.4,2.6c-1.7,5.3,2.3,14.2,10.6,8.9"/>
		<path class="st2" d="M621.6,306.4c-1.6,1-3.6,0.8-4.4-0.5c-0.8-1.3-0.2-3.2,1.4-4.2c1.6-1,3.6-0.8,4.4,0.5
			C623.8,303.5,623.2,305.4,621.6,306.4z"/>
		<path class="st2" d="M637.4,296.9c-1.1-1.6-0.8-4.2,3.4-4.9c1.5-0.3,1.4,0.5,2.4,2c1.1,1.6-0.4,3.3-1.6,4.2
			C640.3,299.1,638.5,298.5,637.4,296.9z"/>
		<path class="st3" d="M596.5,313.6c0.2,0.2,0.3,0.4,0.5,0.6"/>
		<path class="st9" d="M652,351.7l6.8,18.8l13.5,37.4l-8.2,22.2l-2.3,36.3l-97,36.9l-11-106.4l31.8-22.5l2-29.8l11.2,1.2l2.9,7.4
			c3.5,9.1,12.2,15.1,22,15.1l2.8,0c8.7,0,15.4-7.6,14.3-16.2l-0.5-4L652,351.7z"/>
		<path class="st2" d="M622.8,319.3c3.7,3.4,8.8-0.4,13.4-0.7c0,0-0.3,8.2-8.6,7.4C622.1,325.4,622.8,319.3,622.8,319.3z"/>
		<path class="st0" d="M635.4,299.4c5.7,1.1,11.8-0.8,12.5,2.5c0.8,4.3-8.4,7.4-9.6,7.2"/>
		<path class="st13" d="M618.3,270.9c-2.8,5-2.4,11.2-3.4,16.9"/>
		<path class="st13" d="M601.1,275.1c-24.1-1.9-17.3,44.2-19.7,57.2"/>
		<path class="st2" d="M500.3,784.7l14.7-6.8l13.7,13.5l12.5-17.5l17.8,15.9l8.9-12.4l18.1,12.1l-5.1-89.6l46-108.8
			c0,0,1.4,9.5,3.7,24c6.4,41.5,19.5,123.6,24.8,139c0.2,0.5,2.1,12.9,3.5,21.6c0.8,4.8,1.3,8.4,1.3,8.4l13.3-9.7l14.4,16.2
			l14.6-13.1l15.2,14.9l10.9-13.3l15.5,13l4.1-15.4c0,0-20.2-182.6-35.4-224.2c-15.2-41.6-30.1-45-30.1-45l-131-26.1
			c0,0-1.8,6.3-4.8,16.6c-12.6,43.4-45.3,158.8-45.3,178.9c0.1,15.4-0.5,52.9-0.9,79.2C500.5,772.7,500.3,784.7,500.3,784.7z"/>
		<path class="st2" d="M596.3,344.7l-29.9-16.4l-4.5,19.4l-16.6,0.4l7.3,22.3l-21.7,7.7l9.8,19.8l-14.1,14.7l22.1,8.9l-0.8,77.1
			l50.1,0.6L596.3,344.7z"/>
		<path class="st2" d="M647,350.1c0,0-11.2,135.2-10.7,143.4c0.5,8.2,48.1-7.9,48.1-7.9l4.8-68l18-6.6L695.2,396l21.3-10.1
			l-15.1-8.1l15.5-23.3l-36.4-3L647,350.1z"/>
		<path class="st11" d="M565.7,535.5c12.7,19.1,34.8,11.9,52.3,21.5c13.9,7.6,23.3,29.8,33.5,41.7c31.8,36.8,80.1,42.7,116.5-24.5
			c1.4-2.6,2.7-5.3,3.9-8c15.3-34.9,14-83.5-43.6-98c-44.4-11.2-60.9-6.8-71.3-6.2c-4.2,0.2-7.4-0.2-11-2.5
			C630,449.4,617.9,412.9,596,416c-2.4,0.3-15.1,3.8-12.6,20.8c2.5,16.9,21.6,35.6,22.5,47c0.4,5.2,4.9,20.4-4.4,17.1
			C584.5,494.7,551.5,514.2,565.7,535.5z"/>
		<path class="st9" d="M605.9,460.3c4.3-22.3,36.4,14.8,46.7,20.7c21.5,12.1,71.3-2.1,67,33.8c-1.4,11.6-12.7,20.5-20,28.9
			c-5.3,6.1-4.1,38.2-20.9,42.4c-17.8,4.4-27.6-22.1-42.8-33.1c-11.4-8.2-43.1-9.3-48.4-23.5c-6.6-17.6,13-15.4,19.2-27.2
			C613.1,490.1,603.4,473,605.9,460.3z"/>
		<path class="st2" d="M446.4,395.8c-15.1-5-22.6-16-38.5-16.4c-15.9-0.3-22.8,4.3-0.8,23.7c22,19.5,11.8,16.2,28,27.5
			c16.2,11.3,24.7,6.8,24.7,6.8l6,3l9.7-23.5C472.5,413.6,459.6,400.1,446.4,395.8z"/>
		<path class="st9" d="M704,529.6l-227.9-112c0,0-0.2-0.3-0.6-0.7l-9.7,23.5l226.6,112.1L704,529.6z"/>
		<path class="st2" d="M723.6,522.9l-20-11.5l-25.3,51.5l19.7,9.4L723.6,522.9z"/>
		<path class="st3" d="M697.9,537.2L470.3,423.9"/>
		<path class="st3" d="M693.5,543.7l-228-112.1"/>
		<path class="st0" d="M528.3,525.5c28.1,13.1,23.4-43.8,23.4-43.8l-38.3-17l-33.6-14.9l1.9-23c0,0,0.4-4.7-1.8-6.6
			c-2.2-1.9-7-0.9-7-0.9s-0.6-4.8-2.2-5.9c-4.9-3.6-8.6-0.9-8.6-0.9l-5.3-9.5c0,0,4.4-6.5,5.5-11.5c1.1-4.5-1-7.7-1.7-7.4
			c-2.4,0.9-12.6,17.4-12.6,17.4l1.2,37.9C449.3,439.3,500.2,512.4,528.3,525.5z"/>
		<path class="st3" d="M473,418.9c-1.2,6.5-5,18.6-2.4,24.7"/>
		<path class="st3" d="M464.7,412.2c-5.8,1.5-8.8,24.7-4.9,28.4"/>
		<path class="st3" d="M836.4,550.3c-1.7-3.4-4-5.8-5.8-9.2"/>
		<path class="st3" d="M826,551.3c-3.6-6.4-2.2-19.2-4.7-26.1"/>
		<path class="st3" d="M817.1,550.9c-2.7-1.3-4.8-23.4-5.7-27.4"/>
		<path class="st0" d="M648.8,274.8c0,0,4.2-24.3-23.3-21.7c-27.5,2.6-48,12.6-48.5,20.2c-0.5,7.6,1.5,13.6,1.5,13.6L648.8,274.8z"
			/>
		<path class="st9" d="M650,277.8c0,0,16.1-13.8,10-18.8c-10.1-8.5-65,14.3-65,14.3l-17.7,13.2L650,277.8z"/>
		<path class="st13" d="M713.4,634.8c0,0,16.4,96.8,22,144.8"/>
		<path class="st13" d="M604.4,582.7c-19.7,32-46.4,119.1-46.4,119.1s1,42.6,3.3,63.1"/>
		<path class="st2" d="M763,895l4.1,29.4l-69.1,0.9l-18.8-21.3l20.9-12.4l1-16.7l19,20.1L763,895z"/>
		<path class="st2" d="M579.4,876.4l-0.2,24.9l-63.9,6.1L495,887.6l19.9-14l5.2-17l15,19L579.4,876.4z"/>
		<path class="st9" d="M767.1,918.8l0.8,16.5l-129.5,1.3c0,0-7.7-14.5,4.6-21.2c12.3-6.7,41.3-14.2,41.3-14.2l10.8,17.6L767.1,918.8
			z"/>
		<path class="st9" d="M579.9,895.7l1,18.4L454,915c0,0-5.9-5.7,5.8-13.3c11.8-7.6,40.1-17.3,40.1-17.3l12.1,16.7L579.9,895.7z"/>
		<path class="st9" d="M736.8,915.7c0.8-2.2-0.4-4.7-2.6-5.4c-2.2-0.7-4.6,0.5-5.4,2.7c-0.8,2.3,0.4,4.7,2.6,5.4
			C733.6,919.2,736,918,736.8,915.7z"/>
		<path class="st9" d="M553.4,894.9c0.6-2.3-0.7-4.6-3-5.2c-2.3-0.6-4.6,0.8-5.2,3.1c-0.6,2.3,0.7,4.7,3,5.2
			C550.5,898.6,552.8,897.2,553.4,894.9z"/>
		<path class="st9" d="M717.9,915.6c0.8-2.3-0.4-4.7-2.6-5.4c-2.2-0.7-4.6,0.5-5.4,2.7c-0.8,2.3,0.4,4.7,2.6,5.4
			C714.7,919.1,717.1,917.8,717.9,915.6z"/>
		<path class="st9" d="M534.5,896.2c0.6-2.3-0.7-4.6-3-5.2c-2.2-0.6-4.6,0.8-5.1,3.1c-0.6,2.3,0.7,4.6,3,5.2
			C531.6,899.9,533.9,898.5,534.5,896.2z"/>
		<path class="st13" d="M706.1,897.1c0.2,0.3-0.5-0.6-0.7-0.9c-1.4-2.2-2.8-4.2-4.4-6.3"/>
		<path class="st13" d="M521.3,878.7c0.2,0.3-0.6-0.5-0.8-0.8c-1.5-2.1-3.1-4-4.8-6"/>
		<path class="st13" d="M701.1,903.1c0,0-5-6.3-7.1-9.7"/>
		<path class="st13" d="M516.8,885c0,0-5.4-5.9-7.8-9.1"/>
		<path class="st13" d="M694,906c-1.7-2.7-3.6-5.3-5.5-7.8"/>
		<path class="st13" d="M510,888.4c-1.9-2.6-4-5-6.1-7.4"/>
		<path class="st3" d="M697.4,919l-41,7.9"/>
		<path class="st3" d="M514.3,901.2L491,907"/>
		<path class="st8" d="M501.6,677.2c0-15.2,18.6-84.6,33.2-136.4c6.8,2.2,12.8,6.1,16.8,12.8c0,0,0,0,0,0c1.8,3,0.6,6.9-2.5,8.5
			c-5.9,3.1-11.9,3.5-15.3,10.1c-6.3,12.5,9,23.8,9,40.2c-1.7,2.1-3.4,4.2-5.2,6.1c1.8-1.9,3.6-4,5.2-6.1c0,1.9-0.2,3.9-0.7,6
			c-3.4,14.5-15.3,12.4-22.5,32.6c-3.4,9.4-1.1,10.7-5.9,28.4c-4.4,16.1-6.6,16.5-7.1,24.3c-1,16.1,8.4,21.2,7.7,31.4
			c-0.5,7.2-6,14.9-13.5,21.3C501.1,730.1,501.7,692.6,501.6,677.2z"/>
		<path class="st8" d="M630.6,615.3c6.4,41.5,19.5,123.6,24.8,139c0.2,0.5,2.1,12.9,3.5,21.6c14-7.5,29.4-14.9,29.6-19.5
			c0.3-9.3-18-15.6-25.5-32.3c-5.4-12-0.2-10.2-5.9-32.6c-3.8-14.9-12.3-12.7-14.2-22.2c-5.3-26.9,8-43.9-0.1-51.5
			C641,616,637.5,614.4,630.6,615.3z"/>
		<path class="st2" d="M657.1,462c1.5,5.1,4,9.6,7.5,12.6c10.9,9.6,27.2-3.1,51.8,6.9c2.6,1.1,18.1,7.6,28.4,23.1
			c13.1,19.6,4.1,32.9,14.2,48.6c3.2,5,7.7,9.3,13,12.9c15.3-34.9,14-83.5-43.6-98C684,457,667.5,461.4,657.1,462z"/>
		<polyline class="st3" points="534.8,540.8 501.6,670.2 501.1,722.9 		"/>
		<line class="st3" x1="636.9" y1="657.3" x2="658.9" y2="776"/>
		<polyline class="st13" points="664.6,351.3 657.1,350.5 653,423.9 		"/>
		<line class="st13" x1="589.8" y1="351.4" x2="589.8" y2="412.2"/>
		<path class="st16" d="M571.7,684.3c0.3-0.3-7.9,18.7-7.8,22c0.2,10.5,1.3,39.3,3.1,49.6"/>
		<path class="st16" d="M570.3,709.1c2.5,17.1,4.3,34.3,5.4,51.5"/>
		<path class="st16" d="M705.4,630.4c1.3,17.1,4,34.1,8,50.7"/>
		<path class="st16" d="M698.7,652.2c1.3,12.4,3.6,24.8,6.8,36.9c5.2,19.7,13,39.7,10.3,59.9"/>
		<path class="st16" d="M716.8,695.3c0.9,7.3,1.9,14.5,2.8,21.8"/>
		<path class="st16" d="M651.7,672.2c0.5,2.1,2.2,3.7,3.7,5.2c6,6.4,9.4,15.3,9.1,24.1"/>
		<path class="st16" d="M654.2,640.6c-0.2,8.8,1.8,17.6,5.7,25.4"/>
		<path class="st16" d="M554.6,525.9c1.1,4.7,2.3,9.5,5.2,13.4c2.4,3.2,5.8,5.4,9.1,7.6c2.9,2,5.9,3.9,9.1,5.3
			c10.1,4.4,22.6,3.4,31.2,10.4"/>
		<path class="st16" d="M616.7,578.7c-3.7-3.8-7.4-7.7-11.9-10.5c-4.5-2.8-9.9-4.6-15.1-3.8"/>
		<path class="st16" d="M566.2,415.9c-5.1,3.2-11.3,4.5-17.3,3.8"/>
		<path class="st16" d="M553.1,400.7c-2.5-0.2-5-0.7-7.4-1.6"/>
		<path class="st16" d="M686.7,417.6c-6.5,1.2-13,1.7-19.6,1.7"/>
		<path class="st16" d="M683.5,409.2c-6.3,2.2-13,3.3-19.6,3.2"/>
		<path class="st16" d="M665.7,376.7c-2.4,11.1-3.6,22.4-3.6,33.7c0,5.5,0.1,11.6-3.6,15.6"/>
		<path class="st16" d="M661.3,429.7c2.1-0.7,3.5-3.2,3.1-5.4"/>
		<line class="st16" x1="685.4" y1="460.2" x2="659.6" y2="460.2"/>
		<path class="st16" d="M561.8,346.4c5.2,4.4,10.1,9.2,14.8,14.1"/>
		<path class="st16" d="M647.8,326.9c0.8,6.6,3,12.9,6.5,18.6"/>
		<path class="st16" d="M641.3,326c0.3,3.9,0.6,7.9,0.9,11.8"/>
		<path class="st16" d="M590,307c-0.4,11.9,0.8,20.7,0.4,32.6c0,1.3-0.1,2.6-0.7,3.7"/>
	</g>
	<line class="st13" x1="340.9" y1="724.5" x2="340.9" y2="925.2"/>
	<line class="st13" x1="352.3" y1="750.1" x2="371.6" y2="750.1"/>
	<line class="st13" x1="352.3" y1="760.6" x2="371.6" y2="760.6"/>
	<line class="st13" x1="352.3" y1="771.1" x2="371.6" y2="771.1"/>
	<rect x="348.2" y="742.8" class="st13" width="27.2" height="35.9"/>
	<polyline class="st13" points="226.3,742.8 325.2,742.8 325.2,778.6 187.6,778.6 187.6,761.6 	"/>
	<circle class="st13" cx="204.2" cy="761.6" r="5.1"/>
	<circle class="st13" cx="226.3" cy="761.6" r="5.1"/>
	<circle class="st13" cx="248.4" cy="761.6" r="5.1"/>
	<rect x="264.6" y="756.4" class="st13" width="47.8" height="10.2"/>
	<g>
		<circle class="st13" cx="252.4" cy="843.8" r="43.5"/>
		<circle class="st13" cx="252.4" cy="843.8" r="36.1"/>
		<circle class="st13" cx="252.4" cy="843.8" r="17.9"/>
	</g>
	<line class="st13" x1="161.8" y1="906.7" x2="383.7" y2="906.7"/>
	<rect x="340.3" y="813.2" class="st8" width="43.4" height="43.4"/>
	<line class="st3" x1="382.7" y1="813.2" x2="382.7" y2="848.9"/>
	<line class="st3" x1="435.6" y1="929.5" x2="579" y2="929.5"/>
	<line class="st3" x1="545.2" y1="922.4" x2="602.7" y2="922.4"/>
	<line class="st3" x1="603.9" y1="952.4" x2="747.7" y2="952.4"/>
	<line class="st3" x1="719.4" y1="947.5" x2="849.8" y2="947.5"/>
	<rect x="451" y="912" class="st2" width="130" height="5"/>
	<rect x="637" y="932" class="st2" width="131" height="5"/>
</g>
</svg>
