<?xml version="1.0" encoding="utf-8"?>
<!-- Generator: Adobe Illustrator 24.0.3, SVG Export Plug-In . SVG Version: 6.00 Build 0)  -->
<svg version="1.1" id="Layer_1" xmlns="http://www.w3.org/2000/svg" xmlns:xlink="http://www.w3.org/1999/xlink" x="0px" y="0px"
	 viewBox="0 0 961 943" style="enable-background:new 0 0 961 943;" xml:space="preserve">
<style type="text/css">
	.st0{fill:#F55C4A;}
	
		.st1{fill-rule:evenodd;clip-rule:evenodd;fill:#1C2628;stroke:#1C2628;stroke-width:2.13;stroke-linecap:round;stroke-linejoin:round;}
	
		.st2{fill-rule:evenodd;clip-rule:evenodd;fill:#F45B49;stroke:#1C2628;stroke-width:2.13;stroke-linecap:round;stroke-linejoin:round;}
	
		.st3{fill-rule:evenodd;clip-rule:evenodd;fill:#FAFCFF;stroke:#1C2628;stroke-width:2.13;stroke-linecap:round;stroke-linejoin:round;}
	.st4{fill:none;stroke:#1C2628;stroke-width:2.13;stroke-linecap:round;stroke-linejoin:round;}
	.st5{fill:none;stroke:#FAF6EB;stroke-width:2.13;stroke-linecap:round;stroke-linejoin:round;}
	
		.st6{fill-rule:evenodd;clip-rule:evenodd;fill:#FAF6EB;stroke:#1C2628;stroke-width:2.13;stroke-linecap:round;stroke-linejoin:round;}
	.st7{fill-rule:evenodd;clip-rule:evenodd;fill:#FB564C;}
	.st8{fill:#FB564C;}
	.st9{fill:#F3A140;stroke:#1C2628;stroke-width:2.13;stroke-linecap:round;stroke-linejoin:round;}
	
		.st10{fill-rule:evenodd;clip-rule:evenodd;fill:#F3A140;stroke:#1C2628;stroke-width:2.13;stroke-linecap:round;stroke-linejoin:round;}
	.st11{fill-rule:evenodd;clip-rule:evenodd;fill:#F3A13B;}
	.st12{fill-rule:evenodd;clip-rule:evenodd;fill:#F55C4A;}
</style>
<g>
	<g>
		<path class="st0" d="M679.9,497.7c1.8,29-34,54.3-57.5,84.3c-24,29.8-35.6,63.8-58.9,76.8c-23.4,13.6-57.8,5.8-97.6,10.9
			c-39.7,5.1-84.5,23.5-117.1,9c-32.4-14.1-52.9-60.9-57.2-104.1c-4-42.8,8.2-81.9-1.6-129.4c-10.3-47.7-42.5-103.5-34.4-134.7
			c7.9-31.6,56.5-37.9,97-63.7c41-25.6,43-59.9,80.4-61.4c29-1.6,26.5,32.3,71.3,53.6c37,17.6,54.4,63.6,38.7,100.5
			c-9,21.1-15.6,41.5-6.5,58.8C558.7,439.5,678.4,468.6,679.9,497.7z"/>
		<path class="st1" d="M342.1,256.3c7.5-3.3,5.5-16.8-4.6-24.3s-26.4-0.7-30.5-0.9c-23.4-1.2-31.5,20.6-23.8,44.6
			c2.2,7,21.1,24.5,28.7,19.9c7.8-4.7-7.4-27-0.8-32.1"/>
		<path class="st2" d="M299,277c0,0-1.3,25.6-4,31c-7.9,15.8-44.8,49.2-44.8,49.2s43.8-2.3,57.9-3.9S346,331,346,331l-11.7-44.4
			L299,277z"/>
		<path class="st2" d="M293,275.9c-2.1-15.7,8-30,22.6-31.9c7.2-1,14.4-6.2,19.9-1.7s9.2,18.8,10.2,26.6c2.1,15.7-8,30-22.6,31.9
			c-7.9,1-15.7,1.6-21.3-3.7C297,292.6,293.9,283.1,293,275.9z"/>
		<path class="st2" d="M338.5,264.5c3.4,4.2,12.6,11.9,11,14.6c-2,3.6-9.8-0.5-10.6-1.3"/>
		<path class="st3" d="M316.4,262.9c0.3-2.2,3.2-3.6,6.4-3.2c3.2,0.5,5.6,2.6,5.3,4.8c-0.3,2.2-3.2,3.6-6.4,3.2
			C318.4,267.3,316,265.1,316.4,262.9z"/>
		<path class="st3" d="M338.2,263.4c0.3-2.1,2.5-3.4,5.1-3c2.5,0.4,4.4,2.4,4.1,4.5s-2.5,3.4-5.1,3
			C339.8,267.5,338,265.4,338.2,263.4z"/>
		<path class="st1" d="M339.8,240.4c2.2,1.6,1.3-4.3,2.2-1.5c3,8.9-3.2,7.8-10.1,7.8c-6.5,0-14,2.7-14,2.7s-9.6-0.8-11,11.2
			c-0.5,4.3,4,13.8,14.4,19.1c8.4,4.3,24.1,2,24.1,2s0.2,27.6-10.6,31.2c-6.9,2.3-17.9,6.5-27.4-5.6c-2.1-2.7-14.7-23.4-15.9-28.6
			c-1.3-5.8,8.4,2.4,7.8-2.1c-1.3-9.8-0.9-11.4-2.7-12.1c-6.7-2.4-9.6-10.9-5.4-16.1c3.5-4.2,8.4-6.7,13.5-8.2
			c5.3-1.5,11.3-0.9,16.3-2.7"/>
		<path class="st1" d="M325.1,237.4c-5.4-21.8-22.3-17.5-23.4-6.1c-7.7-9.7-28.9-1-20,17.6c-3.5-1.5-9.3,15.4,9.3,12.2"/>
		<path class="st2" d="M298.6,265c0.8,0.1-2.9-3.6-7.3,1.6c-3.1,3.6,0.2,13.9,7.3,10.3"/>
		<path class="st4" d="M294.9,269.8l0.2,0.6l0.4,1l0.9,0.9l0,0"/>
		<path class="st1" d="M327.1,264.4c0.1-1.5-1.1-2.8-2.6-2.8c-1.5-0.1-2.8,1.1-2.8,2.6c-0.1,1.5,1.1,2.8,2.6,2.8
			C325.8,267.1,327.1,265.9,327.1,264.4z"/>
		<path class="st1" d="M346.7,264.7c0.1-1.4-0.8-2.6-2-2.6c-1.2-0.1-2.2,1-2.2,2.4c-0.1,1.4,0.8,2.6,2,2.6
			C345.6,267.2,346.6,266.1,346.7,264.7z"/>
		<path class="st5" d="M339.2,249.5c2.9-0.8,4.1-4.5,5.1-6.8"/>
		<path class="st6" d="M344.7,238.8c0,0-16.5,0-20.4,0.3c-8.5,0.8-14,3.8-20.7,8.8c-6.5,4.9-12,11.4-17.3,17.6
			c-0.6,0.7-3.5,6.6-2.5,6.1c1.1-0.5-2.9,2.2-4.7,2.7c-3.8,0.9-9-0.5-11.6-3.5c-9.3-10.9-7.9-18.1-3.1-30.1
			c3.7-9.3,9.8-14.4,16-17.1c11.1-4.8,22.6-2,22.6-2s20.2-2,27.4,0.6c4.5,1.7,7.7,4.5,9.9,7.4C343.7,234.1,344.7,238.8,344.7,238.8z
			"/>
		<path class="st7" d="M324,284c-2.9-3.8,1.8-9.3,1.8-9.3l3,6.8l6.7,2.5C335.6,284.1,329.4,291,324,284z"/>
		<path class="st2" d="M224.5,379.2c0,0-95-56.1-77.8-79.8c17.3-23.7,97.1-70.5,97.1-70.5l-7.1-30.2L264,175c0,0,3.5,2,1,8.9
			s-12.3,14.3-12.3,14.3s23.8,30.9,14,42.5c-19.5,23.4-69.2,61.8-69.2,61.8l56.7,30.9L224.5,379.2z"/>
		<path class="st2" d="M318.6,550.3l-28.7,55l-38.1,73c0,0-45.2,95-57.5,120.4c-4.5,9.3-11.7,16.5-18.9,21.8
			c-12.5,9.2-25.3,13-25.3,13s-31.2,18.6-53,23S62.7,851,62.7,851l61.3-56.2l54-133.5l42.9-102.1L318.6,550.3z"/>
		<path class="st1" d="M289.8,605.3l-38.1,73c0,0-45.2,95-57.5,120.4c-4.5,9.3-11.7,16.5-18.9,21.8c-5.8-1.1-10.2-3.3-12.3-6.8
			c-8.2-14.1,19.3-53.9,34.9-72.3c6.8-8,13-13.9,15.4-24.9c3.9-17.6-6.5-28.5,0-36.7c6.7-8.5,21.6-1.6,27.9-10.7
			c3.6-5.3,0.8-10.9,0-19.6c-1.9-21.5,10.3-47.6,24.9-51.5C273.5,596,282.2,599.5,289.8,605.3z"/>
		<path class="st2" d="M453.4,649.1c-1.3,30-92.6,164.3-92.6,164.3l5.9,3.6l56.5,34.2L286,843.4l81.7-187.8L339.3,568l65.7-41.3
			c0,0,19,35.4,33.2,69.5C446.9,617.1,453.9,637.6,453.4,649.1z"/>
		<path class="st1" d="M453.4,649.1c-1.3,30-92.6,164.3-92.6,164.3l5.9,3.6c-9.1-1.5-15.7-4.7-17.7-9.1c-4-9.1,13.9-17.7,23.1-49.8
			c6.7-23.4,0.2-29.4,8.9-40.9c12.2-16.2,30-11,40-28.4c5-8.8,0.3-9.9,6.4-25.8c7.1-18.5,16.6-25.3,13.3-32.9
			c-2.2-5.1-7.5-4.2-13.3-9.8c-7.9-7.6-8.9-19.8-8.1-29.9c6.3,1.9,12.5,3.8,18.8,5.7C446.9,617.1,453.9,637.6,453.4,649.1z"/>
		<g>
			<polygon class="st8" points="411.1,607 395.6,609.9 395.5,610 354.5,617.7 346.6,601.6 346.6,601.5 337.4,582.6 337.2,582.1 
				330.5,568.5 330.5,568.5 323.3,553.6 323.3,553.6 354.5,617.7 450.5,599.5 411.2,607 			"/>
			<polygon class="st8" points="303.9,589.1 284.6,624.4 257.2,617.1 257.2,617.1 244.8,613.8 284.6,624.4 305.8,585.7 			"/>
			<polygon class="st8" points="388.7,464.7 242.5,471.2 212.9,550.6 223.7,521.7 223.9,521.2 242.5,471.2 388.7,464.7 403,495.9 
				414.6,521.3 414.8,521.7 418.5,529.8 418.6,529.9 435.7,567.2 435.7,567.2 441.9,580.8 442,580.9 450.5,599.5 			"/>
			<polygon class="st9" points="195.6,600.7 195.6,600.7 234.1,611 234.1,611 			"/>
			<polygon class="st9" points="212.9,550.6 211.1,555.3 211.1,555.3 			"/>
			<polygon class="st9" points="194.5,600.4 194.5,600.4 195.6,600.7 195.6,600.7 			"/>
			<polygon class="st9" points="234.1,611 234.1,611 234.1,611 			"/>
			<polygon class="st9" points="211.1,555.3 211.1,555.3 210.9,555.8 210.9,555.8 			"/>
			<polygon class="st9" points="194.3,600.4 210.9,555.8 210.9,555.8 194.3,600.4 194.5,600.4 194.5,600.4 			"/>
			<path class="st9" d="M234.1,611l10.7,2.8L234.1,611z"/>
			<polygon class="st9" points="305.8,585.7 323.3,553.6 323.3,553.6 			"/>
			<path class="st9" d="M377.6,488.6c-4.7-2.3-12.9-2.6-26,0.1h-0.1h0.1C356,487.9,370.1,485.1,377.6,488.6z"/>
			<path class="st9" d="M339.4,470.4c1.6,2.1,2,4.4,1.5,6.9C341.7,474.7,341.5,472.1,339.4,470.4z"/>
			<path class="st9" d="M318.6,469.6c-2,0.4-3.9,0.9-5.9,1.4c8.9-1.8,17.9-2.1,26.7-0.5C335.7,467.4,320.7,469.1,318.6,469.6z"/>
			<path class="st9" d="M411.2,607c3-1.9,6.2-4.2,9.6-6.8C417.7,602.6,414.5,604.9,411.2,607L411.2,607z"/>
			<polygon class="st9" points="339.4,470.4 339.4,470.4 339.4,470.4 			"/>
			<path class="st9" d="M312.7,471c-20.2,4-40.2,15.1-58.6,27.9C272.4,486.6,292,476.3,312.7,471z"/>
			<path class="st9" d="M233.3,538.8c20.3-13.2,43-25.3,66.4-34.6C276.4,513.3,253.8,524.9,233.3,538.8z"/>
			<path class="st9" d="M335.1,487.8c-1.1,1.4-2.2,2.7-3.4,4c4.3-4.5,8.5-9.7,9.3-14.5C339.8,481.8,336,486.6,335.1,487.8z"/>
			<path class="st9" d="M331.7,491.8c-0.7,0.8-1.5,1.5-2.2,2.2h0.1C330.3,493.3,331,492.5,331.7,491.8z"/>
			<path class="st9" d="M329.2,494.3c0.1-0.1,0.2-0.2,0.3-0.3h-0.1c-0.1,0.1-0.2,0.2-0.3,0.3C329.1,494.4,329.2,494.3,329.2,494.3z"
				/>
			<path class="st9" d="M329.4,494c-9.9,2.8-19.9,6.3-29.7,10.2c9.7-3.8,19.5-7,29.3-9.9C329.2,494.3,329.3,494.1,329.4,494z"/>
			<path class="st9" d="M322.1,500.8c2.4-2.1,4.9-4.3,7.1-6.5h-0.1C326.3,497,323.7,499.3,322.1,500.8z"/>
			<path class="st9" d="M322,500.9L322,500.9L322,500.9L322,500.9L322,500.9z"/>
			<path class="st9" d="M351.5,488.7c-7.3,1.4-14.6,3.2-22,5.3c-0.1,0.1-0.2,0.2-0.3,0.3C336.6,492.2,344.1,490.3,351.5,488.7z"/>
			<path class="st9" d="M322,500.9c-15.8,12.8-31.2,26.2-46.8,39.4C291.1,527.3,306.7,514.1,322,500.9z"/>
			<path class="st9" d="M275.2,540.3C254.8,557,234,573.4,213,588.8C234.8,574.2,255.1,557.4,275.2,540.3z"/>
			<path class="st9" d="M376.6,508c-3,1.4-6,2.9-9.1,4.4C370.5,510.9,373.5,509.5,376.6,508z"/>
			<path class="st9" d="M302.3,549.8c-2.8,1.9-5.5,3.8-8.2,5.8C296.8,553.7,299.6,551.7,302.3,549.8z"/>
			<path class="st9" d="M275.2,540.3c15.6-13.3,31-26.7,46.8-39.4l0,0l0,0c1.6-1.6,4.2-3.8,7-6.5c-9.8,2.8-19.6,6.1-29.3,9.9
				c-23.4,9.3-46.1,21.4-66.4,34.6c-7.8,5.3-15.3,11-22.4,17l-16.6,44.5l0.2,0.1c6.3-3.7,12.4-7.6,18.5-11.6
				C233.9,573.4,254.8,557.1,275.2,540.3z"/>
			<path class="st9" d="M373.3,519.1c-3.3,5.1-6.7,10.1-10.3,14.9c5.3-6.8,10.8-14.5,14.6-21.6C375.9,515.4,374.2,517.8,373.3,519.1
				z"/>
			<path class="st9" d="M319.1,538.9c-5.7,3.5-11.3,7.2-16.8,11C307.8,546,313.4,542.4,319.1,538.9z"/>
			<path class="st9" d="M327.7,533.7c-2.9,1.7-5.7,3.4-8.6,5.2C322,537.1,324.8,535.4,327.7,533.7z"/>
			<path class="st9" d="M363,514.6c-3,1.5-6,3-9,4.5C357,517.6,360,516.1,363,514.6z"/>
			<path class="st9" d="M336.4,528.7c-2.9,1.6-5.8,3.3-8.7,5C330.6,532,333.5,530.3,336.4,528.7z"/>
			<path class="st9" d="M274.2,571.3c-3.4,2.9-6.6,5.8-9.9,8.8C267.5,577.1,270.8,574.2,274.2,571.3z"/>
			<path class="st9" d="M244.6,599.3c-0.1,0.1-0.3,0.3-0.4,0.4C244.3,599.5,244.4,599.4,244.6,599.3z"/>
			<path class="st9" d="M260.5,583.6c-0.3,0.3-0.6,0.6-0.9,0.9C259.9,584.1,260.2,583.8,260.5,583.6z"/>
			<path class="st9" d="M244.2,599.7c-3.3,3.5-6.5,7.1-9.7,10.8C237.7,606.8,240.9,603.2,244.2,599.7z"/>
			<path class="st9" d="M234.1,611c0.1-0.2,0.3-0.3,0.4-0.5C234.4,610.6,234.2,610.8,234.1,611L234.1,611z"/>
			<path class="st9" d="M286.1,561.7c-2.7,2.1-5.3,4.2-7.9,6.3C280.8,565.8,283.4,563.7,286.1,561.7z"/>
			<path class="st9" d="M264.3,580.1c-1.3,1.1-2.5,2.3-3.8,3.5C261.7,582.4,263,581.2,264.3,580.1z"/>
			<path class="st9" d="M294.1,555.6c-2.7,2-5.4,4-8.1,6.1C288.7,559.6,291.4,557.6,294.1,555.6z"/>
			<path class="st9" d="M223.8,545.2c-4.4,3.1-8.7,6.5-12.7,10.1l-0.2,0.6c7.1-6,14.6-11.7,22.4-17
				C230.1,540.9,226.9,543,223.8,545.2z"/>
			<path class="st9" d="M312.7,471c2-0.5,3.9-1,5.9-1.4c2.1-0.4,17.1-2.2,20.8,0.9l0,0l0,0c2.1,1.7,2.2,4.2,1.5,6.9
				c-0.9,4.8-5,10-9.3,14.5c-0.7,0.7-1.4,1.5-2.1,2.2c7.3-2.1,14.7-3.9,22-5.3h0.1c13.1-2.7,21.3-2.4,26-0.1c1,0.5,2,1.1,2.7,1.8
				c4.1,4.1,3.2,10,0.8,15.5c7.3-3.4,14.6-6.7,21.9-10l-14.3-31.2l-146.2,6.5l-18.7,50c9.6-7.7,19.7-15.3,30.2-22.3
				C272.5,486.1,292.5,474.9,312.7,471z"/>
			<path class="st9" d="M377.7,512.5c-3.8,7.1-9.3,14.7-14.6,21.6c-3.1,4.1-6.3,8.2-9.7,12c-7,7.9-14.6,15.4-22.8,22.4l6.6,13.6
				c4.4-4.3,8.9-8.5,13.6-12.6c2.8-2.5,5.7-5,8.6-7.5c17.1-15.4,35.6-30.3,55.4-40.8L403,495.9c-7.3,3.3-14.6,6.6-21.9,10
				C380.1,508.2,378.9,510.5,377.7,512.5z"/>
			<path class="st9" d="M414.8,521.7l-0.2-0.4c-19.7,10.4-38.3,25.3-55.4,40.8C376.3,547.3,394.7,532.6,414.8,521.7z"/>
			<path class="st9" d="M415,586L415,586c6.8-6.4,13.6-12.8,20.6-18.9l0,0C428.6,573.2,421.8,579.7,415,586L415,586z"/>
			<path class="st9" d="M418.6,529.9l-0.1-0.1c-1.4,1.7-2.7,3.4-4.1,5.1C415.8,533.2,417.2,531.5,418.6,529.9z"/>
			<path class="st9" d="M337.4,582.6l9.2,18.9c7.5-5.3,14.7-11.1,21.6-17.2c15.5-14,29.5-29.8,43.4-46.1c1-1.1,1.9-2.3,2.9-3.4
				c1.4-1.7,2.7-3.4,4.1-5.1l-3.7-8.1c-20.1,10.9-38.5,25.7-55.5,40.4C351.7,568.9,344.4,575.9,337.4,582.6z"/>
			<path class="st9" d="M368.2,584.3c-6.8,6.1-14,11.9-21.5,17.3l7.8,16.1l41-7.8c-0.6-0.7-0.8-1.5-0.4-2.2c0.2-0.4,0.5-0.8,0.7-1.2
				c1.5-3.7,6.3-8.6,10.8-12.7c2.8-2.6,5.7-5.2,8.4-7.8l0,0c6.8-6.4,13.6-12.8,20.6-18.9l-17.1-37.3c-1.4,1.6-2.8,3.3-4.1,4.9
				C400.1,552.4,385,569.4,368.2,584.3z"/>
			<path class="st9" d="M223.8,545.2c3.1-2.1,6.3-4.3,9.5-6.3c20.5-14,43.1-25.6,66.4-34.6c9.8-3.9,19.8-7.4,29.7-10.2
				c0.7-0.7,1.5-1.5,2.2-2.2c1.2-1.3,2.3-2.6,3.4-4c0.9-1.2,4.7-6,5.9-10.5c0.4-2.4,0.1-4.8-1.5-6.9l0,0l0,0
				c-8.8-1.6-17.8-1.2-26.7,0.5c-20.7,5.4-40.3,15.7-58.6,27.9c-10.8,7.4-21,15.4-30.4,22.8l-10.8,29l-1.7,4.6
				C215.2,551.7,219.4,548.3,223.8,545.2z"/>
			<path class="st9" d="M223.9,521.2l-0.2,0.5c9.4-7.4,19.6-15.4,30.4-22.8C243.6,505.8,233.5,513.5,223.9,521.2z"/>
			<path class="st9" d="M330.5,568.5c8.1-7.1,15.8-14.5,22.8-22.4c2.8-3.4,6.2-7.6,9.7-12c3.6-4.8,7-9.8,10.3-14.9
				c0.9-1.3,2.6-3.7,4.4-6.6c1.2-2.2,2.2-4.3,3-6.4c-1.4,0.6-2.8,1.3-4.1,1.9c-3,1.4-6,2.9-9.1,4.4c-1.5,0.7-3,1.5-4.5,2.2
				c-3,1.5-6,3-9,4.5c-5.9,3.1-11.8,6.2-17.7,9.5c-2.9,1.6-5.8,3.3-8.7,5c-2.9,1.7-5.7,3.4-8.6,5.2c-5.7,3.5-11.3,7.2-16.8,11
				c-2.8,1.9-5.5,3.8-8.2,5.8s-5.4,4-8.1,6.1s-5.3,4.2-7.9,6.3c-1.3,1.1-2.6,2.2-3.9,3.3l-0.1,0.1c-3.3,2.9-6.6,5.8-9.9,8.8
				c-1.3,1.1-2.5,2.3-3.8,3.5c-0.3,0.3-0.6,0.6-0.9,0.9c-4,3.8-7.9,7.6-11.8,11.6c-1.1,1.1-2.1,2.2-3.2,3.3
				c-0.1,0.1-0.3,0.3-0.4,0.4c-3.3,3.5-6.5,7.1-9.7,10.8c-0.1,0.2-0.3,0.3-0.4,0.5l10.6,2.8l12.5,3.3c1.3-0.7,2.6-1.4,4-2.1
				c2.6-1.4,5.2-2.8,7.8-4.3s5.2-2.9,7.8-4.4c2.6-1.5,5.1-3,7.7-4.6c3.8-2.3,7.6-4.7,11.4-7.2c2.7-1.8,5.4-3.6,8.1-5.5l1.8-3.4
				l17.6-32.1l0,0l0,0L330.5,568.5z"/>
			<path class="st9" d="M261.2,615c-1.3,0.7-2.6,1.4-4,2.1l0,0C258.6,616.4,259.9,615.7,261.2,615z"/>
			<path class="st9" d="M421.1,599.9c-0.1,0.1-0.2,0.2-0.4,0.3c-3.4,2.6-6.6,4.9-9.6,6.8l39.3-7.5l-8.5-18.6
				C435.3,588,428.2,594.6,421.1,599.9z"/>
			<path class="st9" d="M284.6,624.4l19.3-35.3c-2.7,1.9-5.4,3.7-8.1,5.5c-3.8,2.5-7.6,4.9-11.4,7.2c-2.6,1.6-5.1,3.1-7.7,4.6
				s-5.2,3-7.8,4.4s-5.2,2.9-7.8,4.3c-1.3,0.7-2.6,1.4-4,2.1L284.6,624.4z"/>
			<path class="st9" d="M284.5,601.7c3.8-2.3,7.6-4.7,11.4-7.2C292.1,597,288.3,599.4,284.5,601.7z"/>
			<path class="st9" d="M303.9,589.1c-2.7,1.9-5.4,3.7-8.1,5.5C298.6,592.8,301.3,590.9,303.9,589.1L303.9,589.1z"/>
			<path class="st9" d="M269,610.8c2.6-1.4,5.2-2.9,7.8-4.4C274.2,607.8,271.6,609.3,269,610.8z"/>
			<path class="st9" d="M350.7,569.5c-4.6,4.1-9.1,8.3-13.6,12.6l0.2,0.5c7-6.7,14.3-13.7,21.9-20.5
				C356.4,564.5,353.5,567,350.7,569.5z"/>
			<path class="st9" d="M353.3,546c3.4-3.9,6.6-7.9,9.7-12C359.6,538.5,356.2,542.6,353.3,546c-7,7.9-14.6,15.4-22.8,22.4l0,0
				C338.7,561.4,346.3,554,353.3,546z"/>
			<path class="st9" d="M380.3,490.4c-0.7-0.7-1.7-1.3-2.7-1.8c6.2,3,6.2,9.6,3.1,17.5c0.1-0.1,0.3-0.1,0.4-0.2
				C383.4,500.4,384.3,494.5,380.3,490.4z"/>
			<path class="st9" d="M380.7,506.1c-0.8,2-1.8,4.2-3,6.4c1.2-2,2.4-4.3,3.4-6.6C381,506,380.8,506,380.7,506.1z"/>
			<path class="st9" d="M415,586c-1.2,1.4-4.7,4.4-8.4,7.8c-4.1,3.9-7.9,8-10.8,12.7c-0.5,1.3-0.6,2.4-0.1,3.4l15.5-2.9
				c3.3-2.1,6.5-4.4,9.6-6.8c6.8-5.3,14.1-12,21.2-19.4l-6.2-13.6C428.6,573.2,421.8,579.7,415,586L415,586z"/>
			<path class="st9" d="M244.6,599.3c1-1.1,2.1-2.2,3.2-3.3c-0.4,0.4-0.9,0.9-1.3,1.3C245.8,598,245.2,598.6,244.6,599.3z"/>
			<path class="st9" d="M247.7,596c3.9-3.9,7.8-7.8,11.8-11.6C255.5,588.2,251.6,592.1,247.7,596z"/>
			<path class="st9" d="M274.2,571.3L274.2,571.3c1.4-1.2,2.7-2.3,4-3.3C276.8,569.1,275.5,570.2,274.2,571.3L274.2,571.3z"/>
			<path class="st9" d="M377.6,488.6c-7.5-3.5-21.6-0.8-26,0.1h-0.1c-7.4,1.6-14.9,3.5-22.3,5.6c-2.3,2.3-4.7,4.4-7.1,6.5l0,0l0,0
				c-15.3,13.2-31,26.4-46.8,39.4c-20.1,17.1-40.4,33.8-62.2,48.5c-0.7,0.5-1.4,1.1-2.2,1.6c-2.9,2.1-8.9,6.5-15.2,10.3l38.5,10.2
				c0.1-0.2,0.3-0.3,0.4-0.5c3.1-3.7,6.3-7.3,9.7-10.8c0.1-0.1,0.3-0.3,0.4-0.4c0.6-0.6,1.2-1.3,1.8-1.9c0.4-0.4,0.9-0.9,1.3-1.3
				c3.8-3.9,7.8-7.8,11.8-11.6c0.3-0.3,0.6-0.6,0.9-0.9c1.2-1.2,2.5-2.3,3.8-3.5c3.3-3,6.5-5.9,9.9-8.8l0.1-0.1
				c1.3-1.1,2.6-2.2,3.9-3.3c2.6-2.1,5.3-4.3,7.9-6.3s5.4-4.1,8.1-6.1s5.4-3.9,8.2-5.8c5.5-3.8,11.1-7.4,16.8-11
				c2.8-1.8,5.7-3.5,8.6-5.2s5.8-3.4,8.7-5c5.8-3.3,11.7-6.4,17.7-9.5c3-1.5,6-3.1,9-4.5c1.5-0.7,3-1.5,4.5-2.2c3-1.5,6-2.9,9.1-4.4
				c1.4-0.7,2.7-1.3,4.1-1.9C383.8,498.2,383.8,491.6,377.6,488.6z"/>
			<path class="st9" d="M213,588.8c-6,4.1-12.2,7.9-18.5,11.6l1.1,0.3c6.3-3.9,12.3-8.2,15.2-10.3
				C211.5,589.8,212.2,589.3,213,588.8z"/>
			<path class="st9" d="M395.7,606.6c-0.2,0.4-0.5,0.8-0.7,1.2c-0.4,0.7-0.1,1.5,0.4,2.2h0.1C395.1,609,395.2,607.9,395.7,606.6z"/>
			<path class="st9" d="M420.8,600.2c0.1-0.1,0.2-0.2,0.4-0.3c7-5.4,14.2-11.9,20.9-19l-0.1-0.1
				C434.9,588.2,427.5,594.9,420.8,600.2z"/>
			<path class="st9" d="M406.6,593.8c-4.5,4.2-9.4,9.1-10.8,12.7C398.7,601.8,402.5,597.7,406.6,593.8z"/>
			<path class="st9" d="M346.6,601.5l0.1,0.1c7.6-5.3,14.7-11.1,21.5-17.3C361.3,590.4,354.1,596.2,346.6,601.5z"/>
			<path class="st9" d="M414.4,534.8c-1,1.1-1.9,2.3-2.9,3.4c-13.9,16.4-27.9,32.1-43.4,46.1C385,569.4,400.1,552.4,414.4,534.8z"/>
			<path class="st9" d="M415,586c-2.8,2.6-5.7,5.2-8.4,7.8C410.3,590.4,413.8,587.5,415,586z"/>
		</g>
		<path class="st6" d="M415.8,407.4L378,419.2l24.1,63.1l-172.1,8l4.7-41.3l5.2-48.3l-39.4-33.1l31.5-63c0,0,33.6,20.3,57.1,18.7
			c23.5-1.6,56.2-8.3,56.2-8.3s15.5-12.4,32.5-15.1c10.7-1.7,21.9,0.5,30.5,11.7c22.3,29.4,47,83.4,47,83.4L415.8,407.4z"/>
		<path class="st4" d="M381.1,365.3l15.3,42.9"/>
		<path class="st1" d="M230.9,431.7l44.9,83.9c0,0,29,2.7,54.9-3.2c25.9-5.9,48.6-20.3,48.6-20.3l3.8-96.7c0.1-1.3-1.3-2.2-2.4-1.6
			c-9.8,4.6-45.8,21.1-78.3,29.5C264.2,433.2,230.9,431.7,230.9,431.7z"/>
		<path class="st1" d="M287.1,467.2L304.4,590c0,0,24,7.2,52.3-1.5c28.3-8.8,46.5-19.8,46.5-19.8l-49.7-111.2L287.1,467.2z"/>
		<path class="st6" d="M314.4,444.4c-43.4,9.8-81.7,5.6-85.5-9.5c-1.9-7.6,5.2-16.4,18.2-24.6c13-8.2,31.8-15.7,53.5-20.6
			c41.5-9.4,78.4-5.9,84.8,7.6c0.3,0.6,0.5,1.3,0.7,1.9C390,414.3,357.8,434.5,314.4,444.4z"/>
		<path class="st5" d="M293,517.6c0,0,27.9-4.2,41-7.4"/>
		<path class="st5" d="M251.1,468.7c17.5,17.5,27.3-4.3,40.3-9.9c11.1-4.8,17,8.9,26.3,7.6c15.1-2.2,18.5-18.1,26.9-20.4
			c15.9-4.6,21.7,5.5,32.7-12.9"/>
		<path class="st5" d="M283.5,470.4l15.6,46.2"/>
		<path class="st5" d="M323.9,468l9.8,40.9"/>
		<path class="st5" d="M363.4,452.4l5.4,37.6"/>
		<path class="st2" d="M351.5,425.2L275,457.9c0,0,0.1,4.9,8.4,4.8c8.2-0.1,18.1-4.9,18.1-4.9s-35.7,27.8-35.6,32.2
			c0,4.4,26.9-13.6,26.9-13.6s-24.6,23.9-19.9,23.6s32.9-21.7,32.9-21.7s-27.1,27.8-22.4,27.9c4.6,0.1,35.4-24.6,35.4-24.6
			s-31.5,31.2-23.8,27.5c7.8-3.6,54.8-42,54.8-42s77.4-21.4,87.4-26.7c30.8-16.5,17.8-46.8,17.8-46.8L351.5,425.2z"/>
		<g>
			<path class="st6" d="M443,842c0.2,0.8,10.2,1.2,6.7,7.6c-3.6,6.6-20.1,10.1-27.7,11.6c-27.3,5.4-77.6-6.5-107.5-7.7
				c-8.5-0.3-30.7-0.8-31.1-10.8c-0.6-15.2,19-19,35.3-19.2c29.5-0.4,59.9,8.8,88,15C413.7,840,441.7,837.8,443,842z"/>
			<path class="st1" d="M377.5,847.6c3.9-9.6,24.2-19.5,31.3-22.1c1.4-0.5,4.2-1.5,7-2.2c4.7,2.5,9.7,5.4,13.5,6.8
				c23.5,9.3,22.4,11.3,17.8,16.3C442.4,851.3,397.6,851.9,377.5,847.6z"/>
			<path class="st1" d="M295.1,815.5c7.3,4.6,18.7,11.1,25.1,17.9c-18.9,3-35.1,2.4-35.1,2.4L295.1,815.5z"/>
			<path class="st6" d="M305.3,794.7c0,0,2.4,18,20.4,11.1s32.8-19,32.8-19s32.7,23.3,57.4,36.4c-2.8,0.7-5.5,1.6-7,2.2
				c-7,2.6-27.4,12.5-31.3,22.1h-0.1c-20.1-4.3-37.4-17.3-56.6-14.2c-0.3,0-0.4,0-0.7,0c-6.3-6.8-17.8-13.3-25.1-17.9L305.3,794.7z"
				/>
			<path class="st2" d="M391.3,809.3c0,0-5.3,7.5-6.7,9.1"/>
			<path class="st2" d="M382.4,803.3l-6.6,8.8"/>
			<path class="st2" d="M372.3,797.7l-6.2,8.5"/>
		</g>
		<g>
			<path class="st6" d="M56.8,839.3c-0.2,0.7-9.2,1.1-6,7.4c3.3,6.4,18.2,9.8,25.1,11.3c24.7,5.2,70.2-6.3,97.3-7.4
				c7.7-0.3,27.8-0.8,28.1-10.5c0.5-14.8-17.2-18.5-31.9-18.7c-26.7-0.4-54.2,8.5-79.7,14.6C83.4,837.4,58,835.2,56.8,839.3z"/>
			<path class="st1" d="M116.1,844.7c-3.5-9.3-21.9-19-28.3-21.5c-1.3-0.5-3.8-1.5-6.3-2.1c-4.3,2.4-8.8,5.2-12.2,6.7
				c-21.3,9-20.2,11-16.1,15.8C57.4,848.3,98,848.9,116.1,844.7z"/>
			<path class="st1" d="M190.7,813.5c-6.6,4.5-16.9,10.8-22.7,17.4c17.1,2.9,31.8,2.4,31.8,2.4L190.7,813.5z"/>
			<path class="st6" d="M199.8,786.8c0,0-20.5,24-36.7,17.3S127.4,780,127.4,780s-23.6,28.3-45.8,41.1c2.5,0.6,5,1.6,6.3,2.1
				c6.4,2.5,24.8,12.1,28.3,21.5h0.1c18.2-4.2,33.8-16.8,51.2-13.8c0.2,0,0.4,0,0.6,0c5.7-6.6,16.1-12.9,22.7-17.4L199.8,786.8z"/>
			<path class="st2" d="M101,806.6c4.8,4.9,4.4,4.7,7.7,7.6"/>
			<path class="st2" d="M108.7,801.4l7.6,7.4"/>
			<path class="st2" d="M116.6,794.4l7.2,7.1"/>
		</g>
	</g>
	<path class="st1" d="M415.8,405.5c4.3-6.2,9.8-11.4,7.9-21.3c-2.3-12.3-13.3-14-16.4-29.8c-2.3-11.9,3.1-14.7-0.5-22.2
		c-6.1-12.8-24.2-9-28.9-20.4c-1.5-3.6-1.3-7.9,0-11.9c10.7-1.7,21.9,0.5,30.5,11.7c22.3,29.4,47,83.4,47,83.4L415.8,405.5z"/>
	<path class="st1" d="M385.4,397.3c-5.8,6.7-13.6,11.9-21,12.3c-10.5,0.6-14.8-9.1-27.9-8.9c-10.4,0.2-14.8,6.4-26.7,13.6
		c-18.2,11-47.8,20.4-58.1,10.7c-3.4-3.2-4.9-8.6-4.8-14.7c13-8.2,31.8-15.7,53.5-20.6C342.1,380.3,379,383.8,385.4,397.3z"/>
	<path class="st1" d="M340.2,229.5c-3.4,0.8-7,1.2-10.4,1.1c-4.4,0-4.1-0.8-10.7-1.5c-21.3-2.3-31.1,4.6-36.4-0.9
		c-1.2-1.3-2-2.9-2.3-4.7c11.1-4.8,22.6-2,22.6-2s20.2-2,27.4,0.6C334.8,223.8,338,226.6,340.2,229.5z"/>
	<g>
		<circle class="st1" cx="801" cy="674.6" r="4.2"/>
		<circle class="st1" cx="820.4" cy="670.9" r="4.2"/>
		<circle class="st1" cx="838.1" cy="667.6" r="4.2"/>
		<path class="st1" d="M675.8,534.1c24.5-5.5,52.7,4.3,66.7,26c11.4,17.7,15.4,46.3,1.8,58.1c-10.3,9-26.5,4.6-48.3-1.2
			c-26.6-7.1-64.2-17.2-66.5-38.9C627.6,559.6,652.4,539.4,675.8,534.1z"/>
		<path class="st10" d="M745.3,595.9c-23.1-56-63.1-30.2-63.1-30.2H666l-20.6-14.2l-7.8-21.9l-36.9,5.2l2.7,10.1l-3.7,18.9
			c-7.9-2.7-24.8-7.6-43.7-7.6s-26.2,39.6-26.2,39.6l57.4,73.4l-15.2,65l106.8-2.8l-1.1-86.2l24.4-9l49.4,118.4l30.2-52.1
			C781.7,702.6,760.7,633.2,745.3,595.9z"/>
		<g>
			<path class="st1" d="M598.5,501.5c-1-0.9-4.2-1.9-4.7-2.9c-2.2-4.4-9.5-14.5-5.4-21.6c4.2-7.1,8.7-4,8.7-4s2.2-15.5,17.5-3
				c1.8,1.5,2.7-0.8,3.7,1.4c0.8,1.7,1.2,3.6,1.8,5.4"/>
			<path class="st1" d="M666.9,512.9c0.6,1.9,3.8,5.2,3.8,7c0,7.6,2.8,26-6.3,33.6c-9,7.5-12.5,0.3-12.5,0.3s-11.5,20.5-22.2-6.3
				c-1.3-3.2-3.6-0.5-3.5-4.2c0.1-2.9,0.7-5.8,1.1-8.7"/>
			<path class="st1" d="M590.1,513.8c-0.2-25.6,6.4-20.6,8.4-27.4c4.1-13.6,8.7-17.8,34-13.6c4.4,0.7,9.7,1.4,13.6,3.9
				c17.6,11.2,15.9,26,15.9,26s6.4,35.3-32,34.8c-38.4-0.4-0.1-0.6-20-7.7C590.1,522.8,590.1,513.8,590.1,513.8z"/>
			<path class="st10" d="M632.5,519.9c1.8-5.8-6.9-22.7-8.2-28.2c-2.3-9.8,13.7-4.2,4-7.3c-10.9-3.5-20.8-4.8-28.3,3.7
				c-2.9,3.3-8.4,21-9.8,25.6c-5.2,16.3,3.3,28.5,18.4,33.3c9.7,3.1,17.7,2.5,25.2-4.1C637.9,539.2,630.6,525.8,632.5,519.9z"/>
			<path class="st4" d="M603,509c0,0,0.1,2.4,2.1,3.5c2,1.1,4,0.3,4.6-1.8"/>
			<path class="st11" d="M635.7,543.2l-3.2-10c0,0-16.4-2.4-21.2,2.5s-0.5,21.5-0.5,21.5l11.6,2.2"/>
			<path class="st10" d="M626.6,513.5c2.3-2.6,6.6,0.3,7.3,2.9c1.5,5.4-4.4,13.9-12.4,6.9"/>
			<path class="st4" d="M626.8,519.1c0,0,1.3-1.2,1.1-1"/>
			<path class="st1" d="M605.7,521.9c-1.1,1.1-4.6-2.7-4,4.3c0,0,0.3,7.5,6.4,5.6C612.3,530.6,605.7,521.9,605.7,521.9z"/>
			<path class="st10" d="M594.8,511.5c0,0-8.5,8.3-8.9,10.3c-0.1,3.5,5.2-0.1,6.1,0.7"/>
			<path class="st1" d="M608,476.3l-8,11.8c10.1-11.8,11.8,23.1,36.7,24c0.7,0,14,3.9,13.9,3c-0.1-1.2-2.1-1-2.9-1.9
				c-1.8-2-2.3-4.2-2.7-6.7c-0.5-3.1,2.4-9.5-0.1-12c-4.1-4.1-9.7-17.7-14.7-17.3L608,476.3z"/>
			<path class="st1" d="M633.3,479.5c1.1-0.7,3-3.5,4.2-3.7c4.9-0.8,16.6-5,22.2,1c5.7,6,1.3,9.5,1.3,9.5s14.3,6.5-2.2,17.6
				c-1.9,1.3,0,2.8-2.4,3.1c-1.9,0.2-3.8,0.1-5.7,0.2"/>
			<path class="st1" d="M610.9,485.3c0.1-1.3-1.2-4.5-0.7-5.5c2-4.5,5.1-16.6,13.3-17.8c8.2-1.3,8.6,4.2,8.6,4.2s13.4-8.2,13.4,11.7
				c0,2.3,2.3,1.6,1.2,3.8c-0.9,1.7-2,3.2-3.1,4.8"/>
			<path class="st1" d="M645.8,496c2,0.2,6-1,7.8-0.3c7.7,2.8,27.2,7.6,33.3,17.3c6.2,9.7-1.8,9.7-1.8,9.7s19,16.5-10.3,14.6
				c-3.5-0.2-1.2,2.6-5,1.1c-2.9-1.2-5.8-2.7-8.7-4"/>
		</g>
		<path class="st10" d="M759.4,876.3L740.7,895c-3,3-7.3,4.1-11.3,3.1l-9.1-2.4l-60.5-16c0,0-32.9,0-72.9,0
			c-26.6,0-89.4,1-128.5-11.1c-19.7-6.1-33.3-15.5-33.3-30.1c0-43.4,93.8-89,93.8-89h45.9l50.6,50.6l-38.5,19.7l76.7,7.2
			c0,0,3.3-2.9,15.5-2.9c18.8,0,24.6,19.2,24.6,19.2s50,0,58.3,8.3l7.5,7.5C764.1,863.7,764.1,871.5,759.4,876.3z"/>
		<path class="st10" d="M912.2,797.3v2.8l-46.4-1.1l-9.3-0.2c0,0,0.6,44.1-8.9,53.6s-24.3,10.7-59.9,10.7c-35.6,0-155.8-63-155.8-63
			l19.8-22l39.4-43.6l96.6,34.3h10.6l4.7-4.7l10.2-10.2c2.7-2.7,6.6-4.1,10.4-3.7l50,5.3c3,0.3,5.9,1,8.6,2.1
			c4.5,1.7,8.6,4.4,12.1,7.8l7.7,7.6C908.6,779.4,912.2,788.2,912.2,797.3z"/>
		<path class="st1" d="M856.5,798.7c0,0,0.6,44.1-8.9,53.6S823.3,863,787.7,863c-35.6,0-155.8-63-155.8-63l19.8-22
			c13.8-1.7,27.3-0.1,35.8,6.6c11.8,9.3,10.9,25.7,29.6,36.7c10.1,5.9,20.3,7,26.7,7.7c24.9,2.7,32.4-8.1,45-1.8
			c12.7,6.4,11,20,22.5,22.5c8.7,1.9,19.6-3.8,24.3-11.9c8.4-14.4-6.6-30,0-37.9c4.5-5.4,17.9-5.6,30.1-1.2L856.5,798.7z"/>
		<path class="st1" d="M553.9,615.4c20.3-1,40.7-2,61-3c7.7,3,15.4,5.9,23.1,8.9c5.3-2.8,10.7-5.5,16-8.3
			c16.4,2.2,32.8,4.3,49.2,6.5c-7.5,23.1-15,46.2-22.5,69.3c-33.4,0.6-66.8,1.2-100.1,1.8C571.7,665.5,562.8,640.4,553.9,615.4z"/>
		<path class="st2" d="M792.7,763.8c0,0-28.9,16.4-47.4,34.9s-41.6,21.5-63.1,0s-60.4,46.8-99.9,46.8s-20.9-20.9-52.5-20.9
			s-19.1,0-52,0c-3.5,0-6.8-0.2-9.8-0.5c-25.2-2.8-33.6-16-33.6-16l119.5-103.6h130.5l18.6,10.2L792.7,763.8z"/>
		<polyline class="st5" points="579.4,621.3 613.5,621.3 635.7,633 655.7,623.4 691.2,627.1 		"/>
		<path class="st5" d="M655.2,631.2c3.6-0.8,7.1,1.3,10.6,2.3c5.5,1.5,11.3,0.5,17,0.9"/>
		<path class="st5" d="M653.5,637.3c5.8,0.3,11.4,3.4,17,2.3"/>
		<path class="st5" d="M681.6,641.2c-4.1,10.5-6.7,21.6-7.6,32.9"/>
		<path class="st5" d="M671.6,653.7c-0.2,3.3-0.7,6.6-1.6,9.8c-0.5,2-1.2,4-0.8,6.1"/>
		<path class="st5" d="M576.8,641.5c-0.1,3.8,0.1,7.6,0.5,11.4"/>
		<path class="st5" d="M580.8,641.3c0.3,5.4,1.6,10.8,3.7,15.8"/>
		<line class="st4" x1="740.7" y1="895" x2="727.6" y2="890"/>
		<line class="st4" x1="747.7" y1="887.9" x2="737.1" y2="883.7"/>
		<line class="st4" x1="755.7" y1="879.9" x2="745.1" y2="875.1"/>
		<line class="st4" x1="911.9" y1="792.7" x2="900.6" y2="792.7"/>
		<line class="st4" x1="909.5" y1="783.8" x2="900.6" y2="783.8"/>
		<line class="st4" x1="904.2" y1="775" x2="896.9" y2="775"/>
		<line class="st4" x1="798.4" y1="768.7" x2="827.7" y2="775"/>
		<line class="st4" x1="856.5" y1="798.7" x2="856.5" y2="783.8"/>
		<path class="st4" d="M582.8,574.9c13.2,14.7,40.7,3.9,55.2,17.3c3.5-4.9,10.2-6.4,16.2-6.2s12,1.7,18,1.2"/>
		<path class="st4" d="M637.4,485.1c9.5,3.3,19.5,5.2,29.6,5.6c6.9,0.2,14-0.2,20.6,1.9s12.8,7.6,13,14.5c0.1,2.4-0.5,4.9,0.2,7.1
			c1.7,5.5,9,6,14.4,8c7.6,2.8,13,10.6,13,18.7c0,8.1-5.5,15.9-13.1,18.6"/>
		<path class="st4" d="M624.8,472.8c5.7,0,11.6,0,17.1-1.7c2.2-0.7,4.3-1.6,6.5-1.9c6.4-0.8,12.4,3.5,16,8.8c7,10.1,7.5,24.3,1.3,35
			"/>
		<path class="st4" d="M669,521c8.6-1.5,18-2.8,25.6,1.4c3.5,2,6.4,5.1,10.1,6.8c4.3,2,9.2,1.8,13.9,2.2c8.7,0.6,17.8,3.2,23.4,9.9
			c5.6,6.7,5.7,18.2-1.5,23.2"/>
		<path class="st1" d="M720.3,895.6l-60.5-16c0,0-32.9,0-72.9,0c-26.6,0-89.4,1-128.5-11.1c5.8-6.7,13.5-12.6,21.8-15.6
			c19.8-7.1,29.1,7.3,68.1,10.7c24.4,2.1,45.5-1.4,58.7-3.6c30.3-5,36.2-11.1,56.9-8.9c19.7,2.1,39.4,10.2,41.5,20.2
			c0.4,1.8,0.6,5.6,3.5,8.3c3.7,3.3,7.9,1.4,10.4,3.5C721.7,885.2,721.6,890.3,720.3,895.6z"/>
		<path class="st1" d="M882.4,757.4c-4.7,5.5-12.9,9.9-20.4,9.9c-9.3,0-11.1-6.9-22.2-6.7c-2.8,0.1-8.6,1.5-20.2,4.4
			c-7.2,1.8-9.8,2.6-12.9,1.3c-1.3-0.6-2.5-1.4-3.6-2.4l10.2-10.2c2.7-2.7,6.6-4.1,10.4-3.7l50,5.3
			C876.7,755.7,879.6,756.4,882.4,757.4z"/>
		<path class="st1" d="M792.7,763.8c0,0-28.9,16.4-47.4,34.9s-41.6,21.5-63.1,0s-60.4,46.8-99.9,46.8s-20.9-20.9-52.5-20.9
			s-19.1,0-52,0c-3.5,0-6.8-0.2-9.8-0.5c5.4-9.7,42.3-9.3,52.1-15c21.2-12.4,23.2-17.1,63.3-9.6c21.2,4,35.2,8.6,48.6,0.5
			c11.9-7.1,8.3-15.2,19.8-22c16.1-9.4,40.9-4.2,66.6,1.3c7.9,1.7,14.7,3.5,21.3,0c8.4-4.5,15.1-16.6,11.8-24.6
			c-5.5-13.3-34.2-4.1-45-20.4c-3.6-5.5-4.7-13-3.5-19.8L792.7,763.8z"/>
		<path class="st5" d="M623,828c0,0,37-33,51-33.4c15.9-0.4,15.3,9.1,29.3,18s28.8-2.2,42-13.9"/>
		<line class="st4" x1="564.7" y1="749.5" x2="544.5" y2="798.7"/>
		<line class="st4" x1="637.4" y1="725.7" x2="651.8" y2="778.1"/>
		<line class="st4" x1="655.7" y1="742.6" x2="671.6" y2="783.8"/>
		<line class="st4" x1="682.9" y1="725.7" x2="746" y2="785.6"/>
		<line class="st4" x1="728.3" y1="751.9" x2="759.2" y2="777.4"/>
		<g>
			<path class="st6" d="M626.3,629.7c-19.2-12.6-38.7-2.2-58.6-0.4c-15.7,1.4-20.9-7.7-36-11.8c-46.9-12.9-105.4,4.9-98.3,81
				c0.3,2.9,0.7,5.9,1.2,8.8c6.8,37.5,39.2,66.4,95.1,52.8c44.4-10.9,49.9-23.9,58.3-30.1c3.4-2.5,34.3,3,46-9.5
				c11.3-12-8.5-28.2-15.6-37.1C615.3,679.4,641.8,639.9,626.3,629.7z"/>
			<path class="st1" d="M616.5,702.8c7,16.6-30.4,6.3-39.8,7c-19.5,1.5-46,32.8-59,7.3c-4.2-8.3-0.7-19,0.4-27.8
				c0.8-6.4-14.1-26.9-4.9-37c9.7-10.7,27.9,2.4,42.7,2.9c11.1,0.4,32.5-12.9,42.2-5.9c12.1,8.7-1.8,15.8-0.6,26.4
				C598.6,686.4,612.5,693.4,616.5,702.8z"/>
			<path class="st1" d="M800,667.8c15.3-4.2,11.8-6.4,27.8-6.3c15.3,0.1,28.8-34.4-6-28.6c-29,4.9-12-0.1-31.7-0.4
				c-19.7-0.3-24.3,8.1-24.3,8.1l-6.6,0.9l5,24.9C768.4,667.5,786.5,671.5,800,667.8z"/>
			<path class="st6" d="M511.4,699.9l251.7-33.8c0,0,0.3,0.1,0.9,0.2l-5-24.9l-250.7,32.9L511.4,699.9z"/>
			<path class="st1" d="M498.9,716.4l23-1.6l-7.6-56.9l-21.7,3.1L498.9,716.4z"/>
			<path class="st4" d="M512.3,690.2l252.1-32.5"/>
			<path class="st4" d="M512.4,682.4l251.8-33.7"/>
			<path class="st1" d="M588.1,730c-4.1-3.4-8.7-5.7-13.2-6.4c-14.4-1.9-20.9,17.7-46.9,23c-2.8,0.6-19.3,3.7-36.5-3.4
				c-21.8-9-21.7-25-38.9-32.5c-5.4-2.4-11.6-3.5-17.9-3.5c6.8,37.5,25.8,61.2,81.7,55.9C561.9,758.9,579.7,736.3,588.1,730z"/>
		</g>
		<g>
			<path class="st10" d="M539,569.5c0,0-54.6,64.8-62.7,110.9c-3.3,18.6,4,45.3,36,45.3s77.9-30.9,77.9-30.9s24.9,10,31.6,3.3
				c6.7-6.7,0-4.3,0-4.3s2.9,17.2,10,17.2s19.5-12.4,19.5-12.4l-8.1-25.3c0,0,4.4,11,11,11c6.5,0,11.9-5.3,11.9-5.3l-34.3-23.4
				c0,0,8.9-3.7,8.9-5.7s0-4.6,0-4.6L569.4,664l-33.2,7l41.8-58.7L539,569.5z"/>
			<polygon class="st11" points="525.8,587.9 544.6,563.8 590.3,602.4 563,623.4 			"/>
			<line class="st4" x1="520" y1="671.1" x2="536.4" y2="671.1"/>
			<polyline class="st4" points="613.5,678.6 627.8,678.6 631.9,711.1 			"/>
			<polyline class="st4" points="626.3,671.1 635.3,674.1 638.7,708.7 			"/>
			<line class="st4" x1="638.7" y1="669.6" x2="645" y2="704.4"/>
			<line class="st4" x1="631.9" y1="655.6" x2="613.5" y2="655.6"/>
		</g>
		<g>
			<path class="st10" d="M747.5,749.5l8-36.6c0,0-11.5,1.6-3.5-18s11-17.1,11-17.1l-3.8-3.8c0,0-5.8,4-9.6,4s-4.5-4-4.5-4l8.9-12.2
				h8.9l4.9-4.9h4.1l4.1-4.1h8.2l4.7,13.7c0,0-3.6-22.9,0-26.4c3.6-3.6,7.6-3.6,7.6-3.6s5.1,66.2,0,81.8s2.6,25.1-20.2,36.2
				C753.6,765.4,747.5,749.5,747.5,749.5z"/>
			<line class="st4" x1="763.1" y1="661.7" x2="772.4" y2="671.1"/>
			<line class="st4" x1="772.1" y1="656.8" x2="781.7" y2="666.4"/>
			<line class="st4" x1="762.9" y1="704.4" x2="755.5" y2="712.8"/>
		</g>
		<circle class="st1" cx="794.7" cy="625.5" r="4.2"/>
		<circle class="st1" cx="814.5" cy="625.5" r="4.2"/>
		<circle class="st1" cx="832.5" cy="625.5" r="4.2"/>
		<polyline class="st5" points="628.3,484.5 603.7,491 588.6,486.5 		"/>
		<circle class="st5" cx="603.6" cy="493.4" r="2.4"/>
	</g>
	<path class="st4" d="M171.7,678.5c4.6,1.1,9.2,2.1,13.8,3.2"/>
	<path class="st4" d="M368.2,657.4c5,1.9,10,3.7,15,5.6"/>
	<path class="st1" d="M415.9,676c1.5,4.8-3.4,11.3-9.1,11.3c-3.3,0-6.9-2-8.2-5.8c-1.3-3.7,0.3-7.6,2.9-9.6
		C406.1,668.5,414.4,671.1,415.9,676z"/>
	<path class="st1" d="M423.9,652.5c-2.3-0.3-5.5-9.8-0.9-14c1.7-1.6,4.8-2.8,6.2-1.6C432.2,639.5,426.8,652.8,423.9,652.5z"/>
	<path class="st1" d="M228.4,668.6c-4.3-0.5-9.6-9.6-5.6-15.1c3.6-5,12.7-4.2,15.1-0.6C241.1,657.6,233.7,669.2,228.4,668.6z"/>
	<g>
		<path class="st9" d="M530,250.9c0-0.7,0-1.5-0.2-2.2c-0.8-3.9-3.8-7-7.7-7.8c-6.5-1.3-12.1,3.6-12.1,9.8c0,0.1,0,0.2,0,0.3
			c0.1,2.9-1.1,5.7-3.2,7.7c-4.3,4.1-6.7,10.2-5.6,16.8c1.3,8.4,8.3,15,16.7,15.9c11.5,1.3,21.3-7.7,21.3-19c0-5.5-2.3-10.4-6-13.9
			C531,256.6,530,253.8,530,250.9z"/>
		<g>
			<g>
				<g>
					<path class="st4" d="M520,184.5h-17.8c0,0-5.1,28-10.2,33.1s-20.4,12.7-22.9,25.5c-2.5,12.7-2.5,81.6-2.5,81.6h58.6"/>
					<line class="st4" x1="522.6" y1="266.1" x2="467.4" y2="266.1"/>
					<path class="st4" d="M490.4,324.8v-58.6c0,0-0.7-21.4,8.4-40.8c5.9-12.7,8.4-40.8,8.4-40.8"/>
				</g>
				<g>
					<path class="st4" d="M520,184.5h17.8c0,0,5.1,28,10.2,33.1c5.1,5.1,20.4,12.7,22.9,25.5c2.5,12.7,2.5,81.6,2.5,81.6h-58.6"/>
					<line class="st4" x1="517.5" y1="266.1" x2="572.7" y2="266.1"/>
					<path class="st4" d="M549.6,324.8v-58.6c0,0,0.7-21.4-8.4-40.8c-5.9-12.7-8.4-40.8-8.4-40.8"/>
				</g>
			</g>
		</g>
		<polyline class="st4" points="520,268 520,51.2 572.1,51.2 		"/>
	</g>
</g>
<path class="st12" d="M557.2,405.4c-7.8-3.1-10.1-12.4-10.2-12.9c-2.1-9.3,3.1-19.2,11.1-23.1c12.6-6.3,29.1,3.7,30.7,13.3
	C590.7,394.8,570.3,410.6,557.2,405.4z"/>
</svg>
