<?xml version="1.0" encoding="utf-8"?>
<!-- Generator: Adobe Illustrator 24.0.3, SVG Export Plug-In . SVG Version: 6.00 Build 0)  -->
<svg version="1.1" id="Layer_1" xmlns="http://www.w3.org/2000/svg" xmlns:xlink="http://www.w3.org/1999/xlink" x="0px" y="0px"
	 viewBox="0 0 672 932" style="enable-background:new 0 0 672 932;" xml:space="preserve">
<style type="text/css">
	.st0{fill-rule:evenodd;clip-rule:evenodd;fill:#49574E;}
	.st1{fill:none;stroke:#1C2628;stroke-width:2.13;stroke-linecap:round;stroke-linejoin:round;}
	
		.st2{fill-rule:evenodd;clip-rule:evenodd;fill:#F45B49;stroke:#1C2628;stroke-width:2.13;stroke-linecap:round;stroke-linejoin:round;}
	
		.st3{fill-rule:evenodd;clip-rule:evenodd;fill:#1C2628;stroke:#1C2628;stroke-width:2.13;stroke-linecap:round;stroke-linejoin:round;}
	
		.st4{fill-rule:evenodd;clip-rule:evenodd;fill:#FAF6EB;stroke:#1C2628;stroke-width:2.13;stroke-linecap:round;stroke-linejoin:round;}
	.st5{fill:#FAF6EB;stroke:#1C2628;stroke-width:2.13;stroke-linecap:round;stroke-linejoin:round;}
	
		.st6{fill-rule:evenodd;clip-rule:evenodd;fill:#F3A140;stroke:#1C2628;stroke-width:2.13;stroke-linecap:round;stroke-linejoin:round;}
	
		.st7{fill-rule:evenodd;clip-rule:evenodd;fill:#FAFCFF;stroke:#1C2628;stroke-width:2.13;stroke-linecap:round;stroke-linejoin:round;}
	.st8{fill-rule:evenodd;clip-rule:evenodd;fill:#FAF6EB;}
	.st9{fill:none;stroke:#FAF6EB;stroke-width:2.13;stroke-linecap:round;stroke-linejoin:round;}
	.st10{fill-rule:evenodd;clip-rule:evenodd;fill:#F3A13B;}
	.st11{fill:#1C2628;stroke:#1C2628;stroke-width:2.13;stroke-linecap:round;stroke-linejoin:round;}
	.st12{fill:#F55C4A;}
</style>
<g>
	<path class="st0" d="M421.9,309.6c16.3,3.4,34.8,2.1,48.9,10.1c15.2,8.8,35.7,23.9,45.2,37.7c18.2,26.3,21,56.2,36,84
		c44.5,82.8,49.2,146.4,14.9,233.2c-21.1,53.3-40,93.3-88,130.4c-20,15.5-40,38.3-66.8,44.9c-20.2,5-92-0.6-114-4.3
		c-58.2-10-99.5-69.5-96.1-120.2c1.8-27.5,23.6-52.3,8.2-79.7c-25.5-45.3-97.4-24-120.6-71c-10-20.3-3.9-42.7,0-63.7
		c15.4-82.3,92.9-152.2,177.6-185.4c10.5-4.1,21.8-8.8,33.5-13.1C339.6,297.9,382.3,297.1,421.9,309.6L421.9,309.6z"/>
	<g>
		<path class="st1" d="M157.5,411.1c36.1,39.5,79.4,85.2,102.8,181.5"/>
		<path class="st2" d="M140.4,364.3c-3.2,2.2-3.8,10.1-2.7,17.8c-4.4-3.7-9.2-6.6-12.7-6.8c-9.2-0.6-6.6,8.1-0.5,16.1
			c-4.4-0.6-8.5-0.4-11.1,0.8c-9.4,4.3-0.3,11.8,10.5,15.8c-5.4,2.1-10.1,5-12,8c-5.5,8.8,6.1,10,17.4,7.4
			c-3.3,4.7-5.8,9.7-5.7,13.3c0.2,10.3,10.6,5,18.6-3.3c-0.2,5.7,0.5,11.3,2.5,14.2c5.8,8.5,11.6-1.6,13.8-12.9
			c2.9,4.9,6.6,9.2,9.9,10.6c9.5,4,8.9-7.7,4.5-18.4c5.2,2.5,10.5,4.1,14,3.5c10.2-1.9,3.2-11.3-6.3-17.9c5.7-0.7,11.1-2.3,13.7-4.8
			c7.5-7.1-3.5-11.2-15-11.5c4.4-3.7,8-8,8.8-11.5c2.4-10.1-9.1-7.5-18.9-1.4c1.6-5.5,2.3-11.1,1.1-14.4c-3.5-9.7-11.7-1.3-16.5,9.1
			c-1.6-5.5-4.1-10.5-7-12.7C144,363.4,141.9,363.2,140.4,364.3z M148.6,400.5c1.7,0.2,3-0.2,4-1.1c1.3,1.1,2.6,1.5,3.9,1.3
			c0.5,1.6,1.4,2.6,2.5,3.2c-0.5,1.6-0.3,3,0.4,4.1c-1.3,1.1-1.9,2.4-1.9,3.7c-1.7,0.2-2.9,0.9-3.7,2c-1.5-0.7-2.9-0.8-4.1-0.3
			c-0.9-1.4-2-2.2-3.3-2.5c0.1-1.7-0.4-3-1.4-3.9c0.9-1.2,1.1-2.4,1-3.6C147.5,402.6,148.3,401.7,148.6,400.5z"/>
		<g>
			<path class="st3" d="M139.8,413.5c-3.2-7.1-0.1-15.5,7-18.7s15.5-0.1,18.7,7s0.1,15.5-7,18.7S143,420.6,139.8,413.5z"/>
		</g>
		<path class="st4" d="M235.6,511.2c-4.1-34.4,16.3-68.5,38.5-70.9c-1.5,4.7-10.2,17.9-12.2,20.6c11.6-6.1,14.1-4.3,14.1-4.3
			s-9.7,17.2-18.3,22.8c10.2,0.9,11.1,2.4,11.1,2.4S247.6,502.1,235.6,511.2z"/>
		<path class="st4" d="M206.2,495.4c-23.3-25.6-62.4-32.4-78.8-17.1c4.5,2,20.2,3.9,23.6,4.2c-12.2,4.8-12.5,7.9-12.5,7.9
			s19.4,3.9,29.3,1c-6,8.3-5.4,9.9-5.4,9.9S191.5,498.6,206.2,495.4z"/>
		<path class="st5" d="M241,505.6c-0.6-8.4,1.7-28.8,11.1-41.9"/>
		<path class="st5" d="M165.1,478.6c-0.5-0.1,7.1,1.2,15.8,5.6s19,12.1,19,12.1"/>
	</g>
	<path class="st2" d="M227.3,817.1c-36.4-79.1,48-147.3,65.3-275c69.1-14.8,161.2-9.8,161.2-9.8s61.8,160.1,78,204.4
		c32.7,89.4-93.7,121.7-93.7,121.7S263.7,896.2,227.3,817.1z"/>
	<path class="st6" d="M337,364.7l-15.7,101.5l-61.6,5.6c0,0-0.5-2.6-1-7.1c-0.9-8.8-1.3-25,3.1-44.5c6.7-29.7,24.6-67.2,24.6-67.2
		l15.5,3.6L337,364.7z"/>
	<path class="st3" d="M301.9,356.5c-1.2,8.4-4.2,13.5-7,16.6c-5.2,6.1-10.7,6.9-12.4,13.3c-0.8,3,0.2,3.7,0.6,13.6
		c0.3,6.4,0.4,9.6,0,11.6c-2.2,10.7-13.1,11.6-14.2,19.3c-1.3,9,12.8,14,12.1,21c-0.4,3.8-5.1,8.4-22.3,12.7
		c-0.9-8.8-1.3-25,3.1-44.5c6.7-29.7,24.6-67.2,24.6-67.2L301.9,356.5z"/>
	<path class="st3" d="M394.4,274.8c-9.9-4.4-7.3-22.3,6.1-32.2s35-0.9,40.5-1.2c31.1-1.5,41.8,27.4,31.6,59.2
		c-3,9.2-27.9,32.5-38.1,26.4c-10.3-6.2,9.8-35.8,1-42.6"/>
	<path class="st4" d="M445.1,311.6l3.8,32l11.2,14.3c0,0-10.7,14.7-29.5,12.5c-18.8-2.1-24.5-13.9-24.5-13.9l-1.4-41.6L445.1,311.6z
		"/>
	<path class="st4" d="M459.6,300.7c2.8-20.8-10.6-39.8-29.9-42.3c-9.6-1.3-19.2-8.2-26.4-2.3c-7.3,6-12.2,24.9-13.6,35.3
		c-2.8,20.8,10,38.2,29.3,40.8c10.5,1.4,21.4,3.7,28.9-3.3C454.2,323,458.4,310.3,459.6,300.7z"/>
	<path class="st4" d="M399.2,285.7c-4.5,5.5-16.7,15.8-14.7,19.4c2.7,4.7,13-0.6,14-1.7"/>
	<path class="st7" d="M428.6,283.6c-0.4-2.9-4.2-4.8-8.5-4.2c-4.3,0.6-7.4,3.5-7,6.4s4.2,4.8,8.5,4.2
		C425.9,289.4,429,286.5,428.6,283.6z"/>
	<path class="st7" d="M399.6,284.1c-0.3-2.7-3.4-4.5-6.7-4c-3.4,0.5-5.8,3.2-5.4,6c0.3,2.7,3.4,4.5,6.7,4
		C397.5,289.5,399.9,286.9,399.6,284.1z"/>
	<path class="st8" d="M444,343.2l1-24.8c0,0-19.7-5.7-24.5,1.2c-4.8,6.9,3.9,26.1,3.9,26.1l14.5,0.2"/>
	<path class="st3" d="M397.6,253.6c-3,2.2-1.7-5.7-2.9-2c-4,11.8,5.4,16.5,14.5,16.4c8.7,0,17.4-2.4,17.4-2.4s14.6,25,28.1,20.1
		c8.9-3.2,12.8-14.5,7.1-21.3c-4.7-5.6-11.1-8.8-18-10.8c-7-2-14.9-1.2-21.7-3.6"/>
	<path class="st3" d="M391.6,257.6c-11.7-27.4,9.5-36.4,19.9-25.2c0.4-16.4,29.8-24.2,35.2,2.7c2.5-4.4,22.1,8.9,0,20.3"/>
	<path class="st4" d="M452.2,286.3c-1.1,0.2,3.8-4.7,9.6,2.1c4.1,4.8-0.2,18.4-9.6,13.7"/>
	<path class="st1" d="M457.1,292.6l-0.3,0.9l-0.6,1.3L455,296l0,0"/>
	<path class="st3" d="M414.3,285.5c-0.1-2,1.4-3.7,3.4-3.8c2-0.1,3.7,1.4,3.7,3.4c0.1,2-1.4,3.7-3.4,3.8
		C416.1,289,414.4,287.5,414.3,285.5z"/>
	<path class="st3" d="M388.4,285.9c-0.1-1.9,1.1-3.4,2.6-3.5s2.9,1.4,3,3.2c0.1,1.9-1.1,3.4-2.7,3.5
		C389.8,289.2,388.5,287.7,388.4,285.9z"/>
	<path class="st9" d="M398.3,265.8c-3.8-1.1-5.4-5.9-6.8-9.1"/>
	<path class="st3" d="M429.3,334.2l-24.2-6.2l1,17.6c0,0,7.3-1.9,13.5-5.4C425.7,336.7,429.3,334.2,429.3,334.2z"/>
	<path class="st6" d="M460.9,350.4c0,0,54.6,16.5,63.2,52c8.6,35.6-28.8,90.2-28.8,90.2l-64.1,87.7L293.6,555
		c0,0,15.3-146.1,30.2-175.7c4.5-9,8.4-25.5,22-32.4c13.1-6.6,35.9-3.8,35.9-3.8l25.7-6.8l7.8,24.7l33.9-19.4L460.9,350.4z"/>
	<path class="st1" d="M413.2,363.5C400.6,410,385.6,456,374.7,503c-4.6,19.9-7.2,40.7-12.5,60.3"/>
	<path class="st1" d="M452.6,350.4c-10.2,37.7,5.6,34.6-28.6,19.9"/>
	<path class="st1" d="M390.8,345.1c-6.9,25-19.8,31.9,14,19.1"/>
	<path class="st1" d="M422.3,303.5C422,314,413,313,413,310"/>
	<path class="st1" d="M390.4,410.1c0-1.9-1.7-3.5-3.7-3.5s-3.7,1.6-3.7,3.5s1.7,3.5,3.7,3.5C388.7,413.6,390.4,412,390.4,410.1z"/>
	<path class="st1" d="M372.6,468.4c0-1.7-1.7-3-3.8-3c-2.1,0-3.8,1.4-3.8,3c0,1.7,1.7,3,3.8,3S372.6,470.1,372.6,468.4z"/>
	<path class="st1" d="M358.8,531.6c0-2.1-1.8-3.7-4.1-3.7c-2.3,0-4.1,1.7-4.1,3.7c0,2.1,1.8,3.7,4.1,3.7
		C356.9,535.3,358.8,533.6,358.8,531.6z"/>
	<path class="st9" d="M443.8,642.1c23.5,86.1,71.6,106.6-7.9,150.6c-13.4,7.4-50.1,31.4-63.5,38.8"/>
	<path class="st9" d="M396.5,683.6c48.6,85.3,26.6,95.7-76.3,148.6"/>
	<g>
		<path class="st3" d="M454.3,573.4c0,0,5.8-63.9-37.8-91.2c-43.6-27.3-69.7-78.5-69.7-78.5s-58.7,60.9-78.3,89.4
			c-19.6,28.5-26.8,101.5-26.8,101.5s31,18,38.6,37.9c7.5,19.6-0.6,44.6-11.9,55.2L240.9,699c0,0-9.4,83.9,22,133.7
			s79.3,70.3,171,36.3c81.4-30.2,43.3-195.1,43.3-195.1s-32.7-6.3-42.3-32.5C415.5,589.2,454.3,573.4,454.3,573.4z"/>
		<path class="st3" d="M472.9,571.3c0,0,5.8-63.9-37.8-91.2c-43.6-27.3-83.7-70.2-83.7-70.2s-44.7,52.5-64.3,81.1
			c-19.6,28.5-26.8,101.5-26.8,101.5s31,18,38.6,37.9c7.5,19.6-0.6,44.6-11.9,55.2l-27.5,11.2c0,0,2.6,83.2,34,133s67.3,71,159,37
			c81.4-30.2,43.3-195.1,43.3-195.1s-32.7-6.3-42.3-32.5C434.2,587,472.9,571.3,472.9,571.3z"/>
		<path class="st9" d="M414.5,783l-4.1-33.7l-41.8,4.6l2.9,38.3L414.5,783z"/>
		<path class="st9" d="M347.5,691c-3.4-10.1-19.8-8.4-22.3,1.7c-3.9,15.4,27.6,87.4-8.3,86.2"/>
		<path class="st9" d="M434.9,676.4c10.4-10.2,14,16.7,14.3,18.9c2.6,17-4.3,34.1,0.9,51.4c1,3.2,4,13.7,9.3,13.2"/>
		<path class="st9" d="M350.5,412.5c0.2-2.2-10.2,12.9-12.7,15.4c-11.6,11.6-19.4,25.4-29.7,37.9c-29.1,35.3-46.3,83.1-49.9,128.2"
			/>
		<path class="st9" d="M258.3,594c15.2,10.2,40.3,28.8,41.8,52.5c1.1,18-17.9,52-40.4,44.4"/>
		<path class="st9" d="M259.7,690.9c0,0,2.2,54.1,4.5,68.9c8.3,54.1,27.7,85.4,70.3,111.7c23.8,14.7,48,10.7,48,10.7"/>
		<path class="st3" d="M406.9,742.4L352.1,200c0,0-1-32-14.3-39s-7.6-10.6-7.6-10.6s32.5-25.3,10.5-38.3c-22-12.9-35.2-5.1-39.6,7.1
			c-4.4,12.2-1.5,28.9-1.5,28.9l-18.7,5.8l4.1,14.6l18.3-5.8l3.2,13.3l-22,10.1L292,206l22.4-9.7l57,553.9L406.9,742.4z"/>
		<path class="st9" d="M338.1,426.7L341,454"/>
		<path class="st9" d="M398.2,748.8l-48.5-474l-5.2-50.8"/>
		<path class="st9" d="M390,751l-50.9-475.9l-5.1-49.9"/>
		<path class="st9" d="M380,753l-51.3-478.2l-5-49"/>
		<path class="st9" d="M321.9,139.6c-21.4,14.8,8.6,45.8,13,61c2,6.8,0.7,12.9-1,19.5"/>
	</g>
	<path class="st4" d="M438.7,624.9l-26.2,18.2l-1.2,19.9l-13.6,0.2c0,0,1.9,8.3-2.4,8c-4.2-0.3-9.8-7.4-9.8-7.4s-2.1,4.8-7.7,4.4
		c-5.6-0.4-8.3-10.5-8.3-10.5l2-20.9c0,0-6.1,9.6-8.5,4.9c-2.4-4.7,5.7-22.4,5.7-22.4l41.6-32.4L438.7,624.9z"/>
	<path class="st6" d="M523.7,545.1c-14.7,38-88.6,86-88.6,86L410.8,608l-14.5-13.8c0,0,47.8-64.1,50.7-75.2
		c2.9-11.2,1.1-70.2,1.1-70.2l37.9-37.6l38.1-8.6C524.2,402.5,538.4,507,523.7,545.1z"/>
	<path class="st1" d="M399.3,650.2c-1.1,3.7-1.1,7.7-1.2,11.6"/>
	<path class="st1" d="M389.7,648.8c-2.5,3.9-3.9,11.3-3.1,15.7"/>
	<path class="st1" d="M379,645.2c-2.2,5.9-3.5,15.3-1.5,21.5"/>
	<path class="st1" d="M378.8,627.8c-2.6,3.5-5.3,6.8-8,10.2"/>
	<path class="st4" d="M287.4,354.5c6.7-13.8,32.9-51.5,41.2-49.5c8.4,2,37.9,17.9,33.4,24.7c-2.5,3.8-28.1-13.3-28.1-12.6
		c0,2,31.8,15,26.9,24.8c-1.8,3.6-29.7-14.6-32.4-15.4c-2.7-0.8,24.9,20.6,21.1,22.9c-3.7,2.2-21.3-8.4-21.3-8.4s-2.1,23.9-4.2,26
		C322.4,368.7,286.2,356.9,287.4,354.5z"/>
	<path class="st1" d="M252,707.2c-0.8,9.2-12.1,46.9-14.1,56.5c-6.3,30.2,16.9,66.5,40.2,69.1"/>
	<path class="st8" d="M129.9,569.8c-26.6,20.5-27.6-35.8-12.7-48.8c14.2-12.4,28.4,4.8,29.1,18.8C147,553.2,139.6,562.3,129.9,569.8
		z"/>
	<path class="st10" d="M165.4,689.8c11.9-4-5.6-42.7,9.2-41.4c17.5,1.5,21,48.6,7.6,57.7C174.1,711.6,152,694.3,165.4,689.8z"/>
	<path class="st10" d="M329.7,385.6c0,20-0.7,34-7.7,41.1c-7,7-17.5,4.6-17.5-15.3c0-19.8,5.6-29.4,12.6-36.5
		C324,367.7,329.7,365.6,329.7,385.6z"/>
	<path class="st3" d="M518.8,430c-3.8,4.9-5.8,10.8-6.4,16.9c-0.9,11.2-1.1,24.9,0.3,41.1c1.6,18.1-29,12.9-37.9,32.6
		c-7,15.4,4.2,24.2-3.6,37.3c-8,13.6-22.1,7.7-40,22.4c-7.3,6-16.1,16.1-20.3,27.6l24.3,23.1c0,0,73.9-48,88.6-86
		c10.6-27.4,6.1-89.3,2.8-121.8C523.5,424.8,520.9,427.2,518.8,430z"/>
	<path class="st10" d="M473,460.5c-16,0-25.7-10.1-26.3-11.2c-7-11.7-7.5-34.1,1.2-44.2c6.4-7.4,17.5-7.9,39.7-8.9
		c8.9-0.4,25-1.2,28.2-0.1c20.3,7-9.2,28.4-9.8,30.6C502.8,438.5,492,460.6,473,460.5z"/>
	<path class="st3" d="M466.4,545.3c1,5.5-15.2,14.8-18.7,11.8c-1.6-1.4-0.3-5.2,0.2-6.9c0.4-1.1,2.7-8.4,9.2-9.2
		C461,540.6,465.9,542.5,466.4,545.3z"/>
	<g>
		<path class="st11" d="M141.2,174.2c-7.7-4-16.6-4.8-24.1-3.1c-4.4,1-8.3,2.7-11.7,4.8c-0.2-2-0.5-4-0.7-6
			c-0.5-3.8-0.8-7.7-1.2-11.7c3.7-3.2,7.2-6.7,10.4-10.5c7.9-8.9,13.8-19.9,15.6-31.8c1.7-11.8,3.1-23.8-0.3-34.7
			c-0.7-2.8-1.8-4.7-3.4-8.4c-0.6-1.3-1.7-3.9-3.3-6c-1.5-2.1-4.5-3.8-7.7-3.7c-6.5,0.7-9.6,4.5-11.7,7.2c-1,1.5-1.8,2.9-2.6,4.4
			c-0.4,0.8-0.6,1.4-0.9,2l-0.2,0.5c-0.2,0.5-0.1,0.4-0.2,0.7L98.9,79C97,85,97,90.7,97.1,96.1c0.1,5.3,0.1,10.5,0.2,15.7
			c-0.2,8.2,0.1,16.3,0.6,24.2c-2.9,3.2-5.9,6.4-9.2,9.3l-5.9,5.3c-1.9,1.7-4,3.7-6.2,5.9c-8.2,8.3-15.1,18-19.4,29.3
			c-4.5,11.1-4.8,24.7,0.5,35.7c5.1,11,14.5,18.8,24.3,23.2c9.7,4.2,19.8,6.1,29.7,5.9c0.7,5.2,1.4,10.2,1.9,14.9
			c2.5,12.6-2.4,23.5-10.3,27c-5.9,2.3-11.2,0.7-14.8-1.8c0.4,0.1,0.8,0.2,1.2,0.2c5.8,0.4,10.8-3.9,11.2-9.7
			c0.4-5.8-3.9-10.8-9.7-11.2c-5.8-0.4-10.8,3.9-11.2,9.7c0,0.5,0,0.9,0,1.4l0,0c0,0,0,0,0,0.1c0.1,2.2,0.9,4.2,2.3,5.9
			c0.3,0.5,0.7,1,1.1,1.6c1.6,2.1,4.1,4.4,7.7,6c3.6,1.5,8.2,2.3,13.2,0.9c5-1.3,10-5.5,12.4-11.2c1.3-2.8,2.2-6,2.2-9.3
			c0.1-3.6-0.3-6.6-0.6-10c-0.5-4.7-1.2-9.6-1.9-14.7c8.8-0.8,17.2-3.3,24.8-7.3c8.5-4.9,15.3-12.7,18.1-21.8
			c3.1-9,2.5-18.9-0.8-27.4C155.4,185.6,149.1,178.3,141.2,174.2z M107.2,89.8c1.7-4.1,5.2-15.4,11.6-13.1c4,1.5,4.3,7.1,4.1,10.6
			c-0.5,8.4-3,16.7-7.4,23.9c-4.2,7-8.6,13.5-13.4,19.8c-0.1-6.3-0.1-12.5,0.2-18.9C102.6,104.5,104.3,96.9,107.2,89.8z M86,237.3
			c-8-4.7-14.8-11.6-17.8-20c-3-8.3-1.8-17.4,2.3-25.6c4.2-8.2,11-15.4,18.4-21.8c1.8-1.5,3.6-3.1,5.9-4.8l3-2.3
			c0.7-0.6,1.5-1.1,2.2-1.7c0.3,3.1,0.6,6.2,0.9,9.2c0.3,2.7,0.6,5.3,0.9,8c-6.4,5.1-10.6,11.8-12.4,17.8c-3,10.2-1.1,18.3,0.6,23.2
			c0.9,2.5,1.7,4.3,2.4,5.4c0.6,1.2,1,1.8,1,1.8s-0.6-2.7-0.9-7.7c-0.2-4.9,0-12.3,4-19.8c1.5-3.1,3.8-6.1,6.8-8.8
			c1.4,11.1,2.8,21.8,4.2,31.9c1,7.8,2.2,15.4,3.2,22.5C102.1,244.1,93.4,241.7,86,237.3z M153.7,220c-1.5,7.8-7,15.1-14.8,19.1
			c-6.9,3.6-15,5.5-23.2,5.7c-1.1-7.4-2.3-15.2-3.6-23.3c-1.7-10.8-3.5-22.2-5.1-34.1c3.5-2.4,7.7-4.2,12.4-5
			c10.7-1.6,23.3,3.3,30.4,15.8C153.2,204.3,155.1,212.2,153.7,220z"/>
		<path class="st11" d="M237.8,189.5c-6.8,1.9-11.1,7.4-9.5,12.2l0,0l-7.8,59.9c-0.1,0.6,0.4,1.1,1,1.2h0.1c0.6,0,1.1-0.4,1.2-0.9
			v-0.2c0.9-2.2,2.3-4.1,9.7-7.4l1.3-0.6c5.8-2.5,16.5-7.1,14-16.6c-0.2-0.6-0.8-0.9-1.4-0.8c-0.6,0.1-1,0.7-0.8,1.3
			c2,7.8-7.2,11.8-12.8,14.2l-1.4,0.6c-4.1,1.8-6.5,3.3-8.1,4.8l6.8-52.4c2.8,2.7,8,3.8,13.2,2.3c6.8-1.9,11.1-7.4,9.5-12.2
			C251.4,189.9,244.6,187.6,237.8,189.5z"/>
		<path class="st11" d="M151.2,283.4h0.8l-9.4,41.8c-2.3-2-6.1-3-10-2.2c-5.9,1.2-10,5.7-9.1,10.1s6.4,7.1,12.3,5.9s10-5.7,9.1-10.1
			c0-0.2-0.1-0.3-0.2-0.5l8.8-39l43.6-0.3L189,325c-2.3-2.1-6.1-3.1-10.1-2.3c-5.9,1.2-10,5.7-9.1,10.1s6.4,7.1,12.3,5.9
			c5.9-1.2,10-5.7,9.1-10.1c0-0.1-0.1-0.2-0.1-0.3l10.3-45.4h0.8l2.7-12.1l-50.7,0.1L151.2,283.4z M197.7,286.3l-43.6,0.3l0.7-3.3
			l43.7-0.5L197.7,286.3z"/>
	</g>
	<path class="st1" d="M457.8,472c-0.2,11.4-0.1,22.8,0.4,34.2"/>
	<path class="st1" d="M464.8,486.6c0.4,8.2,0.3,16.4-0.5,24.5c-0.5,5.6-1.4,11.4-4.5,16.2c-1.7,2.6-3.9,4.7-6,7
		c-5.6,6.2-10,13.4-14.3,20.5"/>
	<path class="st1" d="M445.1,531.7c-8.3,14.3-18,27.7-28.9,40.1"/>
	<path class="st1" d="M471.2,363.3c2.2,2.3,22.8,11.7,34,22.5"/>
	<path class="st1" d="M479.8,378c2.5,1.6,4.9,3.2,7.4,4.8c5.1,3.3,10.2,6.7,13.9,11.5c5.5,7.2,7.1,16.6,7.1,25.7
		c0,5.1-0.1,11,3.9,14"/>
	<path class="st1" d="M402.9,424.9c-4.2,11.8-7.9,23.8-11,35.9"/>
	<path class="st1" d="M325.6,380c0.7,6.1,1.1,12.3,1.2,18.5c0,2.9-0.1,5.9-1.2,8.6c-2.1,4.6-7.1,7.5-8.8,12.3"/>
	<path class="st1" d="M331.5,409.7c-4.2,7.9-9.5,15.2-15.6,21.8"/>
	<path class="st1" d="M474.4,610.5c2,5.3,4.1,10.6,6.1,15.9c1.4,3.6,3,7.5,6.3,9.6"/>
	<line class="st1" x1="469" y1="617" x2="490.9" y2="663.2"/>
	<path class="st1" d="M272.9,656.1c-4.1,7.1-7.3,14.6-9.5,22.5"/>
	<path class="st1" d="M229.6,749.1l1.8,59.3c-2-7.1-4-14.2-6-21.3"/>
	<circle class="st12" cx="433.5" cy="294.5" r="4.5"/>
</g>
</svg>
