<?xml version="1.0" encoding="utf-8"?>
<!-- Generator: Adobe Illustrator 24.1.2, SVG Export Plug-In . SVG Version: 6.00 Build 0)  -->
<svg version="1.1" id="Layer_1" xmlns="http://www.w3.org/2000/svg" xmlns:xlink="http://www.w3.org/1999/xlink" x="0px" y="0px"
	 viewBox="0 0 1066 958" style="enable-background:new 0 0 1066 958;" xml:space="preserve">
<style type="text/css">
	
		.st0{fill-rule:evenodd;clip-rule:evenodd;fill:#F45B49;stroke:#1C2628;stroke-width:2.13;stroke-linecap:round;stroke-linejoin:round;}
	.st1{fill-rule:evenodd;clip-rule:evenodd;fill:#F3A13B;}
	
		.st2{fill-rule:evenodd;clip-rule:evenodd;fill:#1C2628;stroke:#1C2628;stroke-width:2.13;stroke-linecap:round;stroke-linejoin:round;}
	.st3{fill:none;stroke:#1C2628;stroke-width:2.13;stroke-linecap:round;stroke-linejoin:round;}
	.st4{fill:#F3A13B;}
	.st5{fill:#1C2628;stroke:#1C2628;stroke-width:2.13;stroke-linecap:round;stroke-linejoin:round;}
	
		.st6{fill-rule:evenodd;clip-rule:evenodd;fill:#FAFCFF;stroke:#1C2628;stroke-width:2.13;stroke-linecap:round;stroke-linejoin:round;}
	.st7{fill-rule:evenodd;clip-rule:evenodd;fill:#FB564C;}
	.st8{fill-rule:evenodd;clip-rule:evenodd;fill:#FAF6EB;}
	
		.st9{fill-rule:evenodd;clip-rule:evenodd;fill:#FAF6EB;stroke:#1C2628;stroke-width:2.13;stroke-linecap:round;stroke-linejoin:round;}
	
		.st10{fill-rule:evenodd;clip-rule:evenodd;fill:#47584E;stroke:#1C2628;stroke-width:2.13;stroke-linecap:round;stroke-linejoin:round;}
	
		.st11{fill-rule:evenodd;clip-rule:evenodd;fill:#F3A140;stroke:#1C2628;stroke-width:2.13;stroke-linecap:round;stroke-linejoin:round;}
	.st12{fill:#49574E;}
	.st13{fill:none;stroke:#FAF6EB;stroke-width:2.13;stroke-linecap:round;stroke-linejoin:round;}
	.st14{fill:#FAF6EB;stroke:#1C2628;stroke-width:2.13;stroke-linecap:round;stroke-linejoin:round;}
	.st15{fill:#F45B49;stroke:#1C2628;stroke-width:2.13;stroke-linecap:round;stroke-linejoin:round;}
	.st16{fill:none;stroke:#FFFFFF;stroke-width:2.13;stroke-linecap:round;stroke-linejoin:round;}
	
		.st17{fill-rule:evenodd;clip-rule:evenodd;fill:none;stroke:#FEFEFE;stroke-width:2.13;stroke-linecap:round;stroke-linejoin:round;}
	
		.st18{fill-rule:evenodd;clip-rule:evenodd;fill:none;stroke:#1C2628;stroke-width:2.13;stroke-linecap:round;stroke-linejoin:round;}
	.st19{fill-rule:evenodd;clip-rule:evenodd;fill:#49574E;}
	.st20{fill:#F55C4A;}
	.st21{fill:#FAF6EB;}
	
		.st22{fill-rule:evenodd;clip-rule:evenodd;fill:#47584E;stroke:#FAF6EB;stroke-width:2.13;stroke-linecap:round;stroke-linejoin:round;}
	.st23{fill-rule:evenodd;clip-rule:evenodd;fill:#1C2628;}
	.st24{fill-rule:evenodd;clip-rule:evenodd;fill:#F7AA9A;}
	
		.st25{fill-rule:evenodd;clip-rule:evenodd;fill:none;stroke:#FAF6EB;stroke-width:2.13;stroke-linecap:round;stroke-linejoin:round;}
	.st26{clip-path:url(#SVGID_2_);}
	.st27{clip-path:url(#SVGID_4_);}
	
		.st28{fill-rule:evenodd;clip-rule:evenodd;fill:none;stroke:#FFFDFD;stroke-width:2.13;stroke-linecap:round;stroke-linejoin:round;}
	.st29{clip-path:url(#SVGID_6_);}
	.st30{fill:#FB564C;}
	.st31{clip-path:url(#SVGID_8_);}
	.st32{clip-path:url(#SVGID_10_);}
	.st33{fill:#F3A140;stroke:#1C2628;stroke-width:2.13;stroke-linecap:round;stroke-linejoin:round;}
	
		.st34{clip-path:url(#XMLID_3_);fill-rule:evenodd;clip-rule:evenodd;fill:none;stroke:#1C2628;stroke-width:2.13;stroke-linecap:round;stroke-linejoin:round;}
	.st35{fill:none;stroke:#000000;stroke-width:6;stroke-linecap:round;stroke-linejoin:round;}
	.st36{fill-rule:evenodd;clip-rule:evenodd;fill:#F55C4A;}
	.st37{fill:#47584E;stroke:#1C2628;stroke-width:2.13;stroke-linecap:round;stroke-linejoin:round;}
	.st38{fill:#1C2628;}
</style>
<g>
	<g>
		<path class="st20" d="M894.2,809c-74.5,33.8-210.6-20.8-310-36.6c-99.4-15.3-161,8.7-181.9-18.4s-1-105.1-35.7-170
			S241.8,467.7,208.4,382.4c-34-84.7-11.3-203.4,59.8-259.1c71.1-55.2,191.3-48.1,255.9,16.9c65.2,64.3,75.5,186.5,144.4,260.9
			c69.6,73.8,197.9,100.4,255.5,175.1S968.7,774.6,894.2,809z"/>
		<g>
			<g>
				<path class="st21" d="M178.2,249.6c11.9-20.9,31.4-26.3,64.9-14.8c-6.8-15.3,13.5-45.5,45.9-13.5c-9.7-51.3,67.2-57.2,63.4-7.6
					c19.2-24,70-10.3,50.3,18.3c29.7-7.4,41.7-0.5,61.2,17.7H178.2z"/>
				<path class="st21" d="M406.4,322.4H289.3c-4.4-15.1-1.7-32.2,46.1-18.4C350.4,276.1,379.6,303.9,406.4,322.4z"/>
				<path class="st21" d="M994.8,688.9H777.9c6.7-20,45.9-36.5,94.7-22.7c14.3-26.5,37.3-21.7,58.9,7.9
					C960.1,656.3,990.9,682.4,994.8,688.9z"/>
			</g>
		</g>
	</g>
	<g>
		<path class="st8" d="M768,702.9c-18.9,6-9.3,22.8-14.1,40.5c-0.9,3.3-2.2,6.3-3.5,9.3l-1.1,2.4l3,3.8l-5.1,0.9
			c0,0-0.5,1.1-0.7,1.7c-1.5,4.1-2.6,8.4-2.2,13.4c1.1,15.8,16,26.6,32.5,23.8c6.7-1.1,11.1-3.3,14.2-5.4l-0.7-8.2l6,1.7
			c0,0,3.4-8.4,2.4-16.7c-1.4-11.3-7.8-24.4-10.7-33.6C784.5,725.2,787.5,696.7,768,702.9z"/>
		<path class="st9" d="M771.1,736.2l0.6,79.8"/>
	</g>
	<g>
		<path class="st3" d="M385.9,348.1C407,362,418.8,390,406,430c-11.3,35.1-62,68.3-14.3,101c79.2,54.5,202.3-48.5,234.5-90.3
			c45.9-59.5,110.6-37.7,98.9-17.2c-16.4,28.6-25.3,44.7,17.6,57c58.2,16.6,153.2-48.8,172.1,47.3c2.2,11.1,1.9,22.5,2.9,33.7"/>
		<path class="st8" d="M484.8,422.8c-19.2,11.4-38.8,22.3-57.7,34.3c-44.5,28.2-19.1,79.8-30.3,96c-28.2,41-83.2,52.8-104.7,99.2
			c-15,32.4,11.7,64.7,36.6,82c4.8,3.4,10.2,8,16,7.4c11.3-1.2,20.4-10.9,31.6-12.5c19.9-2.9,40.5,2.6,60.4-0.7
			c42.1-7.2,82.4-22.7,124.3-30.7c34-6.5,69-6.8,103.1-12.7c9.6-1.7,21-17.4,24.2-23.7c5.4-10.7,9.8-22.1,12.6-33.8
			c8-32.5,16.2-78.9-1-110.2c-16.3-29.5-58.7-7.4-74.2-33.1c-16.9-28-44.8-64.9-84.1-63.5c-10.5,0.4-20.9,2.9-31.3,4.4"/>
		<path class="st9" d="M474.6,432.8c0-2.4-1.7-4.4-3.9-4.4c-2.1,0-6.9,1.2-7.1,3.6c-0.7,7.8-2.2,20.6-2.2,20.6s4.1,5.9,6.9,0
			c1.7-3.5,1.8-15.3,2.3-15.3C472.8,437.3,474.6,435.3,474.6,432.8z"/>
		<path class="st10" d="M687,573l-32.8,45.2l-89.7,56.4l-64,5.7l28.3-29.3l53.2-9.5l2.1-30.1L542.6,567l23.4-41.3l12.9-22.9
			c0,0,7.6-6.1,36,8.5c13.8,7.1,31.2,21.8,45.4,35.1C675.4,560.5,687,573,687,573z"/>
		<path class="st2" d="M660.2,546.4c-0.4,5.7-1.9,9.9-4.5,11.2c-4.6,2.3-10.3-6-30.2-13.6c-4-1.5-4.6-1.5-19.5-5.5
			c-31.6-8.6-37.7-11.1-40-12.8l12.9-22.9c0,0,7.6-6.1,36,8.5C628.6,518.5,646,533.2,660.2,546.4z"/>
		<path class="st8" d="M470.1,412.5c-9.5-4.2-7-21.4,5.9-30.9c12.8-9.5,33.8-4.2,39.1-4.5c29.8-1.5,39.8,29.5,30,60.1
			c-2.8,8.9-26.8,31.1-36.5,25.3c-9.9-5.9,9.4-34.3,1-40.8"/>
		<path class="st0" d="M518.7,447.7l3.7,30.6l10.8,13.7c0,0-10.3,14.1-28.2,12c-18-2-23.5-13.3-23.5-13.3l-1.4-39.8L518.7,447.7z"/>
		<path class="st10" d="M532.6,437.3c-1.2,9.1-3.2,16.9-9.3,22.6c-7.1,6.7-19,10.4-29,9.1c-15.3-2-25.8-10.9-27.5-25.1
			c-0.4-3-0.3-6.2,0.1-9.7v0c1.3-10,0.1-30.1,3.1-33.1c4.1-3.4,24-8,24-8s17.3,6.5,21,7C524,402,535.2,417.4,532.6,437.3z"/>
		<path class="st10" d="M488,423c-3.3,4-12.2,11.4-10.7,14c1.9,3.4,9.5-0.5,10.2-1.3"/>
		<path class="st19" d="M523.1,483.7l1.2-29c0,0-23.1-6.6-28.7,1.5c-5.6,8.1,4.6,30.6,4.6,30.6l16.9,0.2"/>
		<path class="st10" d="M528.8,422.6c-1.1,0.2,3.7-4.5,9.3,2c3.9,4.6-0.2,17.6-9.2,13.1"/>
		<path class="st3" d="M534,428.2l-0.2,0.8l-0.6,1.3l-1.1,1.2l0,0"/>
		<path class="st2" d="M503.3,468.7l-24.2-3.5l-0.3,21.3c0,0,8.6-2.2,15.7-6.3C501.7,476.1,503.3,468.7,503.3,468.7z"/>
		<path class="st11" d="M683.4,685.9c-6.8,39.6,1.5,89.3-36.5,108.6c-25.7,13.1-69,9.5-106.9,4.1c-19.5-2.8-37.6-6.1-51-7.9
			c-23.1-3.1-46.4-1.9-69.3-6.6c-12.1-2.5-23.7-4.9-35.7-7.8c-6.9-1.7-17.4,1.4-23.7-1.6c-4.7-2.3-2.9-27.2-4-32.1
			c-1.2-5.4-12.9-27.9-11.1-31.7c1.8-3.8,24.4-7.6,28-8.7c29.8-8.9,41.5-18,72.7-19.3c13-0.5,132.4-4,145.1-15
			c9.2-8,19.7-20.4,19.9-31.4c0.1-3.5,40.6,7,62.3,11.1c7.9,1.5,13.5,2.7,14.4,3.2C692.7,653.8,684.1,681.7,683.4,685.9z"/>
		<path class="st2" d="M683.4,685.9c-6.8,39.6,1.5,89.3-36.5,108.6c-25.7,13.1-69,9.5-106.9,4.1c19-22.8,63.1-2.3,97.5-34.4
			c11.7-11,2.6-17.9,7.1-31.8c6.1-19.1-8.1-29.7-5.9-46.1c2.1-16,18.3-31.4,34.6-38.6c7.9,1.5,13.5,2.7,14.4,3.2
			C692.7,653.8,684.1,681.7,683.4,685.9z"/>
		<path class="st10" d="M608.1,854.6c-9.7,11.6-76.6-30.8-93.4-30.2c-9.2,0.3-21.8,1.5-36.8,3.2c-72,8-196.3,26.5-231.4,8.6
			c-18.6-9.5-30.3-19-36.5-28.1c-38.5-56.5,127.5-103.5,127.5-103.5l21,45.4c0,0,117.6-6.5,159.6-0.6c20.5,2.9,44.8,10.6,44.8,10.8
			C563.3,769.6,617.8,842.9,608.1,854.6z"/>
		<path class="st2" d="M477.9,827.6c-72,8-196.3,26.5-231.4,8.6c-18.6-9.5-30.3-19-36.5-28.1c10-8.4,24.6-12.6,36.4-9
			c14,4.3,12.3,16.3,25.5,21.3c19.9,7.7,35.2-15.2,64.6-15.4c19.7-0.1,22.6,16.5,43.3,16c12.9-0.3,16.7-5.9,29.9-8.9
			c23.4-5.4,43.7,4.5,55.1,9.5C467.9,822.9,472.8,825,477.9,827.6z"/>
		<path class="st10" d="M610.9,636.6c0,0,49.2-198.8,137.3-149.8c61.4,34.1-10,220.8-7.4,289.1c0.6,16.9,59.6,41.5,46.8,49.4
			c-12.9,8-116.2-12.3-125.5-14.1c-0.2,0-2.5-34.4-2.5-55c0-42.4,1.1-113.3,1.1-113.3L610.9,636.6z"/>
		<path class="st9" d="M541.8,750.5l37.6,81.8l-29.3,7.7c0,0,43.6,23.7,65.3,34.2c6.8,3.3,11.7,4.9,15.3,5.7l-70.2-130L541.8,750.5z
			"/>
		<path class="st2" d="M571.9,749.4l-11.4,0.4l70.2,130c7.9,1.6,9.3-1.2,9.3-1.2L571.9,749.4z"/>
		<path class="st9" d="M799.2,820.7c-17.4-16.7-56.7-45.3-56.7-45.3l4.8,26.1l-89.8-6.8l-0.2,18.2l153.2,21.4
			C808.8,831.1,805.4,826.7,799.2,820.7z"/>
		<path class="st2" d="M657.4,813.1l-0.1,8l154.7,21.2c0,0,1.9-2-1.4-7.9L657.4,813.1z"/>
		<path class="st10" d="M595.3,670c0,0-44.1,19.8-79.4,23.8c-35.3,4-69.6-10.6-69.6-10.6l4-65.5l-14.5-11.7l-26.7,69.5
			c0,0-46.3,95.5-91.8,64.5c-45.5-30.9-46.3-130.7-49.9-145.2c-2.4-9.6-2.2-45.5-5.6-74.8c-1.8-14.8-1.3-21.8-1.3-21.8
			s6.3-5.8,13,7.6l1.5,17.4l4.9,15.1c0,0,20.5-12.9,29.9-9.5c9.5,3.4,9.6,18.3,9.6,18.6c0,0-1.6,3.7-7.6,0.7c-3-1.5-7.1-9-7.1-9
			l-8.8,10.6l2.1,15.5l9-4.7c0,0,1.8-3.9,5.2-7c3.4-3.2,8.3-1.4,8.3-1.4l-3.4,17.6l-13.3,10.9l28.8,82.5c0,0,0.6-1,1.7-2.8
			c6.4-10.9,29.3-51.4,40.6-92.4c11-39.6,38.7-51.2,47.9-54c1.9-0.6,3-0.8,3-0.8l142-2.9l8.1,96.4L595.3,670z"/>
		<path class="st2" d="M429,534.5c-11.5,11.2-30.2,22.2-36.1,33.4c-7.4,13.8-2,18.4-8.5,44.4c-3.4,13.7-6.4,25.3-15.5,36.5
			c-7.1,8.6-21.6,21.4-30.2,17.3c-1.3-0.6-3-1.9-4.5-5.8c6.4-10.9,29.3-51.4,40.6-92.4c11-39.6,38.7-51.2,47.9-54
			c0.5-0.3,1.1-0.6,1.6-0.8L429,534.5z"/>
		<path class="st3" d="M262.5,589.9c-64,36.5,59.6,38.6,63.3-5.7"/>
		<path class="st11" d="M586.9,600c-2.2,1.9-5,3.2-8.5,3.9c-10.1,2.2-62.8,7.6-98.3,11.2c-0.3,0-0.7,0.1-1,0.1
			c-18.6,1.9-32.2,3.2-32.2,3.2s-2.4-0.4-5.4-2.5c-4.7-3.2-10.9-10.5-11.8-26.6c-0.7-12,2.6-39.5,2.6-39.5l-3.3-15.2l-4.7-21.4
			l0-0.2c0,0,25.4-5.3,38.4-13.6c13.1-8.3,13.8-19.5,13.8-19.5l49.7-4.1l1.5-0.1c0,0,5.4,7.3,14.2,12.7c0,0,0,0,0,0
			c1.4,0.8,2.8,1.6,4.3,2.3c2.4,1.1,5,2,7.8,2.5c1.8,0.4,3.7,0.7,5.6,1.1h0c13.2,2.6,28.2,5.6,28.2,5.6L575,532.5
			c0,0,10.8,17.7,13.9,27.9C594.9,580.3,594.6,593.5,586.9,600z"/>
		<path class="st3" d="M662.8,617.6l-2.8,33.6"/>
		<path class="st3" d="M401.8,685.7c12.9-4.5,34.2-6.7,34.2-6.7s-1.7,14.2,32.2,20.5c33.9,6.3,60.7,2,60.7,2"/>
		<path class="st8" d="M485.7,366.4c0-8.2,7.1-14.9,15.9-14.9c8.8,0,15.9,6.7,15.9,14.9c0,8.2-7.1,14.9-15.9,14.9
			C492.8,381.2,485.7,374.6,485.7,366.4z"/>
		<path class="st10" d="M470.1,422.6c3.4,1.7,7.9,0.6,11-1.5"/>
		<path class="st10" d="M501.3,419.9c5.9,2.9,8.7,1.3,14.4-1.4"/>
		<path class="st18" d="M309.8,757.5c-8.4-0.5-17.7,3.3-25.3,7.3c-2.9,1.5-10.8,7-7.9,5.6c33.8-16.7,72.5-22.5,109.6-23.4"/>
		<path class="st18" d="M288,818c2.4,16.4,29.8,7.4,38.9,4.9c18.3-5.2,36.4-12,55.2-15.6c27.7-5.4,55.6-1.9,82.6,5"/>
		<path class="st18" d="M407,819c13.3-2.6,21.5,0,35,1"/>
		<path class="st18" d="M749.1,533.9c-6.1,11.8-20.6,32.8-10.2,47c9.1,12.5,18.2-10.5,15.1-11.8c-3.1-1.3-3.3,5.9-4.4,9.1
			c-3,8.3-6,16.7-7.9,25.3c-4.3,19.9-7.3,69.5-8.7,87.5"/>
		<path class="st18" d="M744,648c0,25-8.7,63.3-10.5,76"/>
		<path class="st10" d="M268.1,558.6c1.2-8.3,6.7-15.6,13.1-20.4"/>
		<path class="st0" d="M492,372.7h18.6c2.5,0,4.5,2,4.5,4.5l0,0c0,2.5-2,4.5-4.5,4.5H492c-2.5,0-4.5-2-4.5-4.5l0,0
			C487.5,374.7,489.5,372.7,492,372.7z"/>
		<path class="st2" d="M510.8,629c3.5,1.8,58.4,34.8,58.4,34.8c10,7,2.9,13.3-4.1,23.4l-5.3,7.8c-7,10-19.6-0.7-29.6-7.8l-42.2-26.7
			C481.1,653.3,507.3,627.3,510.8,629z"/>
		<path class="st22" d="M594.8,587.6l11.4,35.3c-10.5,15.6-37.1,23.9-37.1,23.9s-27.5,0.5-34.9,7.2c-7.8,7.1,27.2,3.2,24,5.4
			c-6.4,4.4-16.3,11.5-16.3,11.5l-18.3,4.4c0,0-20.9-4.6-26.1-5.4c-5.2-0.8-10,4.2-10,4.2s29.2,13.9,38.4,13.2
			c40.7-3.2,54.4-9.1,54.4-9.1l19.9-7.9l11.2-31.4"/>
		<path class="st3" d="M611,637l-21.7,62.1"/>
		<path class="st3" d="M550.1,727.3c2.3,9.2,13.7,16.9,19.5,24.7"/>
		<path class="st9" d="M529.9,428.2c0-2.4,1.7-4.4,3.9-4.4c2.1,0,6.9,1.2,7.1,3.6c0.7,7.8,2.2,20.6,2.2,20.6s-4.1,5.9-6.9,0
			c-1.7-3.5-1.8-15.3-2.4-15.3C531.7,432.6,529.9,430.6,529.9,428.2z"/>
		<path class="st3" d="M120.4,614.9c-5.2,25.2-5,55.2,9.3,76.5c14.4,21.5,41.7,38.5,67.7,38.3c44.7-0.2,83.5-41.6,128.1-39.3
			c21.9,1.1,30,32.1,45,48.1"/>
		<path class="st3" d="M744,451c24,40.1,140.2-44.6,186,37"/>
		<path class="st3" d="M795,500.4c44.9,0.2,92-24.4,101.7,45.1"/>
		<path class="st3" d="M369.9,356.5c12.6,11.5,20.1,23.5,23.7,46.5"/>
		<path class="st3" d="M371.1,381.2C393,419,372.6,442.1,360,469"/>
		<path class="st3" d="M140.3,681.6c16.8,28.8,53.6,37.2,81.3,32.7"/>
		<path class="st3" d="M142.3,727.3c33.6,32.4,77.2,16.7,100.4,9.7"/>
	</g>
	<path class="st3" d="M660.4,784.6c0,0-7.8,8-15.7,10.9c-7.8,3-24,6.8-30.2,7.2"/>
	<path class="st2" d="M591.2,621.8C578.2,632,569.1,633,563,631.9c-6.4-1.2-8.2-4.4-18.3-8.2c-2.9-1.1-12.5-4.5-23.6-4.8
		c-19.8-0.5-29.2,9.2-36.5,3.8c-1.7-1.2-3.5-3.4-4.5-7.7c35.5-3.5,88.2-9,98.3-11.2c3.5-0.7,6.3-2,8.5-3.9
		C590,607.8,590.9,616,591.2,621.8z"/>
	<path class="st23" d="M585.6,638.4l-9.9-34c0,0,10.2-1.9,12.7-4.4c2.5-2.5,5.4-11.9,5.4-11.9l11.7,34.7c0,0-3.2,5.9-9.4,9.4
		C589.8,635.8,585.6,638.4,585.6,638.4z"/>
	<path class="st2" d="M630.2,751.2c2.6,1.4-3.2,12-10.6,16.1c-5.4,3-11.1,2.3-10.2-1.3c0.6-2.4,3.9-5.3,5.6-6.8
		C620.1,754.7,628.1,750.1,630.2,751.2z"/>
	<path class="st2" d="M631.8,725.4c-2.1-1.5-0.4-8.7,2.4-9.4c1-0.2,2.1,0.5,2.6,0.8c1.4,0.9,2.4,2.6,2.3,4.2
		C638.8,724.5,633.5,726.7,631.8,725.4z"/>
	<line class="st3" x1="308.8" y1="249.6" x2="463.9" y2="249.6"/>
	<line class="st3" x1="377.9" y1="263" x2="487.5" y2="263"/>
	<line class="st3" x1="274.7" y1="322.4" x2="365.2" y2="322.4"/>
	<line class="st3" x1="308.8" y1="331.4" x2="389.7" y2="331.4"/>
	<path class="st5" d="M194.8,689.6l0.5-0.1l-1.1,31.3c-1.9-1.2-4.8-1.4-7.6-0.3c-4.1,1.7-6.4,5.5-5.1,8.5c1.2,3.1,5.5,4.2,9.6,2.6
		c4.1-1.6,6.4-5.4,5.1-8.5c0-0.1-0.1-0.2-0.2-0.3l1.1-33.7l31.4-6.9l-1.1,30.9c-1.9-1.3-4.9-1.5-7.7-0.4c-4.1,1.6-6.4,5.4-5.2,8.5
		c1.2,3.1,5.5,4.2,9.6,2.6c4.1-1.6,6.4-5.4,5.1-8.5c0,0-0.1-0.1-0.1-0.1l1.1-33.4l28.2-6.2l-1,28.8c-1.9-1.2-4.8-1.5-7.7-0.3
		c-4.1,1.6-6.4,5.4-5.1,8.5c1.2,3.1,5.5,4.2,9.6,2.6c4.1-1.6,6.4-5.4,5.1-8.5c0-0.1-0.1-0.1-0.1-0.2l1.1-31.2l0.6-0.1l0.4-10.2
		l-66.5,16L194.8,689.6z"/>
	<path class="st5" d="M159.6,669.7c-8.7,3.5-15.7,4-20.9,1.6c-0.9-0.4-1.7-1-2.4-1.5c3.2,0.4,6.5-0.9,8.5-3.7
		c2.9-4.1,2-9.8-2.1-12.7c-4.1-2.9-9.8-2-12.7,2.1c-2.8,3.9-2,9.1,1.5,12.2c1.4,2.1,3.5,4.2,6.3,5.5c5,2.4,11.5,2.2,19.3-0.4
		l-33.6,46.9l1.7,1.2l35.5-49.6c0.3-0.4,0.3-0.9,0-1.2C160.5,669.7,160,669.5,159.6,669.7z"/>
	<path class="st5" d="M810.1,480.1c0,0-29.4,16.5-6.4,33.3c-8.1-17,14.8-32.6,14.8-32.6c-12.2-12.9,0.6-13.6,7.8-24.8
		c11.5-17.8-6.2-20.2-6.2-20.2c9.1,12.4-11.5,15.9-17.2,26.8C797.7,472.6,803.8,477.2,810.1,480.1z"/>
	<path class="st9" d="M454.6,521.9c-1.1,0.7-1.3,3.4-0.9,5.9c-1.5-1.2-3.1-2.2-4.2-2.3c-3.1-0.2-2.2,2.7-0.2,5.4
		c-1.5-0.2-2.8-0.1-3.7,0.3c-3.1,1.4-0.1,3.9,3.5,5.3c-1.8,0.7-3.4,1.7-4,2.7c-1.8,2.9,2,3.3,5.8,2.5c-1.1,1.6-1.9,3.2-1.9,4.4
		c0.1,3.4,3.5,1.7,6.2-1.1c-0.1,1.9,0.2,3.7,0.8,4.7c1.9,2.8,3.9-0.5,4.6-4.3c1,1.6,2.2,3.1,3.3,3.5c3.2,1.3,2.9-2.6,1.5-6.1
		c1.7,0.8,3.5,1.4,4.7,1.2c3.4-0.6,1.1-3.8-2.1-5.9c1.9-0.2,3.7-0.8,4.5-1.6c2.5-2.4-1.2-3.7-5-3.8c1.5-1.2,2.6-2.7,2.9-3.8
		c0.8-3.4-3-2.5-6.3-0.5c0.5-1.8,0.8-3.7,0.4-4.8c-1.2-3.2-3.9-0.4-5.5,3c-0.5-1.8-1.4-3.5-2.3-4.2
		C455.8,521.6,455.1,521.5,454.6,521.9z M457.4,533.9c0.5,0.1,1-0.1,1.3-0.4c0.4,0.4,0.9,0.5,1.3,0.4c0.2,0.5,0.5,0.9,0.8,1.1
		c-0.2,0.5-0.1,1,0.1,1.4c-0.4,0.4-0.6,0.8-0.6,1.2c-0.6,0.1-1,0.3-1.2,0.7c-0.5-0.2-1-0.3-1.4-0.1c-0.3-0.5-0.7-0.7-1.1-0.8
		c0-0.6-0.1-1-0.5-1.3c0.3-0.4,0.4-0.8,0.3-1.2C457,534.6,457.2,534.3,457.4,533.9z"/>
	<path class="st9" d="M522,543.5c-1.7,1.2-2,5.2-1.4,9.3c-2.3-1.9-4.8-3.4-6.6-3.5c-4.8-0.3-3.4,4.2-0.3,8.4
		c-2.3-0.3-4.4-0.2-5.7,0.4c-4.9,2.2-0.2,6.1,5.4,8.2c-2.8,1.1-5.3,2.6-6.2,4.2c-2.9,4.5,3.2,5.2,9,3.9c-1.7,2.4-3,5-3,6.9
		c0.1,5.4,5.5,2.6,9.7-1.7c-0.1,3,0.2,5.8,1.3,7.4c3,4.4,6-0.8,7.2-6.7c1.5,2.6,3.4,4.8,5.1,5.5c4.9,2.1,4.6-4,2.3-9.5
		c2.7,1.3,5.5,2.1,7.3,1.8c5.3-1,1.6-5.9-3.3-9.3c3-0.4,5.7-1.2,7.1-2.5c3.9-3.7-1.8-5.8-7.8-6c2.3-1.9,4.1-4.1,4.6-5.9
		c1.2-5.2-4.7-3.9-9.8-0.7c0.9-2.9,1.2-5.7,0.6-7.5c-1.8-5-6.1-0.7-8.6,4.7c-0.9-2.9-2.1-5.4-3.6-6.6
		C523.8,543,522.7,542.9,522,543.5z M526.2,562.3c0.9,0.1,1.6-0.1,2.1-0.5c0.7,0.6,1.3,0.8,2,0.7c0.3,0.8,0.7,1.4,1.3,1.7
		c-0.2,0.8-0.1,1.5,0.2,2.1c-0.7,0.6-1,1.2-1,1.9c-0.9,0.1-1.5,0.5-1.9,1c-0.8-0.4-1.5-0.4-2.1-0.2c-0.5-0.7-1-1.2-1.7-1.3
		c0-0.9-0.2-1.6-0.7-2c0.4-0.6,0.6-1.3,0.5-1.9C525.6,563.4,526,562.9,526.2,562.3z"/>
	<path class="st9" d="M474.6,607.5c2.3-1.9,4.1-4.1,4.5-5.9c1.2-5.2-4.7-3.9-9.8-0.7c0.9-2.9,1.2-5.7,0.6-7.5
		c-1.8-5-6.1-0.7-8.6,4.7c-0.9-2.9-2.1-5.5-3.6-6.6c-1.4-1-2.4-1.1-3.2-0.6c-1.7,1.2-2,5.2-1.4,9.3c-2.3-1.9-4.8-3.4-6.6-3.5
		c-4.8-0.3-3.4,4.2-0.3,8.4c-2.3-0.3-4.4-0.2-5.8,0.4c-4.9,2.3-0.2,6.1,5.4,8.2c-1.6,0.6-3.1,1.4-4.3,2.2c3,2.1,5.4,2.5,5.4,2.5
		s13.6-1.3,32.2-3.2c1.4-0.4,2.5-1,3.2-1.7C486.2,609.8,480.6,607.7,474.6,607.5z M463.4,615.6c-0.9,0.1-1.5,0.5-1.9,1
		c-0.8-0.4-1.5-0.4-2.1-0.2c-0.5-0.8-1-1.2-1.7-1.3c0-0.9-0.2-1.5-0.7-2c0.4-0.6,0.6-1.3,0.5-1.9c0.7-0.4,1.1-0.9,1.3-1.5
		c0.9,0.1,1.6-0.1,2.1-0.6c0.7,0.6,1.4,0.8,2,0.7c0.3,0.8,0.7,1.4,1.3,1.7c-0.2,0.8-0.1,1.5,0.2,2.1
		C463.8,614.3,463.5,614.9,463.4,615.6z"/>
	<path class="st9" d="M557.4,494.6c0.8-0.1,1.5-0.2,2.3-0.4c-1.9-0.4-3.8-0.8-5.6-1.1c-2.8-0.6-5.4-1.4-7.8-2.5
		c-0.1,0.6,0,1.2,0.3,1.7c-0.7,0.6-1,1.2-1,1.9c-0.9,0.1-1.5,0.5-1.9,1c-0.8-0.4-1.5-0.4-2.1-0.2c-0.5-0.8-1-1.2-1.7-1.3
		c0-0.9-0.2-1.5-0.7-2c0.4-0.6,0.6-1.3,0.5-1.9c0.7-0.4,1.1-0.9,1.3-1.5c0.4,0,0.7,0,1,0c-8.9-5.3-14.2-12.7-14.2-12.7l-1.5,0.1
		c-1.7,1.2-0.4,4.7,2.1,7.9c-2.3-0.3-4.4-0.2-5.8,0.4c-4.9,2.2-0.2,6.1,5.4,8.2c-2.8,1.1-5.3,2.6-6.2,4.1c-2.9,4.6,3.2,5.2,9,3.9
		c-1.7,2.4-3,5-3,6.9c0.1,5.4,5.5,2.6,9.7-1.7c-0.1,3,0.2,5.8,1.3,7.4c3,4.4,6-0.8,7.2-6.7c1.5,2.6,3.4,4.8,5.1,5.5
		c5,2.1,4.6-4,2.3-9.5c2.7,1.3,5.5,2.1,7.3,1.8C565.9,502.9,562.3,498,557.4,494.6z"/>
	<path class="st3" d="M514.9,602.3c-1,1.4-0.7,3.4,0.4,4.8c1,1.4,2.6,2.2,4.2,2.9c2.8,1.2,5.9,2,8.9,2.2"/>
	<path class="st3" d="M565.3,522.5c0.3,4.5,3,8.8,7,10.9"/>
	<path class="st3" d="M570.5,519c-0.6,3.5,2.2,11.4,4.5,14"/>
	<path class="st3" d="M437.3,544.8c0,3-2.5,5.7-5.4,6.1"/>
	<path class="st3" d="M468.9,491.7c2.4,2.7,5.7,4.4,9.2,4.8c7.1,0.8,13.8-3.5,20.9-3.4c6.5,0.1,12.6,3.8,19.1,3.2"/>
	<path class="st3" d="M474.1,484.3c-0.4,1.3,1,2.4,2.3,2.9c9.5,3.7,20.2-2.7,30.2-1"/>
	<path class="st8" d="M322.9,458.7c-10-3.9-16-16.7-12.3-23.7c4.5-8.7,24.5-10.1,32,0c3.8,5.1,5,14,0,20
		C337.4,461.3,328.3,460.8,322.9,458.7z"/>
	<path class="st2" d="M781.6,638.1c-4.8-5.4-1.9-20.4,8.1-25.8c13.1-7,29.8,6.7,29.3,14.2C818.5,636.2,789,646.4,781.6,638.1z"/>
	<path class="st2" d="M815.5,804.3c-4.1-2.3-4.7-9.8-1.8-12.4c3.8-3.4,13.9,1,14.2,5.3C828.2,801.2,820.4,807,815.5,804.3z"/>
	<polygon class="st5" points="239.4,485.9 203.5,465.2 239.4,444.4 	"/>
	<polygon class="st5" points="586,396.7 654.1,357.4 586,318.1 	"/>
	<ellipse class="st21" cx="509.5" cy="439" rx="6.5" ry="5"/>
	<path class="st21" d="M468.5,434c3.6,0,6.5,2.2,6.5,5s-2.9,5-6.5,5"/>
	<path class="st13" d="M500,390c0,0-5,7,3,11s13.3,2,16,7c7,13,18,7,18,7"/>
</g>
</svg>
